<svg width="285" height="172" viewBox="0 0 285 172" fill="none" xmlns="http://www.w3.org/2000/svg">
<rect x="0.5" y="0.5" width="284" height="171" rx="13.5" fill="#E6E6E6" stroke="#362525"/>
<rect x="124.5" y="15.5" width="145" height="141" rx="7.5" fill="#9DCCC6" stroke="black"/>
<g filter="url(#filter0_d)">
<path d="M163.308 63.2478C172.051 59.7388 186.385 57.9184 186.385 57.9184L227.223 52.3529L231.613 86.6469C231.613 86.6469 237.31 105.232 243 114.794C229.687 120.49 202.766 125.47 202.766 125.47L169.528 130L162.018 71.335C162.018 71.335 160.821 66.6549 163.308 63.2457L163.308 63.2478Z" fill="#AEAEAD"/>
<path d="M151.167 53.7441C162.855 50.3689 178.56 48.3075 178.56 48.3075L226.15 42L231.266 80.8661C231.266 80.8661 233.018 96.108 239.649 106.946C227.018 122.217 197.647 124.866 197.647 124.866L158.914 130L150.162 63.5136C150.162 63.5136 149.404 57.1209 151.167 53.7441Z" fill="url(#paint0_linear)" stroke="#362525" stroke-width="2"/>
<path d="M178.254 76.4854L178.811 79.2734L179.812 76.5391C179.838 76.4674 179.878 76.43 179.934 76.4268L180.94 76.3926C180.979 76.3958 181.01 76.4089 181.032 76.4316C181.058 76.4544 181.071 76.4788 181.071 76.5049L179.25 80.5771L178.874 83.8633C178.864 83.9414 178.822 83.9821 178.747 83.9854L177.741 84.0195C177.67 84.0195 177.634 83.9886 177.634 83.9268L178 80.6846L177.004 76.5049C177.004 76.4593 177.048 76.4333 177.136 76.4268L178.127 76.3877C178.199 76.391 178.241 76.4235 178.254 76.4854ZM182.956 84.0537C182.38 84.0537 181.957 83.8812 181.687 83.5361C181.42 83.1878 181.286 82.6816 181.286 82.0176C181.286 81.7083 181.32 81.3047 181.389 80.8066C181.457 80.3086 181.521 79.9473 181.579 79.7227C181.638 79.4948 181.721 79.2734 181.828 79.0586C181.936 78.8405 182.063 78.6615 182.209 78.5215C182.531 78.209 182.968 78.0527 183.518 78.0527C184.299 78.0527 184.805 78.3392 185.036 78.9121C185.16 79.2181 185.222 79.5892 185.222 80.0254C185.222 80.4583 185.188 80.9076 185.119 81.373C185.054 81.8385 184.992 82.1836 184.934 82.4082C184.875 82.6296 184.792 82.8477 184.685 83.0625C184.581 83.2741 184.455 83.4499 184.309 83.5898C183.986 83.8991 183.536 84.0537 182.956 84.0537ZM183.82 81.915C183.856 81.7425 183.902 81.4202 183.957 80.9482C184.016 80.473 184.045 80.1214 184.045 79.8936C184.045 79.3402 183.845 79.0635 183.444 79.0635C183.256 79.0635 183.099 79.153 182.976 79.332C182.855 79.5111 182.758 79.8089 182.683 80.2256C182.533 81.0719 182.458 81.7588 182.458 82.2861C182.458 82.8135 182.657 83.0771 183.054 83.0771C183.243 83.0771 183.399 82.9876 183.523 82.8086C183.65 82.6263 183.749 82.3285 183.82 81.915ZM188.718 83.8975L188.757 83.5215C188.363 83.8763 187.917 84.0537 187.419 84.0537C187.045 84.0537 186.768 83.917 186.589 83.6436C186.413 83.3701 186.325 83.0283 186.325 82.6182C186.325 82.5498 186.332 82.457 186.345 82.3398L186.809 78.2529C186.819 78.1748 186.859 78.1341 186.931 78.1309L187.917 78.0918C187.986 78.0983 188.02 78.1325 188.02 78.1943L187.58 82.0469C187.57 82.1315 187.566 82.2096 187.566 82.2812C187.566 82.5547 187.618 82.737 187.722 82.8281C187.829 82.9193 187.989 82.9648 188.2 82.9648C188.415 82.9648 188.627 82.9242 188.835 82.8428L189.353 78.2529C189.362 78.1748 189.403 78.1341 189.475 78.1309L190.461 78.0967C190.529 78.1032 190.564 78.1374 190.564 78.1992L189.929 83.8486C189.919 83.9268 189.875 83.9691 189.797 83.9756L188.845 84.0195C188.76 84.0163 188.718 83.9756 188.718 83.8975ZM195.393 83.9268L194.983 78.082L194.616 83.8584C194.61 83.9398 194.568 83.9821 194.489 83.9854L193.557 84.0195C193.485 84.013 193.449 83.9821 193.449 83.9268L194.289 76.5391C194.296 76.5 194.306 76.4723 194.319 76.4561C194.335 76.4398 194.367 76.43 194.416 76.4268L195.647 76.3828C195.725 76.3861 195.767 76.4251 195.774 76.5L196.218 82.3789L197.912 76.5391C197.929 76.4674 197.974 76.43 198.049 76.4268L199.333 76.3828C199.415 76.3861 199.455 76.4251 199.455 76.5L198.625 83.8633C198.615 83.9414 198.571 83.9821 198.493 83.9854L197.487 84.0195C197.419 84.0195 197.385 83.9886 197.385 83.9268L198.337 77.9746L196.589 83.8682C196.563 83.943 196.516 83.9821 196.447 83.9854L195.5 84.0195C195.435 84.013 195.399 83.9821 195.393 83.9268ZM202.644 83.8975L202.683 83.5215C202.289 83.8763 201.843 84.0537 201.345 84.0537C200.971 84.0537 200.694 83.917 200.515 83.6436C200.339 83.3701 200.251 83.0283 200.251 82.6182C200.251 82.5498 200.258 82.457 200.271 82.3398L200.735 78.2529C200.744 78.1748 200.785 78.1341 200.857 78.1309L201.843 78.0918C201.911 78.0983 201.945 78.1325 201.945 78.1943L201.506 82.0469C201.496 82.1315 201.491 82.2096 201.491 82.2812C201.491 82.5547 201.543 82.737 201.648 82.8281C201.755 82.9193 201.915 82.9648 202.126 82.9648C202.341 82.9648 202.553 82.9242 202.761 82.8428L203.278 78.2529C203.288 78.1748 203.329 78.1341 203.401 78.1309L204.387 78.0967C204.455 78.1032 204.489 78.1374 204.489 78.1992L203.855 83.8486C203.845 83.9268 203.801 83.9691 203.723 83.9756L202.771 84.0195C202.686 84.0163 202.644 83.9756 202.644 83.8975ZM207.976 79.2344L207.424 79.21C207.268 79.21 207.144 79.2458 207.053 79.3174C206.965 79.389 206.921 79.4932 206.921 79.6299C206.921 79.7633 206.945 79.9115 206.994 80.0742C207.059 80.2923 207.172 80.5462 207.331 80.8359C207.494 81.1257 207.606 81.3307 207.668 81.4512C207.857 81.8255 207.951 82.182 207.951 82.5205C207.951 83.012 207.806 83.3913 207.517 83.6582C207.23 83.9219 206.794 84.0537 206.208 84.0537C205.918 84.0537 205.687 84.0374 205.515 84.0049C205.342 83.9756 205.246 83.9528 205.227 83.9365C205.21 83.917 205.202 83.8877 205.202 83.8486L205.329 82.9453C205.336 82.8639 205.363 82.8232 205.412 82.8232C205.464 82.8232 205.562 82.8411 205.705 82.877C205.848 82.9128 205.974 82.9307 206.081 82.9307C206.478 82.9307 206.677 82.7728 206.677 82.457C206.677 82.2324 206.628 82.0225 206.53 81.8271C206.436 81.6318 206.332 81.43 206.218 81.2217C206.107 81.0133 206.021 80.8473 205.959 80.7236C205.897 80.5967 205.832 80.4225 205.764 80.2012C205.699 79.9798 205.666 79.7715 205.666 79.5762C205.666 79.1204 205.801 78.7526 206.071 78.4727C206.345 78.1927 206.742 78.0527 207.263 78.0527C207.598 78.0527 207.86 78.069 208.049 78.1016C208.13 78.1146 208.171 78.1569 208.171 78.2285L208.064 79.0977C208.064 79.1888 208.034 79.2344 207.976 79.2344ZM209.729 78.1162C209.804 77.4001 209.852 77.0306 209.875 77.0078C209.898 76.9818 209.932 76.9671 209.978 76.9639L210.91 76.9297C210.998 76.9362 211.042 76.9769 211.042 77.0518C210.98 77.4131 210.928 77.7598 210.886 78.0918L212.024 78.0527C212.102 78.056 212.141 78.0983 212.141 78.1797L212.004 78.9561C211.991 79.0342 211.95 79.0749 211.882 79.0781L210.764 79.1221C210.542 81.1143 210.432 82.2129 210.432 82.418C210.432 82.7988 210.595 82.9893 210.92 82.9893C211.086 82.9893 211.247 82.9632 211.403 82.9111C211.56 82.859 211.657 82.833 211.696 82.833C211.765 82.833 211.799 82.8753 211.799 82.96L211.696 83.8145C211.69 83.8633 211.677 83.8991 211.657 83.9219C211.641 83.9447 211.561 83.9723 211.418 84.0049C211.278 84.0374 211.037 84.0537 210.695 84.0537C210.194 84.0537 209.823 83.9382 209.582 83.707C209.341 83.4727 209.221 83.1243 209.221 82.6621C209.221 82.1999 209.349 81.0247 209.607 79.1367L209.128 79.1562C209.047 79.153 209.006 79.1123 209.006 79.0342L209.138 78.248C209.148 78.1732 209.19 78.1341 209.265 78.1309L209.729 78.1162ZM191.223 92.4443C190.943 93.5283 190.067 94.0719 188.596 94.0752L188.288 96.8438C188.278 96.9219 188.238 96.9626 188.166 96.9658L187.141 97.0195C187.069 97.013 187.033 96.9821 187.033 96.9268L187.878 89.5391C187.891 89.4707 187.933 89.4333 188.005 89.4268C188.614 89.3714 189.195 89.3438 189.748 89.3438C190.848 89.3438 191.399 89.8711 191.399 90.9258C191.399 91.502 191.34 92.0081 191.223 92.4443ZM188.996 90.4814L188.718 92.9473C189.281 92.9473 189.66 92.8301 189.856 92.5957C190.051 92.3613 190.149 91.9056 190.149 91.2285C190.149 90.9681 190.079 90.776 189.939 90.6523C189.799 90.5286 189.62 90.4668 189.402 90.4668C189.183 90.4668 189.048 90.4717 188.996 90.4814ZM194.128 88.8701L193.23 96.8486C193.223 96.8942 193.212 96.9268 193.195 96.9463C193.179 96.9658 193.148 96.9772 193.103 96.9805L192.121 97.0195C192.05 97.013 192.014 96.9821 192.014 96.9268L192.917 88.9043C192.924 88.8587 192.935 88.8262 192.951 88.8066C192.968 88.7871 192.999 88.7757 193.044 88.7725L194.001 88.7383C194.086 88.748 194.128 88.792 194.128 88.8701ZM199.011 91.2236L198.376 96.8535C198.366 96.9382 198.324 96.9821 198.249 96.9854L197.263 97.0195C197.194 97.013 197.16 96.9821 197.16 96.9268L197.253 96.2627C197.103 96.5166 196.939 96.7119 196.76 96.8486C196.584 96.9854 196.386 97.0537 196.164 97.0537C195.943 97.0537 195.754 97.0163 195.598 96.9414C195.442 96.8633 195.313 96.7624 195.212 96.6387C195.114 96.5117 195.035 96.3604 194.973 96.1846C194.859 95.8721 194.802 95.4456 194.802 94.9053C194.802 94.3617 194.838 93.901 194.909 93.5234C194.984 93.1458 195.049 92.8594 195.105 92.6641C195.16 92.4655 195.233 92.262 195.324 92.0537C195.419 91.8454 195.525 91.6712 195.642 91.5312C195.909 91.2122 196.246 91.0527 196.653 91.0527C196.955 91.0527 197.186 91.126 197.346 91.2725C197.505 91.4157 197.639 91.6289 197.746 91.9121L197.805 91.248C197.811 91.1764 197.852 91.1374 197.927 91.1309L198.884 91.0967C198.969 91.1032 199.011 91.1455 199.011 91.2236ZM196.032 94.7637C196.032 95.5417 196.241 95.9307 196.657 95.9307C196.84 95.9307 196.988 95.8477 197.102 95.6816C197.216 95.5124 197.313 95.1755 197.395 94.6709C197.479 94.1663 197.522 93.7985 197.522 93.5674C197.522 93.3363 197.52 93.1898 197.517 93.1279C197.514 93.0661 197.507 92.9847 197.497 92.8838C197.487 92.7796 197.47 92.6934 197.444 92.625C197.417 92.5534 197.383 92.4818 197.341 92.4102C197.256 92.2702 197.12 92.2002 196.931 92.2002C196.742 92.2002 196.592 92.2848 196.482 92.4541C196.371 92.6201 196.285 92.8431 196.223 93.123C196.096 93.722 196.032 94.2689 196.032 94.7637ZM204.045 91.2236L201.228 99.2168C201.202 99.2982 201.154 99.3405 201.086 99.3438L200.105 99.3779C200.033 99.3747 199.997 99.3421 199.997 99.2803L200.837 96.9121L200.075 91.248C200.075 91.1732 200.116 91.1341 200.197 91.1309L201.159 91.0967C201.234 91.0999 201.275 91.1423 201.281 91.2236L201.653 95.3301L202.839 91.248C202.859 91.1732 202.901 91.1341 202.966 91.1309L203.923 91.0967C204.004 91.1032 204.045 91.1455 204.045 91.2236Z" fill="#362525"/>
</g>
<g filter="url(#filter1_d)">
<path d="M20.8398 78.4727C20.8242 78.5664 20.7969 78.6328 20.7578 78.6719C20.7188 78.7109 20.3359 78.7969 19.6094 78.9297C18.8828 79.0625 18.1484 79.1289 17.4062 79.1289C16.1875 79.1289 15.2539 78.7344 14.6055 77.9453C13.957 77.1562 13.6328 76.082 13.6328 74.7227C13.6328 72.3086 13.9219 69.5039 14.5 66.3086C14.8047 64.5898 15.1797 63.3828 15.625 62.6875C16.0938 61.9609 16.6562 61.4531 17.3125 61.1641C18.1328 60.8047 19.0078 60.625 19.9375 60.625C20.875 60.625 21.5 60.6523 21.8125 60.707C22.1328 60.7539 22.3125 60.7812 22.3516 60.7891C22.4531 60.8203 22.5039 60.918 22.5039 61.082L22.2344 63.2617C22.2031 63.4648 22.125 63.5664 22 63.5664C21.875 63.5664 21.5859 63.5352 21.1328 63.4727C20.6797 63.4023 20.3125 63.3672 20.0312 63.3672C19.2812 63.3672 18.7109 63.5586 18.3203 63.9414C17.9297 64.3164 17.6367 65.043 17.4414 66.1211C17.2539 67.1914 17.0703 68.6328 16.8906 70.4453C16.7109 72.25 16.6211 73.6328 16.6211 74.5938C16.6211 75.7266 17.1211 76.293 18.1211 76.293C18.4102 76.293 18.9141 76.2461 19.6328 76.1523C20.3516 76.0508 20.7617 76 20.8633 76C21.0273 76 21.1094 76.0977 21.1094 76.293L20.8398 78.4727ZM27.8594 79.1758C26.5469 79.1758 25.5547 78.7852 24.8828 78.0039C24.2109 77.2227 23.875 76.2461 23.875 75.0742C23.875 72.0898 24.1758 69.1406 24.7773 66.2266C25.2539 63.9375 25.9141 62.4062 26.7578 61.6328C27.5547 60.9141 28.6055 60.5547 29.9102 60.5547C31.2227 60.5547 32.2148 60.9492 32.8867 61.7383C33.5664 62.5273 33.9062 63.5 33.9062 64.6562C33.9062 65.8047 33.832 67.1992 33.6836 68.8398C33.5352 70.4727 33.3516 71.8398 33.1328 72.9414C32.9141 74.0352 32.7266 74.8359 32.5703 75.3438C32.4219 75.8438 32.2148 76.3516 31.9492 76.8672C31.6836 77.3828 31.375 77.7969 31.0234 78.1094C30.2344 78.8203 29.1797 79.1758 27.8594 79.1758ZM28.1641 76.4102C29.1562 76.4102 29.793 75.4961 30.0742 73.668C30.2617 72.457 30.4492 70.9492 30.6367 69.1445C30.8242 67.3398 30.918 66.0703 30.918 65.3359C30.918 64.6016 30.7969 64.082 30.5547 63.7773C30.3203 63.4727 29.9844 63.3203 29.5469 63.3203C28.6406 63.3203 28.0273 64.2383 27.707 66.0742C27.5195 67.1523 27.332 68.6172 27.1445 70.4688C26.957 72.3125 26.8633 73.6133 26.8633 74.3711C26.8633 75.1289 26.9844 75.6602 27.2266 75.9648C27.4766 76.2617 27.7891 76.4102 28.1641 76.4102ZM40.4922 78.8242L39.5078 64.7969L38.6289 78.6602C38.6133 78.8555 38.5117 78.957 38.3242 78.9648L36.0859 79.0469C35.9141 79.0312 35.8281 78.957 35.8281 78.8242L37.8438 61.0938C37.8594 61 37.8828 60.9336 37.9141 60.8945C37.9531 60.8555 38.0312 60.832 38.1484 60.8242L41.1016 60.7188C41.2891 60.7266 41.3906 60.8203 41.4062 61L42.4727 75.1094L46.5391 61.0938C46.5781 60.9219 46.6875 60.832 46.8672 60.8242L49.9492 60.7188C50.1445 60.7266 50.2422 60.8203 50.2422 61L48.25 78.6719C48.2266 78.8594 48.1211 78.957 47.9336 78.9648L45.5195 79.0469C45.3555 79.0469 45.2734 78.9727 45.2734 78.8242L47.5586 64.5391L43.3633 78.6836C43.3008 78.8633 43.1875 78.957 43.0234 78.9648L40.75 79.0469C40.5938 79.0312 40.5078 78.957 40.4922 78.8242ZM61.8672 68.0664C61.1953 70.668 59.0938 71.9727 55.5625 71.9805L54.8242 78.625C54.8008 78.8125 54.7031 78.9102 54.5312 78.918L52.0703 79.0469C51.8984 79.0312 51.8125 78.957 51.8125 78.8242L53.8398 61.0938C53.8711 60.9297 53.9727 60.8398 54.1445 60.8242C55.6055 60.6914 57 60.625 58.3281 60.625C60.9688 60.625 62.2891 61.8906 62.2891 64.4219C62.2891 65.8047 62.1484 67.0195 61.8672 68.0664ZM56.5234 63.3555L55.8555 69.2734C57.207 69.2734 58.1172 68.9922 58.5859 68.4297C59.0547 67.8672 59.2891 66.7734 59.2891 65.1484C59.2891 64.5234 59.1211 64.0625 58.7852 63.7656C58.4492 63.4688 58.0195 63.3203 57.4961 63.3203C56.9727 63.3203 56.6484 63.332 56.5234 63.3555ZM68.793 61.0234L67.4453 73.0352C67.3359 73.957 67.2812 74.6133 67.2812 75.0039C67.2812 75.3945 67.3906 75.7266 67.6094 76C67.8281 76.2734 68.1836 76.4102 68.6758 76.4102C69.168 76.4102 69.543 76.1641 69.8008 75.6719C70.0586 75.1797 70.25 74.3906 70.375 73.3047L71.7461 61.0938C71.7695 60.9219 71.875 60.832 72.0625 60.8242L74.4297 60.7305C74.625 60.7383 74.7227 60.832 74.7227 61.0117L73.375 73.0352C73.1016 75.4961 72.4688 77.1797 71.4766 78.0859C70.6719 78.8125 69.6211 79.1758 68.3242 79.1758C67.0352 79.1758 66.0469 78.8398 65.3594 78.168C64.6797 77.4883 64.3398 76.4883 64.3398 75.168C64.3398 74.5352 64.3789 73.875 64.457 73.1875L65.8398 61.0938C65.8555 60.9922 65.8789 60.9258 65.9102 60.8945C65.9492 60.8555 66.0234 60.832 66.1328 60.8242L68.5 60.7422C68.6953 60.75 68.793 60.8438 68.793 61.0234ZM77.3828 60.8711L84.9766 60.6016C85.1562 60.6094 85.2461 60.707 85.2461 60.8945L84.9414 63.2969C84.9258 63.4141 84.8984 63.4961 84.8594 63.543C84.8281 63.5898 84.7578 63.6172 84.6484 63.625L82.375 63.707L80.6641 78.6719C80.6406 78.8594 80.5391 78.957 80.3594 78.9648L77.9219 79.0469C77.7656 79.0469 77.6875 78.9727 77.6875 78.8242L79.4102 63.8008L77.0781 63.8711C76.8828 63.8633 76.7852 63.7734 76.7852 63.6016L77.0781 61.1641C77.0859 60.9766 77.1875 60.8789 77.3828 60.8711ZM93.0391 70.9844L89.3945 71.125L88.8438 75.9297L93.332 75.7773C93.5352 75.7852 93.6367 75.8867 93.6367 76.082L93.332 78.5078C93.3164 78.6719 93.2148 78.7734 93.0273 78.8125L85.8203 79.0469C85.6484 79.0469 85.5625 78.9727 85.5625 78.8242L87.5898 61.0938C87.6211 60.9297 87.7227 60.8398 87.8945 60.8242L94.3164 60.6016C94.5117 60.625 94.6094 60.7305 94.6094 60.918L94.3164 63.3438C94.293 63.5391 94.1914 63.6445 94.0117 63.6602L90.2383 63.7656L89.7344 68.125L93.3438 67.9961C93.5469 68.0039 93.6484 68.1055 93.6484 68.3008L93.3438 70.6914C93.3125 70.8711 93.2109 70.9688 93.0391 70.9844ZM106.152 78.7188C106.152 78.875 106.047 78.9531 105.836 78.9531L103.199 79.0469C103.082 79.0391 102.996 78.9648 102.941 78.8242L100 71.3711L99.1797 78.6719C99.1562 78.8594 99.0586 78.957 98.8867 78.9648L96.4375 79.0469C96.2656 79.0312 96.1797 78.957 96.1797 78.8242L98.207 61.1875C98.2227 61.0469 98.2578 60.9531 98.3125 60.9062C98.3672 60.8516 98.7812 60.793 99.5547 60.7305C100.328 60.6602 101.359 60.625 102.648 60.625C103.938 60.625 104.93 60.9688 105.625 61.6562C106.328 62.3359 106.68 63.2148 106.68 64.293C106.68 65.3711 106.551 66.3242 106.293 67.1523C106.035 67.9727 105.609 68.7109 105.016 69.3672C104.422 70.0234 103.68 70.5117 102.789 70.832L106.117 78.5781C106.141 78.625 106.152 78.6719 106.152 78.7188ZM100.902 63.3555L100.246 69.1797C101.691 69.0938 102.688 68.4375 103.234 67.2109C103.531 66.5391 103.68 65.8594 103.68 65.1719C103.68 64.4766 103.535 63.9922 103.246 63.7188C102.965 63.4375 102.555 63.2969 102.016 63.2969C101.477 63.2969 101.105 63.3164 100.902 63.3555ZM44.5586 98.0664C43.8867 100.668 41.7852 101.973 38.2539 101.98L37.5156 108.625C37.4922 108.812 37.3945 108.91 37.2227 108.918L34.7617 109.047C34.5898 109.031 34.5039 108.957 34.5039 108.824L36.5312 91.0938C36.5625 90.9297 36.6641 90.8398 36.8359 90.8242C38.2969 90.6914 39.6914 90.625 41.0195 90.625C43.6602 90.625 44.9805 91.8906 44.9805 94.4219C44.9805 95.8047 44.8398 97.0195 44.5586 98.0664ZM39.2148 93.3555L38.5469 99.2734C39.8984 99.2734 40.8086 98.9922 41.2773 98.4297C41.7461 97.8672 41.9805 96.7734 41.9805 95.1484C41.9805 94.5234 41.8125 94.0625 41.4766 93.7656C41.1406 93.4688 40.7109 93.3203 40.1875 93.3203C39.6641 93.3203 39.3398 93.332 39.2148 93.3555ZM51.4609 91.0234L49.7852 105.918L54.2734 105.742C54.4766 105.75 54.5781 105.852 54.5781 106.047L54.2734 108.473C54.25 108.676 54.1484 108.781 53.9688 108.789L46.75 109.047C46.5859 109.047 46.5039 108.973 46.5039 108.824L48.5078 91.0938C48.5234 91 48.5469 90.9336 48.5781 90.8945C48.6172 90.8555 48.6914 90.832 48.8008 90.8242L51.1562 90.7422C51.3594 90.75 51.4609 90.8438 51.4609 91.0234ZM64.2461 91.0117L65.6172 108.66C65.6172 108.84 65.5156 108.938 65.3125 108.953L62.8633 109.047C62.6992 109.047 62.6172 108.973 62.6172 108.824L62.4414 104.957L59.7812 105.062L58.9023 108.672C58.8789 108.781 58.8477 108.855 58.8086 108.895C58.7695 108.934 58.6992 108.957 58.5977 108.965L56.1719 109.047C56.0156 109.047 55.9375 108.973 55.9375 108.824L61.082 91.0938C61.1367 90.9219 61.2422 90.832 61.3984 90.8242L63.9766 90.7305C64.1406 90.7383 64.2305 90.832 64.2461 91.0117ZM62.0312 95.8398L60.3906 102.566L62.3359 102.496L62.0312 95.8398ZM71.6758 90.9648L73.0117 97.6562L75.4141 91.0938C75.4766 90.9219 75.5742 90.832 75.707 90.8242L78.1211 90.7422C78.2148 90.75 78.2891 90.7812 78.3438 90.8359C78.4062 90.8906 78.4375 90.9492 78.4375 91.0117L74.0664 100.785L73.1641 108.672C73.1406 108.859 73.0391 108.957 72.8594 108.965L70.4453 109.047C70.2734 109.047 70.1875 108.973 70.1875 108.824L71.0664 101.043L68.6758 91.0117C68.6758 90.9023 68.7812 90.8398 68.9922 90.8242L71.3711 90.7305C71.543 90.7383 71.6445 90.8164 71.6758 90.9648ZM78.4492 109.176C78.2539 109.176 78.1562 109.082 78.1562 108.895L78.4492 106.445C78.4805 106.273 78.582 106.18 78.7539 106.164C79.9727 106.039 80.7773 105.848 81.168 105.59C81.5586 105.324 81.7539 104.801 81.7539 104.02C81.7539 103.238 81.5547 102.223 81.1562 100.973C80.7578 99.7148 80.5 98.8789 80.3828 98.4648C80.0078 97.1367 79.8203 96.0508 79.8203 95.207C79.8203 94.3555 79.957 93.6289 80.2305 93.0273C80.5039 92.4258 80.8945 91.9453 81.4023 91.5859C82.3867 90.8984 83.7109 90.5547 85.375 90.5547C85.5859 90.5547 85.6914 90.6523 85.6914 90.8477L85.375 93.2734C85.3438 93.4688 85.2461 93.5742 85.082 93.5898C83.5664 93.6914 82.8086 94.1406 82.8086 94.9375C82.8086 95.6719 83.1289 97.1172 83.7695 99.2734C84.418 101.422 84.7422 102.961 84.7422 103.891C84.7422 107.414 82.6445 109.176 78.4492 109.176Z" fill="#362525"/>
</g>
<defs>
<filter id="filter0_d" x="145" y="40.8772" width="102" height="98.2457" filterUnits="userSpaceOnUse" color-interpolation-filters="sRGB">
<feFlood flood-opacity="0" result="BackgroundImageFix"/>
<feColorMatrix in="SourceAlpha" type="matrix" values="0 0 0 0 0 0 0 0 0 0 0 0 0 0 0 0 0 0 127 0"/>
<feOffset dy="4"/>
<feGaussianBlur stdDeviation="2"/>
<feColorMatrix type="matrix" values="0 0 0 0 0 0 0 0 0 0 0 0 0 0 0 0 0 0 0.25 0"/>
<feBlend mode="normal" in2="BackgroundImageFix" result="effect1_dropShadow"/>
<feBlend mode="normal" in="SourceGraphic" in2="effect1_dropShadow" result="shape"/>
</filter>
<filter id="filter1_d" x="9.63281" y="60.5547" width="101.047" height="56.6211" filterUnits="userSpaceOnUse" color-interpolation-filters="sRGB">
<feFlood flood-opacity="0" result="BackgroundImageFix"/>
<feColorMatrix in="SourceAlpha" type="matrix" values="0 0 0 0 0 0 0 0 0 0 0 0 0 0 0 0 0 0 127 0"/>
<feOffset dy="4"/>
<feGaussianBlur stdDeviation="2"/>
<feColorMatrix type="matrix" values="0 0 0 0 0 0 0 0 0 0 0 0 0 0 0 0 0 0 0.25 0"/>
<feBlend mode="normal" in2="BackgroundImageFix" result="effect1_dropShadow"/>
<feBlend mode="normal" in="SourceGraphic" in2="effect1_dropShadow" result="shape"/>
</filter>
<linearGradient id="paint0_linear" x1="155.846" y1="54.4049" x2="158.729" y2="60.9935" gradientUnits="userSpaceOnUse">
<stop stop-color="#CCCCCC"/>
<stop offset="1" stop-color="#DEDDC4"/>
</linearGradient>
</defs>
</svg>
