<svg width="285" height="172" viewBox="0 0 285 172" fill="none" xmlns="http://www.w3.org/2000/svg">
<rect x="0.5" y="0.5" width="284" height="171" rx="13.5" fill="#E6E6E6" stroke="#362525"/>
<g filter="url(#filter0_d)">
<path d="M20.8398 78.4727C20.8242 78.5664 20.7969 78.6328 20.7578 78.6719C20.7188 78.7109 20.3359 78.7969 19.6094 78.9297C18.8828 79.0625 18.1484 79.1289 17.4062 79.1289C16.1875 79.1289 15.2539 78.7344 14.6055 77.9453C13.957 77.1562 13.6328 76.082 13.6328 74.7227C13.6328 72.3086 13.9219 69.5039 14.5 66.3086C14.8047 64.5898 15.1797 63.3828 15.625 62.6875C16.0938 61.9609 16.6562 61.4531 17.3125 61.1641C18.1328 60.8047 19.0078 60.625 19.9375 60.625C20.875 60.625 21.5 60.6523 21.8125 60.707C22.1328 60.7539 22.3125 60.7812 22.3516 60.7891C22.4531 60.8203 22.5039 60.918 22.5039 61.082L22.2344 63.2617C22.2031 63.4648 22.125 63.5664 22 63.5664C21.875 63.5664 21.5859 63.5352 21.1328 63.4727C20.6797 63.4023 20.3125 63.3672 20.0312 63.3672C19.2812 63.3672 18.7109 63.5586 18.3203 63.9414C17.9297 64.3164 17.6367 65.043 17.4414 66.1211C17.2539 67.1914 17.0703 68.6328 16.8906 70.4453C16.7109 72.25 16.6211 73.6328 16.6211 74.5938C16.6211 75.7266 17.1211 76.293 18.1211 76.293C18.4102 76.293 18.9141 76.2461 19.6328 76.1523C20.3516 76.0508 20.7617 76 20.8633 76C21.0273 76 21.1094 76.0977 21.1094 76.293L20.8398 78.4727ZM27.8594 79.1758C26.5469 79.1758 25.5547 78.7852 24.8828 78.0039C24.2109 77.2227 23.875 76.2461 23.875 75.0742C23.875 72.0898 24.1758 69.1406 24.7773 66.2266C25.2539 63.9375 25.9141 62.4062 26.7578 61.6328C27.5547 60.9141 28.6055 60.5547 29.9102 60.5547C31.2227 60.5547 32.2148 60.9492 32.8867 61.7383C33.5664 62.5273 33.9062 63.5 33.9062 64.6562C33.9062 65.8047 33.832 67.1992 33.6836 68.8398C33.5352 70.4727 33.3516 71.8398 33.1328 72.9414C32.9141 74.0352 32.7266 74.8359 32.5703 75.3438C32.4219 75.8438 32.2148 76.3516 31.9492 76.8672C31.6836 77.3828 31.375 77.7969 31.0234 78.1094C30.2344 78.8203 29.1797 79.1758 27.8594 79.1758ZM28.1641 76.4102C29.1562 76.4102 29.793 75.4961 30.0742 73.668C30.2617 72.457 30.4492 70.9492 30.6367 69.1445C30.8242 67.3398 30.918 66.0703 30.918 65.3359C30.918 64.6016 30.7969 64.082 30.5547 63.7773C30.3203 63.4727 29.9844 63.3203 29.5469 63.3203C28.6406 63.3203 28.0273 64.2383 27.707 66.0742C27.5195 67.1523 27.332 68.6172 27.1445 70.4688C26.957 72.3125 26.8633 73.6133 26.8633 74.3711C26.8633 75.1289 26.9844 75.6602 27.2266 75.9648C27.4766 76.2617 27.7891 76.4102 28.1641 76.4102ZM40.4922 78.8242L39.5078 64.7969L38.6289 78.6602C38.6133 78.8555 38.5117 78.957 38.3242 78.9648L36.0859 79.0469C35.9141 79.0312 35.8281 78.957 35.8281 78.8242L37.8438 61.0938C37.8594 61 37.8828 60.9336 37.9141 60.8945C37.9531 60.8555 38.0312 60.832 38.1484 60.8242L41.1016 60.7188C41.2891 60.7266 41.3906 60.8203 41.4062 61L42.4727 75.1094L46.5391 61.0938C46.5781 60.9219 46.6875 60.832 46.8672 60.8242L49.9492 60.7188C50.1445 60.7266 50.2422 60.8203 50.2422 61L48.25 78.6719C48.2266 78.8594 48.1211 78.957 47.9336 78.9648L45.5195 79.0469C45.3555 79.0469 45.2734 78.9727 45.2734 78.8242L47.5586 64.5391L43.3633 78.6836C43.3008 78.8633 43.1875 78.957 43.0234 78.9648L40.75 79.0469C40.5938 79.0312 40.5078 78.957 40.4922 78.8242ZM61.8672 68.0664C61.1953 70.668 59.0938 71.9727 55.5625 71.9805L54.8242 78.625C54.8008 78.8125 54.7031 78.9102 54.5312 78.918L52.0703 79.0469C51.8984 79.0312 51.8125 78.957 51.8125 78.8242L53.8398 61.0938C53.8711 60.9297 53.9727 60.8398 54.1445 60.8242C55.6055 60.6914 57 60.625 58.3281 60.625C60.9688 60.625 62.2891 61.8906 62.2891 64.4219C62.2891 65.8047 62.1484 67.0195 61.8672 68.0664ZM56.5234 63.3555L55.8555 69.2734C57.207 69.2734 58.1172 68.9922 58.5859 68.4297C59.0547 67.8672 59.2891 66.7734 59.2891 65.1484C59.2891 64.5234 59.1211 64.0625 58.7852 63.7656C58.4492 63.4688 58.0195 63.3203 57.4961 63.3203C56.9727 63.3203 56.6484 63.332 56.5234 63.3555ZM68.793 61.0234L67.4453 73.0352C67.3359 73.957 67.2812 74.6133 67.2812 75.0039C67.2812 75.3945 67.3906 75.7266 67.6094 76C67.8281 76.2734 68.1836 76.4102 68.6758 76.4102C69.168 76.4102 69.543 76.1641 69.8008 75.6719C70.0586 75.1797 70.25 74.3906 70.375 73.3047L71.7461 61.0938C71.7695 60.9219 71.875 60.832 72.0625 60.8242L74.4297 60.7305C74.625 60.7383 74.7227 60.832 74.7227 61.0117L73.375 73.0352C73.1016 75.4961 72.4688 77.1797 71.4766 78.0859C70.6719 78.8125 69.6211 79.1758 68.3242 79.1758C67.0352 79.1758 66.0469 78.8398 65.3594 78.168C64.6797 77.4883 64.3398 76.4883 64.3398 75.168C64.3398 74.5352 64.3789 73.875 64.457 73.1875L65.8398 61.0938C65.8555 60.9922 65.8789 60.9258 65.9102 60.8945C65.9492 60.8555 66.0234 60.832 66.1328 60.8242L68.5 60.7422C68.6953 60.75 68.793 60.8438 68.793 61.0234ZM77.3828 60.8711L84.9766 60.6016C85.1562 60.6094 85.2461 60.707 85.2461 60.8945L84.9414 63.2969C84.9258 63.4141 84.8984 63.4961 84.8594 63.543C84.8281 63.5898 84.7578 63.6172 84.6484 63.625L82.375 63.707L80.6641 78.6719C80.6406 78.8594 80.5391 78.957 80.3594 78.9648L77.9219 79.0469C77.7656 79.0469 77.6875 78.9727 77.6875 78.8242L79.4102 63.8008L77.0781 63.8711C76.8828 63.8633 76.7852 63.7734 76.7852 63.6016L77.0781 61.1641C77.0859 60.9766 77.1875 60.8789 77.3828 60.8711ZM93.0391 70.9844L89.3945 71.125L88.8438 75.9297L93.332 75.7773C93.5352 75.7852 93.6367 75.8867 93.6367 76.082L93.332 78.5078C93.3164 78.6719 93.2148 78.7734 93.0273 78.8125L85.8203 79.0469C85.6484 79.0469 85.5625 78.9727 85.5625 78.8242L87.5898 61.0938C87.6211 60.9297 87.7227 60.8398 87.8945 60.8242L94.3164 60.6016C94.5117 60.625 94.6094 60.7305 94.6094 60.918L94.3164 63.3438C94.293 63.5391 94.1914 63.6445 94.0117 63.6602L90.2383 63.7656L89.7344 68.125L93.3438 67.9961C93.5469 68.0039 93.6484 68.1055 93.6484 68.3008L93.3438 70.6914C93.3125 70.8711 93.2109 70.9688 93.0391 70.9844ZM106.152 78.7188C106.152 78.875 106.047 78.9531 105.836 78.9531L103.199 79.0469C103.082 79.0391 102.996 78.9648 102.941 78.8242L100 71.3711L99.1797 78.6719C99.1562 78.8594 99.0586 78.957 98.8867 78.9648L96.4375 79.0469C96.2656 79.0312 96.1797 78.957 96.1797 78.8242L98.207 61.1875C98.2227 61.0469 98.2578 60.9531 98.3125 60.9062C98.3672 60.8516 98.7812 60.793 99.5547 60.7305C100.328 60.6602 101.359 60.625 102.648 60.625C103.938 60.625 104.93 60.9688 105.625 61.6562C106.328 62.3359 106.68 63.2148 106.68 64.293C106.68 65.3711 106.551 66.3242 106.293 67.1523C106.035 67.9727 105.609 68.7109 105.016 69.3672C104.422 70.0234 103.68 70.5117 102.789 70.832L106.117 78.5781C106.141 78.625 106.152 78.6719 106.152 78.7188ZM100.902 63.3555L100.246 69.1797C101.691 69.0938 102.688 68.4375 103.234 67.2109C103.531 66.5391 103.68 65.8594 103.68 65.1719C103.68 64.4766 103.535 63.9922 103.246 63.7188C102.965 63.4375 102.555 63.2969 102.016 63.2969C101.477 63.2969 101.105 63.3164 100.902 63.3555ZM44.5586 98.0664C43.8867 100.668 41.7852 101.973 38.2539 101.98L37.5156 108.625C37.4922 108.812 37.3945 108.91 37.2227 108.918L34.7617 109.047C34.5898 109.031 34.5039 108.957 34.5039 108.824L36.5312 91.0938C36.5625 90.9297 36.6641 90.8398 36.8359 90.8242C38.2969 90.6914 39.6914 90.625 41.0195 90.625C43.6602 90.625 44.9805 91.8906 44.9805 94.4219C44.9805 95.8047 44.8398 97.0195 44.5586 98.0664ZM39.2148 93.3555L38.5469 99.2734C39.8984 99.2734 40.8086 98.9922 41.2773 98.4297C41.7461 97.8672 41.9805 96.7734 41.9805 95.1484C41.9805 94.5234 41.8125 94.0625 41.4766 93.7656C41.1406 93.4688 40.7109 93.3203 40.1875 93.3203C39.6641 93.3203 39.3398 93.332 39.2148 93.3555ZM51.4609 91.0234L49.7852 105.918L54.2734 105.742C54.4766 105.75 54.5781 105.852 54.5781 106.047L54.2734 108.473C54.25 108.676 54.1484 108.781 53.9688 108.789L46.75 109.047C46.5859 109.047 46.5039 108.973 46.5039 108.824L48.5078 91.0938C48.5234 91 48.5469 90.9336 48.5781 90.8945C48.6172 90.8555 48.6914 90.832 48.8008 90.8242L51.1562 90.7422C51.3594 90.75 51.4609 90.8438 51.4609 91.0234ZM64.2461 91.0117L65.6172 108.66C65.6172 108.84 65.5156 108.938 65.3125 108.953L62.8633 109.047C62.6992 109.047 62.6172 108.973 62.6172 108.824L62.4414 104.957L59.7812 105.062L58.9023 108.672C58.8789 108.781 58.8477 108.855 58.8086 108.895C58.7695 108.934 58.6992 108.957 58.5977 108.965L56.1719 109.047C56.0156 109.047 55.9375 108.973 55.9375 108.824L61.082 91.0938C61.1367 90.9219 61.2422 90.832 61.3984 90.8242L63.9766 90.7305C64.1406 90.7383 64.2305 90.832 64.2461 91.0117ZM62.0312 95.8398L60.3906 102.566L62.3359 102.496L62.0312 95.8398ZM71.6758 90.9648L73.0117 97.6562L75.4141 91.0938C75.4766 90.9219 75.5742 90.832 75.707 90.8242L78.1211 90.7422C78.2148 90.75 78.2891 90.7812 78.3438 90.8359C78.4062 90.8906 78.4375 90.9492 78.4375 91.0117L74.0664 100.785L73.1641 108.672C73.1406 108.859 73.0391 108.957 72.8594 108.965L70.4453 109.047C70.2734 109.047 70.1875 108.973 70.1875 108.824L71.0664 101.043L68.6758 91.0117C68.6758 90.9023 68.7812 90.8398 68.9922 90.8242L71.3711 90.7305C71.543 90.7383 71.6445 90.8164 71.6758 90.9648ZM78.4492 109.176C78.2539 109.176 78.1562 109.082 78.1562 108.895L78.4492 106.445C78.4805 106.273 78.582 106.18 78.7539 106.164C79.9727 106.039 80.7773 105.848 81.168 105.59C81.5586 105.324 81.7539 104.801 81.7539 104.02C81.7539 103.238 81.5547 102.223 81.1562 100.973C80.7578 99.7148 80.5 98.8789 80.3828 98.4648C80.0078 97.1367 79.8203 96.0508 79.8203 95.207C79.8203 94.3555 79.957 93.6289 80.2305 93.0273C80.5039 92.4258 80.8945 91.9453 81.4023 91.5859C82.3867 90.8984 83.7109 90.5547 85.375 90.5547C85.5859 90.5547 85.6914 90.6523 85.6914 90.8477L85.375 93.2734C85.3438 93.4688 85.2461 93.5742 85.082 93.5898C83.5664 93.6914 82.8086 94.1406 82.8086 94.9375C82.8086 95.6719 83.1289 97.1172 83.7695 99.2734C84.418 101.422 84.7422 102.961 84.7422 103.891C84.7422 107.414 82.6445 109.176 78.4492 109.176Z" fill="#362525"/>
</g>
<rect x="121.5" y="16.5" width="145" height="141" rx="7.5" fill="#9DCCC6" stroke="#362525"/>
<g filter="url(#filter1_d)">
<path d="M165.308 60.2478C174.051 56.7388 188.385 54.9184 188.385 54.9184L229.223 49.3529L233.613 83.6469C233.613 83.6469 239.31 102.232 245 111.794C231.687 117.49 204.766 122.47 204.766 122.47L171.528 127L164.018 68.335C164.018 68.335 162.821 63.6549 165.308 60.2457L165.308 60.2478Z" fill="#AEAEAD"/>
<path d="M153.167 50.7441C164.855 47.3689 180.56 45.3075 180.56 45.3075L228.15 39L233.266 77.8661C233.266 77.8661 235.018 93.108 241.649 103.946C229.018 119.217 199.647 121.866 199.647 121.866L160.914 127L152.162 60.5136C152.162 60.5136 151.404 54.1209 153.167 50.7441Z" fill="url(#paint0_linear)" stroke="#362525" stroke-width="2"/>
<path d="M180.254 73.4854L180.811 76.2734L181.812 73.5391C181.838 73.4674 181.878 73.43 181.934 73.4268L182.94 73.3926C182.979 73.3958 183.01 73.4089 183.032 73.4316C183.058 73.4544 183.071 73.4788 183.071 73.5049L181.25 77.5771L180.874 80.8633C180.864 80.9414 180.822 80.9821 180.747 80.9854L179.741 81.0195C179.67 81.0195 179.634 80.9886 179.634 80.9268L180 77.6846L179.004 73.5049C179.004 73.4593 179.048 73.4333 179.136 73.4268L180.127 73.3877C180.199 73.391 180.241 73.4235 180.254 73.4854ZM184.956 81.0537C184.38 81.0537 183.957 80.8812 183.687 80.5361C183.42 80.1878 183.286 79.6816 183.286 79.0176C183.286 78.7083 183.32 78.3047 183.389 77.8066C183.457 77.3086 183.521 76.9473 183.579 76.7227C183.638 76.4948 183.721 76.2734 183.828 76.0586C183.936 75.8405 184.063 75.6615 184.209 75.5215C184.531 75.209 184.968 75.0527 185.518 75.0527C186.299 75.0527 186.805 75.3392 187.036 75.9121C187.16 76.2181 187.222 76.5892 187.222 77.0254C187.222 77.4583 187.188 77.9076 187.119 78.373C187.054 78.8385 186.992 79.1836 186.934 79.4082C186.875 79.6296 186.792 79.8477 186.685 80.0625C186.581 80.2741 186.455 80.4499 186.309 80.5898C185.986 80.8991 185.536 81.0537 184.956 81.0537ZM185.82 78.915C185.856 78.7425 185.902 78.4202 185.957 77.9482C186.016 77.473 186.045 77.1214 186.045 76.8936C186.045 76.3402 185.845 76.0635 185.444 76.0635C185.256 76.0635 185.099 76.153 184.976 76.332C184.855 76.5111 184.758 76.8089 184.683 77.2256C184.533 78.0719 184.458 78.7588 184.458 79.2861C184.458 79.8135 184.657 80.0771 185.054 80.0771C185.243 80.0771 185.399 79.9876 185.523 79.8086C185.65 79.6263 185.749 79.3285 185.82 78.915ZM190.718 80.8975L190.757 80.5215C190.363 80.8763 189.917 81.0537 189.419 81.0537C189.045 81.0537 188.768 80.917 188.589 80.6436C188.413 80.3701 188.325 80.0283 188.325 79.6182C188.325 79.5498 188.332 79.457 188.345 79.3398L188.809 75.2529C188.819 75.1748 188.859 75.1341 188.931 75.1309L189.917 75.0918C189.986 75.0983 190.02 75.1325 190.02 75.1943L189.58 79.0469C189.57 79.1315 189.566 79.2096 189.566 79.2812C189.566 79.5547 189.618 79.737 189.722 79.8281C189.829 79.9193 189.989 79.9648 190.2 79.9648C190.415 79.9648 190.627 79.9242 190.835 79.8428L191.353 75.2529C191.362 75.1748 191.403 75.1341 191.475 75.1309L192.461 75.0967C192.529 75.1032 192.564 75.1374 192.564 75.1992L191.929 80.8486C191.919 80.9268 191.875 80.9691 191.797 80.9756L190.845 81.0195C190.76 81.0163 190.718 80.9756 190.718 80.8975ZM197.393 80.9268L196.983 75.082L196.616 80.8584C196.61 80.9398 196.568 80.9821 196.489 80.9854L195.557 81.0195C195.485 81.013 195.449 80.9821 195.449 80.9268L196.289 73.5391C196.296 73.5 196.306 73.4723 196.319 73.4561C196.335 73.4398 196.367 73.43 196.416 73.4268L197.647 73.3828C197.725 73.3861 197.767 73.4251 197.774 73.5L198.218 79.3789L199.912 73.5391C199.929 73.4674 199.974 73.43 200.049 73.4268L201.333 73.3828C201.415 73.3861 201.455 73.4251 201.455 73.5L200.625 80.8633C200.615 80.9414 200.571 80.9821 200.493 80.9854L199.487 81.0195C199.419 81.0195 199.385 80.9886 199.385 80.9268L200.337 74.9746L198.589 80.8682C198.563 80.943 198.516 80.9821 198.447 80.9854L197.5 81.0195C197.435 81.013 197.399 80.9821 197.393 80.9268ZM204.644 80.8975L204.683 80.5215C204.289 80.8763 203.843 81.0537 203.345 81.0537C202.971 81.0537 202.694 80.917 202.515 80.6436C202.339 80.3701 202.251 80.0283 202.251 79.6182C202.251 79.5498 202.258 79.457 202.271 79.3398L202.735 75.2529C202.744 75.1748 202.785 75.1341 202.857 75.1309L203.843 75.0918C203.911 75.0983 203.945 75.1325 203.945 75.1943L203.506 79.0469C203.496 79.1315 203.491 79.2096 203.491 79.2812C203.491 79.5547 203.543 79.737 203.648 79.8281C203.755 79.9193 203.915 79.9648 204.126 79.9648C204.341 79.9648 204.553 79.9242 204.761 79.8428L205.278 75.2529C205.288 75.1748 205.329 75.1341 205.401 75.1309L206.387 75.0967C206.455 75.1032 206.489 75.1374 206.489 75.1992L205.855 80.8486C205.845 80.9268 205.801 80.9691 205.723 80.9756L204.771 81.0195C204.686 81.0163 204.644 80.9756 204.644 80.8975ZM209.976 76.2344L209.424 76.21C209.268 76.21 209.144 76.2458 209.053 76.3174C208.965 76.389 208.921 76.4932 208.921 76.6299C208.921 76.7633 208.945 76.9115 208.994 77.0742C209.059 77.2923 209.172 77.5462 209.331 77.8359C209.494 78.1257 209.606 78.3307 209.668 78.4512C209.857 78.8255 209.951 79.182 209.951 79.5205C209.951 80.012 209.806 80.3913 209.517 80.6582C209.23 80.9219 208.794 81.0537 208.208 81.0537C207.918 81.0537 207.687 81.0374 207.515 81.0049C207.342 80.9756 207.246 80.9528 207.227 80.9365C207.21 80.917 207.202 80.8877 207.202 80.8486L207.329 79.9453C207.336 79.8639 207.363 79.8232 207.412 79.8232C207.464 79.8232 207.562 79.8411 207.705 79.877C207.848 79.9128 207.974 79.9307 208.081 79.9307C208.478 79.9307 208.677 79.7728 208.677 79.457C208.677 79.2324 208.628 79.0225 208.53 78.8271C208.436 78.6318 208.332 78.43 208.218 78.2217C208.107 78.0133 208.021 77.8473 207.959 77.7236C207.897 77.5967 207.832 77.4225 207.764 77.2012C207.699 76.9798 207.666 76.7715 207.666 76.5762C207.666 76.1204 207.801 75.7526 208.071 75.4727C208.345 75.1927 208.742 75.0527 209.263 75.0527C209.598 75.0527 209.86 75.069 210.049 75.1016C210.13 75.1146 210.171 75.1569 210.171 75.2285L210.064 76.0977C210.064 76.1888 210.034 76.2344 209.976 76.2344ZM211.729 75.1162C211.804 74.4001 211.852 74.0306 211.875 74.0078C211.898 73.9818 211.932 73.9671 211.978 73.9639L212.91 73.9297C212.998 73.9362 213.042 73.9769 213.042 74.0518C212.98 74.4131 212.928 74.7598 212.886 75.0918L214.024 75.0527C214.102 75.056 214.141 75.0983 214.141 75.1797L214.004 75.9561C213.991 76.0342 213.95 76.0749 213.882 76.0781L212.764 76.1221C212.542 78.1143 212.432 79.2129 212.432 79.418C212.432 79.7988 212.595 79.9893 212.92 79.9893C213.086 79.9893 213.247 79.9632 213.403 79.9111C213.56 79.859 213.657 79.833 213.696 79.833C213.765 79.833 213.799 79.8753 213.799 79.96L213.696 80.8145C213.69 80.8633 213.677 80.8991 213.657 80.9219C213.641 80.9447 213.561 80.9723 213.418 81.0049C213.278 81.0374 213.037 81.0537 212.695 81.0537C212.194 81.0537 211.823 80.9382 211.582 80.707C211.341 80.4727 211.221 80.1243 211.221 79.6621C211.221 79.1999 211.349 78.0247 211.607 76.1367L211.128 76.1562C211.047 76.153 211.006 76.1123 211.006 76.0342L211.138 75.248C211.148 75.1732 211.19 75.1341 211.265 75.1309L211.729 75.1162ZM193.223 89.4443C192.943 90.5283 192.067 91.0719 190.596 91.0752L190.288 93.8438C190.278 93.9219 190.238 93.9626 190.166 93.9658L189.141 94.0195C189.069 94.013 189.033 93.9821 189.033 93.9268L189.878 86.5391C189.891 86.4707 189.933 86.4333 190.005 86.4268C190.614 86.3714 191.195 86.3438 191.748 86.3438C192.848 86.3438 193.399 86.8711 193.399 87.9258C193.399 88.502 193.34 89.0081 193.223 89.4443ZM190.996 87.4814L190.718 89.9473C191.281 89.9473 191.66 89.8301 191.856 89.5957C192.051 89.3613 192.149 88.9056 192.149 88.2285C192.149 87.9681 192.079 87.776 191.939 87.6523C191.799 87.5286 191.62 87.4668 191.402 87.4668C191.183 87.4668 191.048 87.4717 190.996 87.4814ZM196.128 85.8701L195.23 93.8486C195.223 93.8942 195.212 93.9268 195.195 93.9463C195.179 93.9658 195.148 93.9772 195.103 93.9805L194.121 94.0195C194.05 94.013 194.014 93.9821 194.014 93.9268L194.917 85.9043C194.924 85.8587 194.935 85.8262 194.951 85.8066C194.968 85.7871 194.999 85.7757 195.044 85.7725L196.001 85.7383C196.086 85.748 196.128 85.792 196.128 85.8701ZM201.011 88.2236L200.376 93.8535C200.366 93.9382 200.324 93.9821 200.249 93.9854L199.263 94.0195C199.194 94.013 199.16 93.9821 199.16 93.9268L199.253 93.2627C199.103 93.5166 198.939 93.7119 198.76 93.8486C198.584 93.9854 198.386 94.0537 198.164 94.0537C197.943 94.0537 197.754 94.0163 197.598 93.9414C197.442 93.8633 197.313 93.7624 197.212 93.6387C197.114 93.5117 197.035 93.3604 196.973 93.1846C196.859 92.8721 196.802 92.4456 196.802 91.9053C196.802 91.3617 196.838 90.901 196.909 90.5234C196.984 90.1458 197.049 89.8594 197.105 89.6641C197.16 89.4655 197.233 89.262 197.324 89.0537C197.419 88.8454 197.525 88.6712 197.642 88.5312C197.909 88.2122 198.246 88.0527 198.653 88.0527C198.955 88.0527 199.186 88.126 199.346 88.2725C199.505 88.4157 199.639 88.6289 199.746 88.9121L199.805 88.248C199.811 88.1764 199.852 88.1374 199.927 88.1309L200.884 88.0967C200.969 88.1032 201.011 88.1455 201.011 88.2236ZM198.032 91.7637C198.032 92.5417 198.241 92.9307 198.657 92.9307C198.84 92.9307 198.988 92.8477 199.102 92.6816C199.216 92.5124 199.313 92.1755 199.395 91.6709C199.479 91.1663 199.522 90.7985 199.522 90.5674C199.522 90.3363 199.52 90.1898 199.517 90.1279C199.514 90.0661 199.507 89.9847 199.497 89.8838C199.487 89.7796 199.47 89.6934 199.444 89.625C199.417 89.5534 199.383 89.4818 199.341 89.4102C199.256 89.2702 199.12 89.2002 198.931 89.2002C198.742 89.2002 198.592 89.2848 198.482 89.4541C198.371 89.6201 198.285 89.8431 198.223 90.123C198.096 90.722 198.032 91.2689 198.032 91.7637ZM206.045 88.2236L203.228 96.2168C203.202 96.2982 203.154 96.3405 203.086 96.3438L202.105 96.3779C202.033 96.3747 201.997 96.3421 201.997 96.2803L202.837 93.9121L202.075 88.248C202.075 88.1732 202.116 88.1341 202.197 88.1309L203.159 88.0967C203.234 88.0999 203.275 88.1423 203.281 88.2236L203.653 92.3301L204.839 88.248C204.859 88.1732 204.901 88.1341 204.966 88.1309L205.923 88.0967C206.004 88.1032 206.045 88.1455 206.045 88.2236Z" fill="#362525"/>
</g>
<defs>
<filter id="filter0_d" x="9.63281" y="60.5547" width="101.047" height="56.6211" filterUnits="userSpaceOnUse" color-interpolation-filters="sRGB">
<feFlood flood-opacity="0" result="BackgroundImageFix"/>
<feColorMatrix in="SourceAlpha" type="matrix" values="0 0 0 0 0 0 0 0 0 0 0 0 0 0 0 0 0 0 127 0"/>
<feOffset dy="4"/>
<feGaussianBlur stdDeviation="2"/>
<feColorMatrix type="matrix" values="0 0 0 0 0 0 0 0 0 0 0 0 0 0 0 0 0 0 0.25 0"/>
<feBlend mode="normal" in2="BackgroundImageFix" result="effect1_dropShadow"/>
<feBlend mode="normal" in="SourceGraphic" in2="effect1_dropShadow" result="shape"/>
</filter>
<filter id="filter1_d" x="147" y="37.8772" width="102" height="98.2457" filterUnits="userSpaceOnUse" color-interpolation-filters="sRGB">
<feFlood flood-opacity="0" result="BackgroundImageFix"/>
<feColorMatrix in="SourceAlpha" type="matrix" values="0 0 0 0 0 0 0 0 0 0 0 0 0 0 0 0 0 0 127 0"/>
<feOffset dy="4"/>
<feGaussianBlur stdDeviation="2"/>
<feColorMatrix type="matrix" values="0 0 0 0 0 0 0 0 0 0 0 0 0 0 0 0 0 0 0.25 0"/>
<feBlend mode="normal" in2="BackgroundImageFix" result="effect1_dropShadow"/>
<feBlend mode="normal" in="SourceGraphic" in2="effect1_dropShadow" result="shape"/>
</filter>
<linearGradient id="paint0_linear" x1="157.846" y1="51.4049" x2="160.729" y2="57.9935" gradientUnits="userSpaceOnUse">
<stop stop-color="#CCCCCC"/>
<stop offset="1" stop-color="#DEDDC4"/>
</linearGradient>
</defs>
</svg>
