<svg width="285" height="172" viewBox="0 0 285 172" fill="none" xmlns="http://www.w3.org/2000/svg">
<rect x="0.5" y="0.5" width="284" height="171" rx="13.5" fill="#E6E6E6" stroke="#362525"/>
<rect x="124.5" y="15.5" width="145" height="141" rx="7.5" fill="#CC9D9D" stroke="black"/>
<g filter="url(#filter0_d)">
<path d="M231.136 63.6363L231.123 63.6216L214.68 44.7341C212.645 43.6052 209.98 43.3269 207.049 43.594C204.092 43.8635 200.924 44.6827 197.984 45.6696C195.046 46.6554 192.352 47.8029 190.343 48.7193C189.34 49.1773 188.508 49.5772 187.904 49.8703C187.818 49.9121 187.736 49.9518 187.658 49.9893C187.466 50.0829 187.302 50.1626 187.171 50.225C187.036 50.2892 186.904 50.352 186.81 50.3876C185.478 51.0689 183.705 51.6627 181.736 52.3047C181.577 52.3567 181.416 52.4091 181.253 52.462C179.383 53.0706 177.335 53.7375 175.248 54.5786C170.713 56.4062 166.057 59.0349 162.812 63.5785C161.638 65.318 160.569 67.4648 159.448 69.9307C158.965 70.9941 158.466 72.1315 157.945 73.3192C157.273 74.8516 156.564 76.4676 155.805 78.1166C153.084 84.0271 149.575 90.6875 144.036 97.1816C142.061 99.4966 140.538 101.552 139.46 103.35C138.379 105.153 137.761 106.669 137.567 107.91C137.375 109.139 137.6 110.065 138.169 110.76C138.751 111.47 139.752 112.014 141.265 112.335L141.27 112.336C141.554 112.399 141.859 112.456 142.199 112.52C143.012 112.673 144.031 112.865 145.477 113.271C147.536 113.849 150.498 114.87 155.157 116.864C163.666 118.866 176.351 121.757 186.62 121.975C186.62 121.975 186.621 121.975 186.621 121.975L186.61 122.475C190.484 122.542 194.172 122.737 197.677 122.922C205.541 123.338 212.478 123.704 218.486 122.475L231.136 63.6363ZM231.136 63.6363L231.15 63.6499C237.226 69.6203 240.18 73.6218 241.869 76.717C242.713 78.2637 243.246 79.5932 243.696 80.845C243.833 81.2244 243.963 81.6011 244.093 81.9767C244.387 82.8281 244.68 83.6736 245.038 84.5307L231.136 63.6363Z" fill="#616161" stroke="black"/>
<path d="M246.94 111.043L246.94 111.043L246.93 111.049C243.54 112.887 238.3 115.255 233.071 117.345C227.836 119.437 222.651 121.233 219.364 121.943L219.361 121.943C211.966 123.576 197.545 123.997 186.749 123.793C177.897 123.59 169.248 122.347 161.915 120.455C161.132 120.253 159.63 119.74 158.267 119.093C157.585 118.77 156.955 118.421 156.472 118.072C155.968 117.706 155.708 117.399 155.636 117.183L155.625 117.149L155.609 117.117C155.559 117.018 155.526 116.811 155.609 116.424C155.689 116.05 155.861 115.579 156.125 115.012C156.653 113.879 157.502 112.448 158.544 110.789C159.068 109.956 159.639 109.067 160.237 108.136C162.008 105.379 164.022 102.245 165.777 99.0399C169.28 92.641 169.435 85.2712 169.257 78.7677C169.234 77.9209 169.205 77.0903 169.177 76.2785C169.096 73.9517 169.021 71.7789 169.098 69.8203C169.202 67.1765 169.584 65.0269 170.54 63.4964C173.314 59.3055 177.583 56.8753 181.768 55.1815C183.623 54.4306 185.448 53.8299 187.112 53.2819C187.325 53.2119 187.535 53.1427 187.742 53.0742C189.537 52.4804 191.145 51.9277 192.302 51.2902C192.349 51.2705 192.393 51.2474 192.425 51.2308C192.482 51.2011 192.552 51.1624 192.633 51.1172C192.772 51.0395 192.953 50.9359 193.169 50.8122L193.278 50.7498C193.809 50.4457 194.539 50.0293 195.42 49.5499C197.182 48.5907 199.546 47.3817 202.117 46.3228C204.692 45.2624 207.455 44.3608 210.021 44.004C212.579 43.6485 214.87 43.8436 216.588 44.8818L231.733 58.2915C236.957 63.8309 241.086 68.5418 244.126 72.428C247.174 76.3258 249.1 79.3613 249.949 81.5529C252.418 88.1616 254.58 94.0572 254.659 99.0632C254.698 101.549 254.222 103.788 253.027 105.774C251.831 107.76 249.892 109.533 246.94 111.043Z" fill="#989898" stroke="black"/>
<path d="M188.234 77.1482C188.234 79.1494 188.46 81.0499 188.692 82.7576C188.73 83.0425 188.769 83.3211 188.807 83.5935C188.998 84.9691 189.167 86.1842 189.198 87.231C189.236 88.494 189.065 89.38 188.603 89.9543C188.16 90.5055 187.35 90.8864 185.8 90.8864C184.34 90.8864 182.851 90.1991 181.415 88.979C179.981 87.7611 178.638 86.0419 177.482 84.0605C175.167 80.0901 173.661 75.1649 173.661 71.3407C173.661 70.3972 173.808 69.8353 174.009 69.4964C174.196 69.1827 174.456 69.0155 174.823 68.9225C175.217 68.8229 175.703 68.8161 176.312 68.8286C176.394 68.8302 176.478 68.8323 176.564 68.8343C177.091 68.8469 177.683 68.8611 178.286 68.8091C179.726 68.6848 181.275 68.1807 182.579 66.439C183.814 64.79 184.799 62.072 185.34 57.6248C185.863 57.6799 186.294 57.834 186.655 58.0631C187.114 58.3551 187.488 58.7884 187.788 59.361C188.398 60.5229 188.673 62.1977 188.747 64.1949C188.82 66.1802 188.694 68.4161 188.547 70.666C188.53 70.9274 188.513 71.189 188.495 71.4503C188.364 73.428 188.234 75.3935 188.234 77.1482Z" fill="#737373" stroke="black"/>
<path d="M161.154 89.5284C161.154 90.176 161.298 90.7801 161.434 91.2876C161.458 91.3793 161.482 91.4664 161.504 91.5493C161.615 91.9542 161.698 92.2592 161.713 92.5188C161.721 92.6621 161.705 92.7509 161.681 92.8082C161.66 92.8569 161.624 92.9091 161.537 92.9644C161.33 93.0952 160.88 93.2161 159.956 93.2161C158.157 93.2161 156.552 92.7657 155.414 92.0639C154.267 91.3572 153.661 90.4468 153.661 89.5284C153.661 89.3492 153.71 89.3071 153.728 89.2909C153.773 89.2532 153.878 89.2011 154.116 89.1705C154.348 89.1407 154.634 89.1388 154.986 89.1425C155.034 89.143 155.082 89.1436 155.132 89.1442C155.437 89.1479 155.778 89.152 156.125 89.1368C156.933 89.1014 157.855 88.9603 158.663 88.4124C159.408 87.9068 159.999 87.0946 160.345 85.8486C161.011 85.8776 161.362 85.9815 161.537 86.0924C161.624 86.1477 161.66 86.1999 161.681 86.2486C161.705 86.3058 161.721 86.3947 161.713 86.538C161.698 86.7976 161.615 87.1025 161.504 87.5075C161.482 87.5904 161.458 87.6775 161.434 87.7692C161.298 88.2767 161.154 88.8808 161.154 89.5284Z" fill="#A3A3A3" stroke="black"/>
<path d="M230.619 103.531C230.619 103.957 230.806 104.33 230.94 104.582C230.968 104.634 230.993 104.679 231.016 104.721C231.056 104.795 231.09 104.856 231.122 104.921C231.131 104.94 231.139 104.958 231.146 104.974C231.138 104.977 231.128 104.98 231.118 104.983C230.863 105.064 230.357 105.125 229.42 105.125C227.58 105.125 225.933 104.894 224.763 104.534C224.175 104.352 223.736 104.147 223.454 103.942C223.29 103.822 223.207 103.724 223.165 103.651C223.25 103.632 223.375 103.614 223.549 103.603C223.8 103.587 224.103 103.586 224.453 103.588C224.502 103.588 224.551 103.588 224.601 103.589C224.907 103.591 225.239 103.593 225.579 103.585C226.364 103.568 227.239 103.5 228.008 103.239C228.691 103.008 229.324 102.611 229.723 101.939C230.469 101.951 230.892 102.007 231.118 102.078C231.128 102.082 231.138 102.085 231.146 102.088C231.139 102.104 231.131 102.121 231.122 102.141C231.09 102.206 231.056 102.267 231.016 102.341C230.993 102.382 230.968 102.428 230.94 102.48C230.806 102.732 230.619 103.105 230.619 103.531Z" fill="#686868" stroke="black"/>
<path d="M182.559 104.085C180.578 104.593 178.901 105.727 177.41 107.022C176.463 107.845 175.557 108.765 174.697 109.639C174.222 110.121 173.761 110.59 173.315 111.02C172.023 112.263 170.827 113.217 169.583 113.59C168.426 113.938 167.162 113.799 165.645 112.732C165.351 111.332 165.65 109.827 166.419 108.295C167.22 106.698 168.518 105.101 170.114 103.624C173.311 100.667 177.624 98.2631 181.281 97.326C182.999 96.8859 184.472 97.2418 186.039 98.0392C186.828 98.4413 187.633 98.9513 188.503 99.525C188.718 99.6664 188.936 99.8117 189.159 99.96C189.833 100.409 190.548 100.884 191.308 101.355C195.324 103.844 200.697 106.258 209.744 105.13C209.749 105.268 209.737 105.385 209.712 105.484C209.666 105.668 209.572 105.818 209.42 105.948C209.093 106.228 208.486 106.426 207.554 106.499C205.708 106.643 202.987 106.276 199.911 105.755C198.963 105.594 197.984 105.42 196.993 105.242C194.796 104.85 192.537 104.447 190.427 104.163C187.38 103.754 184.537 103.578 182.559 104.085Z" fill="#737373" stroke="black"/>
<path d="M195.351 116.818C196.188 116.549 196.792 115.875 197.263 115.182C197.563 114.739 197.849 114.224 198.11 113.752C198.249 113.501 198.382 113.262 198.506 113.053C198.696 112.732 198.876 112.463 199.056 112.256C199.237 112.048 199.395 111.93 199.534 111.875C199.735 111.796 200.083 111.783 200.715 112.379C200.89 113.069 200.733 113.785 200.301 114.526C199.841 115.315 199.089 116.092 198.191 116.81C196.395 118.246 194.127 119.352 192.837 119.767C192.586 119.848 192.43 119.83 192.319 119.787C192.197 119.741 192.066 119.639 191.912 119.443C191.756 119.245 191.604 118.988 191.426 118.669C191.396 118.614 191.365 118.558 191.333 118.5C191.184 118.232 191.019 117.933 190.832 117.637C190.374 116.909 189.753 116.138 188.767 115.621C188.545 115.504 188.306 115.402 188.051 115.316C188.167 115.351 188.286 115.387 188.406 115.424C188.771 115.536 189.153 115.658 189.541 115.783C190.412 116.062 191.317 116.352 192.151 116.569C192.758 116.727 193.347 116.852 193.88 116.908C194.404 116.964 194.918 116.957 195.351 116.818ZM186.756 114.969C187.03 115.03 187.325 115.107 187.637 115.195C186.942 115.023 186.128 114.962 185.167 115.049C185.167 114.956 185.189 114.92 185.192 114.916C185.195 114.911 185.256 114.832 185.564 114.819C185.857 114.806 186.257 114.858 186.756 114.969Z" fill="#494949" stroke="black"/>
<path d="M234.632 77.1482C234.632 78.1247 234.792 79.0459 234.952 79.8531C234.979 79.9919 235.006 80.126 235.032 80.2559C235.163 80.9036 235.272 81.4438 235.292 81.9077C235.316 82.4514 235.209 82.7501 234.984 82.9422C234.729 83.1606 234.204 83.3485 233.125 83.3485C232.221 83.3485 231.083 82.708 229.829 81.5195C228.598 80.3533 227.346 78.746 226.221 77.0078C225.097 75.2719 224.111 73.4232 223.408 71.7855C222.695 70.1262 222.303 68.7503 222.303 67.9352C222.303 67.9189 222.303 67.9039 222.304 67.89C222.348 67.9111 222.403 67.9399 222.468 67.979C222.633 68.0775 222.831 68.2189 223.06 68.4006C223.519 68.7646 224.064 69.255 224.672 69.804L224.701 69.83C225.296 70.3672 225.946 70.9532 226.607 71.5011C227.279 72.0571 227.976 72.5842 228.657 72.9885C229.332 73.3889 230.031 73.6928 230.702 73.7586C231.4 73.827 232.066 73.6347 232.594 73.0632C233.033 72.5886 233.343 71.8878 233.539 70.958C234.343 71 234.764 71.1657 234.984 71.3542C235.209 71.5462 235.316 71.845 235.292 72.3887C235.272 72.8525 235.163 73.3927 235.032 74.0404C235.006 74.1703 234.979 74.3045 234.952 74.4432C234.792 75.2505 234.632 76.1717 234.632 77.1482Z" fill="#A7A7A7" stroke="black"/>
<path d="M220.09 111.961C220.09 112.341 220.21 112.683 220.305 112.933C220.324 112.982 220.341 113.026 220.357 113.066C220.385 113.139 220.41 113.201 220.432 113.266C220.451 113.32 220.463 113.361 220.47 113.392C220.33 113.446 220.023 113.5 219.409 113.5C218.865 113.5 218.202 113.303 217.488 112.953C216.781 112.606 216.061 112.128 215.413 111.61C214.765 111.092 214.203 110.545 213.808 110.069C213.68 109.915 213.573 109.773 213.487 109.644C213.752 109.753 214.066 109.899 214.423 110.066L214.44 110.074C214.79 110.237 215.174 110.417 215.566 110.585C216.348 110.919 217.226 111.239 217.987 111.277C218.374 111.297 218.775 111.247 219.125 111.051C219.384 110.906 219.589 110.696 219.736 110.427C220.137 110.443 220.358 110.486 220.47 110.53C220.463 110.561 220.451 110.601 220.432 110.656C220.41 110.721 220.385 110.782 220.357 110.855C220.341 110.896 220.324 110.939 220.305 110.989C220.21 111.239 220.09 111.581 220.09 111.961ZM212.952 109.475C212.952 109.475 212.954 109.475 212.959 109.475C212.955 109.475 212.952 109.475 212.952 109.475Z" fill="#5D5D5D" stroke="black"/>
<path d="M150.502 106.327C150.502 106.707 150.622 107.049 150.717 107.299C150.736 107.348 150.753 107.392 150.769 107.432C150.798 107.505 150.822 107.567 150.844 107.631C150.863 107.686 150.875 107.727 150.882 107.757C150.742 107.812 150.435 107.866 149.821 107.866C149.277 107.866 148.614 107.669 147.9 107.319C147.193 106.972 146.473 106.494 145.825 105.976C145.177 105.458 144.615 104.911 144.22 104.435C144.092 104.281 143.985 104.138 143.899 104.01C144.164 104.119 144.478 104.265 144.835 104.431L144.852 104.44C145.202 104.603 145.586 104.782 145.978 104.95C146.76 105.285 147.638 105.604 148.4 105.643C148.786 105.663 149.187 105.613 149.537 105.416C149.796 105.271 150.001 105.062 150.148 104.793C150.549 104.809 150.77 104.852 150.882 104.896C150.875 104.926 150.863 104.967 150.844 105.022C150.822 105.086 150.798 105.148 150.769 105.221C150.753 105.262 150.736 105.305 150.717 105.355C150.622 105.604 150.502 105.947 150.502 106.327ZM143.364 103.841C143.364 103.841 143.366 103.84 143.371 103.841C143.367 103.841 143.365 103.841 143.364 103.841Z" fill="#828282" stroke="black"/>
<path d="M205.745 79.1628C204.456 79.369 203.272 79.7924 202.232 80.194C202.054 80.2624 201.882 80.3296 201.716 80.3949C200.88 80.7216 200.171 80.999 199.545 81.1294C198.814 81.2816 198.33 81.2038 197.959 80.8614C197.548 80.4822 197.167 79.6873 196.924 78.1123C195.959 71.8618 199.106 66.4003 203.662 65.6717C204.202 65.5853 204.502 65.6697 204.687 65.7947C204.88 65.925 205.038 66.1602 205.168 66.5617C205.299 66.9648 205.38 67.4675 205.465 68.0672C205.476 68.1494 205.488 68.2331 205.5 68.3183C205.572 68.8403 205.652 69.4153 205.775 69.9953C206.061 71.3511 206.594 72.8123 207.901 73.9364C209.145 75.0074 211.025 75.7159 213.882 75.8203C214.044 77.1401 213.92 77.9047 213.668 78.3496C213.418 78.7913 212.981 79.0162 212.24 79.0995C211.604 79.1708 210.846 79.1282 209.952 79.0779C209.774 79.0678 209.59 79.0575 209.4 79.0477C208.289 78.9902 207.035 78.9566 205.745 79.1628Z" fill="#B0B0B0" stroke="black"/>
<path d="M214.937 51.1842C214.937 53.2717 215.921 54.7996 217.191 55.8951C218.206 56.7703 219.413 57.3796 220.477 57.8036C220.373 57.8035 220.267 57.8034 220.157 57.8034C215.424 57.8034 213.111 60.1061 212.006 61.6865C212.011 61.3266 212.015 60.8989 212.015 60.3973C212.015 59.4022 211.815 58.6463 211.32 58.1898C210.81 57.7189 210.132 57.6968 209.513 57.8074C208.889 57.919 208.192 58.189 207.514 58.4694C207.362 58.5322 207.211 58.5957 207.06 58.659C206.519 58.8863 205.986 59.1102 205.464 59.2861C204.795 59.5118 204.209 59.6342 203.729 59.594C203.279 59.5564 202.92 59.3786 202.642 58.9596C202.345 58.5102 202.115 57.7435 202.069 56.479C202.026 55.3004 202.143 53.735 202.474 51.6793C206.52 51.5853 209.549 50.167 211.621 49.1968C211.947 49.0442 212.249 48.9028 212.527 48.7793C213.063 48.542 213.481 48.3844 213.813 48.3214C214.14 48.2593 214.303 48.3045 214.401 48.3734C214.509 48.4498 214.655 48.6365 214.767 49.1082C214.877 49.5738 214.937 50.244 214.937 51.1842Z" fill="#C4C4C4" stroke="black"/>
<path d="M221.187 86.4031C221.187 88.4906 222.171 90.0185 223.441 91.114C224.456 91.9892 225.663 92.5985 226.727 93.0225C226.624 93.0224 226.517 93.0223 226.407 93.0223C221.674 93.0223 219.361 95.325 218.257 96.9054C218.261 96.5455 218.265 96.1178 218.265 95.6162C218.265 94.6211 218.066 93.8652 217.571 93.4087C217.06 92.9378 216.383 92.9157 215.764 93.0263C215.139 93.1379 214.442 93.4079 213.765 93.6883C213.613 93.7511 213.462 93.8146 213.311 93.8779C212.77 94.1052 212.236 94.3291 211.715 94.505C211.045 94.7307 210.46 94.8531 209.979 94.8129C209.529 94.7753 209.17 94.5975 208.893 94.1785C208.595 93.7291 208.366 92.9624 208.319 91.6979C208.276 90.5193 208.393 88.9539 208.725 86.8982C212.77 86.8042 215.799 85.3859 217.871 84.4157C218.197 84.2631 218.499 84.1217 218.778 83.9982C219.313 83.7609 219.732 83.6033 220.063 83.5403C220.39 83.4782 220.553 83.5234 220.651 83.5923C220.76 83.6687 220.906 83.8554 221.017 84.3271C221.127 84.7927 221.187 85.4629 221.187 86.4031Z" fill="#6D6D6D" stroke="black"/>
<path d="M242.886 93.7385C243.777 94.1496 244.702 94.3388 245.512 94.4798C245.654 94.5044 245.79 94.5274 245.921 94.5495C246.572 94.6594 247.099 94.7483 247.512 94.9104C247.748 95.0031 247.908 95.1068 248.016 95.2223C248.116 95.3309 248.192 95.473 248.223 95.6878C248.291 96.1548 248.148 96.9406 247.556 98.2686C246.394 100.879 244.696 102.918 242.915 104.114C241.128 105.316 239.329 105.629 237.886 104.963C237.57 104.817 237.468 104.662 237.428 104.526C237.379 104.358 237.389 104.108 237.502 103.731C237.613 103.359 237.801 102.932 238.029 102.433C238.061 102.364 238.093 102.295 238.126 102.224C238.325 101.79 238.545 101.313 238.741 100.815C239.197 99.6547 239.56 98.3014 239.303 96.8615C239.058 95.4918 238.266 94.1179 236.625 92.7915C237.142 91.7065 237.574 91.17 237.927 90.9386C238.107 90.821 238.262 90.7852 238.408 90.7907C238.564 90.7966 238.747 90.8509 238.971 90.9705C239.363 91.1796 239.776 91.5243 240.286 91.95C240.389 92.0359 240.496 92.125 240.607 92.2171C241.245 92.7439 241.995 93.3274 242.886 93.7385Z" fill="#A6A6A6" stroke="black"/>
</g>
<g filter="url(#filter1_d)">
<path d="M20.8398 78.4727C20.8242 78.5664 20.7969 78.6328 20.7578 78.6719C20.7188 78.7109 20.3359 78.7969 19.6094 78.9297C18.8828 79.0625 18.1484 79.1289 17.4062 79.1289C16.1875 79.1289 15.2539 78.7344 14.6055 77.9453C13.957 77.1562 13.6328 76.082 13.6328 74.7227C13.6328 72.3086 13.9219 69.5039 14.5 66.3086C14.8047 64.5898 15.1797 63.3828 15.625 62.6875C16.0938 61.9609 16.6562 61.4531 17.3125 61.1641C18.1328 60.8047 19.0078 60.625 19.9375 60.625C20.875 60.625 21.5 60.6523 21.8125 60.707C22.1328 60.7539 22.3125 60.7812 22.3516 60.7891C22.4531 60.8203 22.5039 60.918 22.5039 61.082L22.2344 63.2617C22.2031 63.4648 22.125 63.5664 22 63.5664C21.875 63.5664 21.5859 63.5352 21.1328 63.4727C20.6797 63.4023 20.3125 63.3672 20.0312 63.3672C19.2812 63.3672 18.7109 63.5586 18.3203 63.9414C17.9297 64.3164 17.6367 65.043 17.4414 66.1211C17.2539 67.1914 17.0703 68.6328 16.8906 70.4453C16.7109 72.25 16.6211 73.6328 16.6211 74.5938C16.6211 75.7266 17.1211 76.293 18.1211 76.293C18.4102 76.293 18.9141 76.2461 19.6328 76.1523C20.3516 76.0508 20.7617 76 20.8633 76C21.0273 76 21.1094 76.0977 21.1094 76.293L20.8398 78.4727ZM27.8594 79.1758C26.5469 79.1758 25.5547 78.7852 24.8828 78.0039C24.2109 77.2227 23.875 76.2461 23.875 75.0742C23.875 72.0898 24.1758 69.1406 24.7773 66.2266C25.2539 63.9375 25.9141 62.4062 26.7578 61.6328C27.5547 60.9141 28.6055 60.5547 29.9102 60.5547C31.2227 60.5547 32.2148 60.9492 32.8867 61.7383C33.5664 62.5273 33.9062 63.5 33.9062 64.6562C33.9062 65.8047 33.832 67.1992 33.6836 68.8398C33.5352 70.4727 33.3516 71.8398 33.1328 72.9414C32.9141 74.0352 32.7266 74.8359 32.5703 75.3438C32.4219 75.8438 32.2148 76.3516 31.9492 76.8672C31.6836 77.3828 31.375 77.7969 31.0234 78.1094C30.2344 78.8203 29.1797 79.1758 27.8594 79.1758ZM28.1641 76.4102C29.1562 76.4102 29.793 75.4961 30.0742 73.668C30.2617 72.457 30.4492 70.9492 30.6367 69.1445C30.8242 67.3398 30.918 66.0703 30.918 65.3359C30.918 64.6016 30.7969 64.082 30.5547 63.7773C30.3203 63.4727 29.9844 63.3203 29.5469 63.3203C28.6406 63.3203 28.0273 64.2383 27.707 66.0742C27.5195 67.1523 27.332 68.6172 27.1445 70.4688C26.957 72.3125 26.8633 73.6133 26.8633 74.3711C26.8633 75.1289 26.9844 75.6602 27.2266 75.9648C27.4766 76.2617 27.7891 76.4102 28.1641 76.4102ZM40.4922 78.8242L39.5078 64.7969L38.6289 78.6602C38.6133 78.8555 38.5117 78.957 38.3242 78.9648L36.0859 79.0469C35.9141 79.0312 35.8281 78.957 35.8281 78.8242L37.8438 61.0938C37.8594 61 37.8828 60.9336 37.9141 60.8945C37.9531 60.8555 38.0312 60.832 38.1484 60.8242L41.1016 60.7188C41.2891 60.7266 41.3906 60.8203 41.4062 61L42.4727 75.1094L46.5391 61.0938C46.5781 60.9219 46.6875 60.832 46.8672 60.8242L49.9492 60.7188C50.1445 60.7266 50.2422 60.8203 50.2422 61L48.25 78.6719C48.2266 78.8594 48.1211 78.957 47.9336 78.9648L45.5195 79.0469C45.3555 79.0469 45.2734 78.9727 45.2734 78.8242L47.5586 64.5391L43.3633 78.6836C43.3008 78.8633 43.1875 78.957 43.0234 78.9648L40.75 79.0469C40.5938 79.0312 40.5078 78.957 40.4922 78.8242ZM61.8672 68.0664C61.1953 70.668 59.0938 71.9727 55.5625 71.9805L54.8242 78.625C54.8008 78.8125 54.7031 78.9102 54.5312 78.918L52.0703 79.0469C51.8984 79.0312 51.8125 78.957 51.8125 78.8242L53.8398 61.0938C53.8711 60.9297 53.9727 60.8398 54.1445 60.8242C55.6055 60.6914 57 60.625 58.3281 60.625C60.9688 60.625 62.2891 61.8906 62.2891 64.4219C62.2891 65.8047 62.1484 67.0195 61.8672 68.0664ZM56.5234 63.3555L55.8555 69.2734C57.207 69.2734 58.1172 68.9922 58.5859 68.4297C59.0547 67.8672 59.2891 66.7734 59.2891 65.1484C59.2891 64.5234 59.1211 64.0625 58.7852 63.7656C58.4492 63.4688 58.0195 63.3203 57.4961 63.3203C56.9727 63.3203 56.6484 63.332 56.5234 63.3555ZM68.793 61.0234L67.4453 73.0352C67.3359 73.957 67.2812 74.6133 67.2812 75.0039C67.2812 75.3945 67.3906 75.7266 67.6094 76C67.8281 76.2734 68.1836 76.4102 68.6758 76.4102C69.168 76.4102 69.543 76.1641 69.8008 75.6719C70.0586 75.1797 70.25 74.3906 70.375 73.3047L71.7461 61.0938C71.7695 60.9219 71.875 60.832 72.0625 60.8242L74.4297 60.7305C74.625 60.7383 74.7227 60.832 74.7227 61.0117L73.375 73.0352C73.1016 75.4961 72.4688 77.1797 71.4766 78.0859C70.6719 78.8125 69.6211 79.1758 68.3242 79.1758C67.0352 79.1758 66.0469 78.8398 65.3594 78.168C64.6797 77.4883 64.3398 76.4883 64.3398 75.168C64.3398 74.5352 64.3789 73.875 64.457 73.1875L65.8398 61.0938C65.8555 60.9922 65.8789 60.9258 65.9102 60.8945C65.9492 60.8555 66.0234 60.832 66.1328 60.8242L68.5 60.7422C68.6953 60.75 68.793 60.8438 68.793 61.0234ZM77.3828 60.8711L84.9766 60.6016C85.1562 60.6094 85.2461 60.707 85.2461 60.8945L84.9414 63.2969C84.9258 63.4141 84.8984 63.4961 84.8594 63.543C84.8281 63.5898 84.7578 63.6172 84.6484 63.625L82.375 63.707L80.6641 78.6719C80.6406 78.8594 80.5391 78.957 80.3594 78.9648L77.9219 79.0469C77.7656 79.0469 77.6875 78.9727 77.6875 78.8242L79.4102 63.8008L77.0781 63.8711C76.8828 63.8633 76.7852 63.7734 76.7852 63.6016L77.0781 61.1641C77.0859 60.9766 77.1875 60.8789 77.3828 60.8711ZM93.0391 70.9844L89.3945 71.125L88.8438 75.9297L93.332 75.7773C93.5352 75.7852 93.6367 75.8867 93.6367 76.082L93.332 78.5078C93.3164 78.6719 93.2148 78.7734 93.0273 78.8125L85.8203 79.0469C85.6484 79.0469 85.5625 78.9727 85.5625 78.8242L87.5898 61.0938C87.6211 60.9297 87.7227 60.8398 87.8945 60.8242L94.3164 60.6016C94.5117 60.625 94.6094 60.7305 94.6094 60.918L94.3164 63.3438C94.293 63.5391 94.1914 63.6445 94.0117 63.6602L90.2383 63.7656L89.7344 68.125L93.3438 67.9961C93.5469 68.0039 93.6484 68.1055 93.6484 68.3008L93.3438 70.6914C93.3125 70.8711 93.2109 70.9688 93.0391 70.9844ZM106.152 78.7188C106.152 78.875 106.047 78.9531 105.836 78.9531L103.199 79.0469C103.082 79.0391 102.996 78.9648 102.941 78.8242L100 71.3711L99.1797 78.6719C99.1562 78.8594 99.0586 78.957 98.8867 78.9648L96.4375 79.0469C96.2656 79.0312 96.1797 78.957 96.1797 78.8242L98.207 61.1875C98.2227 61.0469 98.2578 60.9531 98.3125 60.9062C98.3672 60.8516 98.7812 60.793 99.5547 60.7305C100.328 60.6602 101.359 60.625 102.648 60.625C103.938 60.625 104.93 60.9688 105.625 61.6562C106.328 62.3359 106.68 63.2148 106.68 64.293C106.68 65.3711 106.551 66.3242 106.293 67.1523C106.035 67.9727 105.609 68.7109 105.016 69.3672C104.422 70.0234 103.68 70.5117 102.789 70.832L106.117 78.5781C106.141 78.625 106.152 78.6719 106.152 78.7188ZM100.902 63.3555L100.246 69.1797C101.691 69.0938 102.688 68.4375 103.234 67.2109C103.531 66.5391 103.68 65.8594 103.68 65.1719C103.68 64.4766 103.535 63.9922 103.246 63.7188C102.965 63.4375 102.555 63.2969 102.016 63.2969C101.477 63.2969 101.105 63.3164 100.902 63.3555ZM44.5586 98.0664C43.8867 100.668 41.7852 101.973 38.2539 101.98L37.5156 108.625C37.4922 108.812 37.3945 108.91 37.2227 108.918L34.7617 109.047C34.5898 109.031 34.5039 108.957 34.5039 108.824L36.5312 91.0938C36.5625 90.9297 36.6641 90.8398 36.8359 90.8242C38.2969 90.6914 39.6914 90.625 41.0195 90.625C43.6602 90.625 44.9805 91.8906 44.9805 94.4219C44.9805 95.8047 44.8398 97.0195 44.5586 98.0664ZM39.2148 93.3555L38.5469 99.2734C39.8984 99.2734 40.8086 98.9922 41.2773 98.4297C41.7461 97.8672 41.9805 96.7734 41.9805 95.1484C41.9805 94.5234 41.8125 94.0625 41.4766 93.7656C41.1406 93.4688 40.7109 93.3203 40.1875 93.3203C39.6641 93.3203 39.3398 93.332 39.2148 93.3555ZM51.4609 91.0234L49.7852 105.918L54.2734 105.742C54.4766 105.75 54.5781 105.852 54.5781 106.047L54.2734 108.473C54.25 108.676 54.1484 108.781 53.9688 108.789L46.75 109.047C46.5859 109.047 46.5039 108.973 46.5039 108.824L48.5078 91.0938C48.5234 91 48.5469 90.9336 48.5781 90.8945C48.6172 90.8555 48.6914 90.832 48.8008 90.8242L51.1562 90.7422C51.3594 90.75 51.4609 90.8438 51.4609 91.0234ZM64.2461 91.0117L65.6172 108.66C65.6172 108.84 65.5156 108.938 65.3125 108.953L62.8633 109.047C62.6992 109.047 62.6172 108.973 62.6172 108.824L62.4414 104.957L59.7812 105.062L58.9023 108.672C58.8789 108.781 58.8477 108.855 58.8086 108.895C58.7695 108.934 58.6992 108.957 58.5977 108.965L56.1719 109.047C56.0156 109.047 55.9375 108.973 55.9375 108.824L61.082 91.0938C61.1367 90.9219 61.2422 90.832 61.3984 90.8242L63.9766 90.7305C64.1406 90.7383 64.2305 90.832 64.2461 91.0117ZM62.0312 95.8398L60.3906 102.566L62.3359 102.496L62.0312 95.8398ZM71.6758 90.9648L73.0117 97.6562L75.4141 91.0938C75.4766 90.9219 75.5742 90.832 75.707 90.8242L78.1211 90.7422C78.2148 90.75 78.2891 90.7812 78.3438 90.8359C78.4062 90.8906 78.4375 90.9492 78.4375 91.0117L74.0664 100.785L73.1641 108.672C73.1406 108.859 73.0391 108.957 72.8594 108.965L70.4453 109.047C70.2734 109.047 70.1875 108.973 70.1875 108.824L71.0664 101.043L68.6758 91.0117C68.6758 90.9023 68.7812 90.8398 68.9922 90.8242L71.3711 90.7305C71.543 90.7383 71.6445 90.8164 71.6758 90.9648ZM78.4492 109.176C78.2539 109.176 78.1562 109.082 78.1562 108.895L78.4492 106.445C78.4805 106.273 78.582 106.18 78.7539 106.164C79.9727 106.039 80.7773 105.848 81.168 105.59C81.5586 105.324 81.7539 104.801 81.7539 104.02C81.7539 103.238 81.5547 102.223 81.1562 100.973C80.7578 99.7148 80.5 98.8789 80.3828 98.4648C80.0078 97.1367 79.8203 96.0508 79.8203 95.207C79.8203 94.3555 79.957 93.6289 80.2305 93.0273C80.5039 92.4258 80.8945 91.9453 81.4023 91.5859C82.3867 90.8984 83.7109 90.5547 85.375 90.5547C85.5859 90.5547 85.6914 90.6523 85.6914 90.8477L85.375 93.2734C85.3438 93.4688 85.2461 93.5742 85.082 93.5898C83.5664 93.6914 82.8086 94.1406 82.8086 94.9375C82.8086 95.6719 83.1289 97.1172 83.7695 99.2734C84.418 101.422 84.7422 102.961 84.7422 103.891C84.7422 107.414 82.6445 109.176 78.4492 109.176Z" fill="#362525"/>
</g>
<defs>
<filter id="filter0_d" x="133" y="43" width="126.161" height="89.3406" filterUnits="userSpaceOnUse" color-interpolation-filters="sRGB">
<feFlood flood-opacity="0" result="BackgroundImageFix"/>
<feColorMatrix in="SourceAlpha" type="matrix" values="0 0 0 0 0 0 0 0 0 0 0 0 0 0 0 0 0 0 127 0"/>
<feOffset dy="4"/>
<feGaussianBlur stdDeviation="2"/>
<feColorMatrix type="matrix" values="0 0 0 0 0 0 0 0 0 0 0 0 0 0 0 0 0 0 0.25 0"/>
<feBlend mode="normal" in2="BackgroundImageFix" result="effect1_dropShadow"/>
<feBlend mode="normal" in="SourceGraphic" in2="effect1_dropShadow" result="shape"/>
</filter>
<filter id="filter1_d" x="9.63281" y="60.5547" width="101.047" height="56.6211" filterUnits="userSpaceOnUse" color-interpolation-filters="sRGB">
<feFlood flood-opacity="0" result="BackgroundImageFix"/>
<feColorMatrix in="SourceAlpha" type="matrix" values="0 0 0 0 0 0 0 0 0 0 0 0 0 0 0 0 0 0 127 0"/>
<feOffset dy="4"/>
<feGaussianBlur stdDeviation="2"/>
<feColorMatrix type="matrix" values="0 0 0 0 0 0 0 0 0 0 0 0 0 0 0 0 0 0 0.25 0"/>
<feBlend mode="normal" in2="BackgroundImageFix" result="effect1_dropShadow"/>
<feBlend mode="normal" in="SourceGraphic" in2="effect1_dropShadow" result="shape"/>
</filter>
</defs>
</svg>
