<svg width="285" height="172" viewBox="0 0 285 172" fill="none" xmlns="http://www.w3.org/2000/svg">
<rect x="0.5" y="0.5" width="284" height="171" rx="13.5" fill="#E6E6E6" stroke="#362525"/>
<g filter="url(#filter0_d)">
<path d="M20.8398 78.4727C20.8242 78.5664 20.7969 78.6328 20.7578 78.6719C20.7188 78.7109 20.3359 78.7969 19.6094 78.9297C18.8828 79.0625 18.1484 79.1289 17.4062 79.1289C16.1875 79.1289 15.2539 78.7344 14.6055 77.9453C13.957 77.1562 13.6328 76.082 13.6328 74.7227C13.6328 72.3086 13.9219 69.5039 14.5 66.3086C14.8047 64.5898 15.1797 63.3828 15.625 62.6875C16.0938 61.9609 16.6562 61.4531 17.3125 61.1641C18.1328 60.8047 19.0078 60.625 19.9375 60.625C20.875 60.625 21.5 60.6523 21.8125 60.707C22.1328 60.7539 22.3125 60.7812 22.3516 60.7891C22.4531 60.8203 22.5039 60.918 22.5039 61.082L22.2344 63.2617C22.2031 63.4648 22.125 63.5664 22 63.5664C21.875 63.5664 21.5859 63.5352 21.1328 63.4727C20.6797 63.4023 20.3125 63.3672 20.0312 63.3672C19.2812 63.3672 18.7109 63.5586 18.3203 63.9414C17.9297 64.3164 17.6367 65.043 17.4414 66.1211C17.2539 67.1914 17.0703 68.6328 16.8906 70.4453C16.7109 72.25 16.6211 73.6328 16.6211 74.5938C16.6211 75.7266 17.1211 76.293 18.1211 76.293C18.4102 76.293 18.9141 76.2461 19.6328 76.1523C20.3516 76.0508 20.7617 76 20.8633 76C21.0273 76 21.1094 76.0977 21.1094 76.293L20.8398 78.4727ZM27.8594 79.1758C26.5469 79.1758 25.5547 78.7852 24.8828 78.0039C24.2109 77.2227 23.875 76.2461 23.875 75.0742C23.875 72.0898 24.1758 69.1406 24.7773 66.2266C25.2539 63.9375 25.9141 62.4062 26.7578 61.6328C27.5547 60.9141 28.6055 60.5547 29.9102 60.5547C31.2227 60.5547 32.2148 60.9492 32.8867 61.7383C33.5664 62.5273 33.9062 63.5 33.9062 64.6562C33.9062 65.8047 33.832 67.1992 33.6836 68.8398C33.5352 70.4727 33.3516 71.8398 33.1328 72.9414C32.9141 74.0352 32.7266 74.8359 32.5703 75.3438C32.4219 75.8438 32.2148 76.3516 31.9492 76.8672C31.6836 77.3828 31.375 77.7969 31.0234 78.1094C30.2344 78.8203 29.1797 79.1758 27.8594 79.1758ZM28.1641 76.4102C29.1562 76.4102 29.793 75.4961 30.0742 73.668C30.2617 72.457 30.4492 70.9492 30.6367 69.1445C30.8242 67.3398 30.918 66.0703 30.918 65.3359C30.918 64.6016 30.7969 64.082 30.5547 63.7773C30.3203 63.4727 29.9844 63.3203 29.5469 63.3203C28.6406 63.3203 28.0273 64.2383 27.707 66.0742C27.5195 67.1523 27.332 68.6172 27.1445 70.4688C26.957 72.3125 26.8633 73.6133 26.8633 74.3711C26.8633 75.1289 26.9844 75.6602 27.2266 75.9648C27.4766 76.2617 27.7891 76.4102 28.1641 76.4102ZM40.4922 78.8242L39.5078 64.7969L38.6289 78.6602C38.6133 78.8555 38.5117 78.957 38.3242 78.9648L36.0859 79.0469C35.9141 79.0312 35.8281 78.957 35.8281 78.8242L37.8438 61.0938C37.8594 61 37.8828 60.9336 37.9141 60.8945C37.9531 60.8555 38.0312 60.832 38.1484 60.8242L41.1016 60.7188C41.2891 60.7266 41.3906 60.8203 41.4062 61L42.4727 75.1094L46.5391 61.0938C46.5781 60.9219 46.6875 60.832 46.8672 60.8242L49.9492 60.7188C50.1445 60.7266 50.2422 60.8203 50.2422 61L48.25 78.6719C48.2266 78.8594 48.1211 78.957 47.9336 78.9648L45.5195 79.0469C45.3555 79.0469 45.2734 78.9727 45.2734 78.8242L47.5586 64.5391L43.3633 78.6836C43.3008 78.8633 43.1875 78.957 43.0234 78.9648L40.75 79.0469C40.5938 79.0312 40.5078 78.957 40.4922 78.8242ZM61.8672 68.0664C61.1953 70.668 59.0938 71.9727 55.5625 71.9805L54.8242 78.625C54.8008 78.8125 54.7031 78.9102 54.5312 78.918L52.0703 79.0469C51.8984 79.0312 51.8125 78.957 51.8125 78.8242L53.8398 61.0938C53.8711 60.9297 53.9727 60.8398 54.1445 60.8242C55.6055 60.6914 57 60.625 58.3281 60.625C60.9688 60.625 62.2891 61.8906 62.2891 64.4219C62.2891 65.8047 62.1484 67.0195 61.8672 68.0664ZM56.5234 63.3555L55.8555 69.2734C57.207 69.2734 58.1172 68.9922 58.5859 68.4297C59.0547 67.8672 59.2891 66.7734 59.2891 65.1484C59.2891 64.5234 59.1211 64.0625 58.7852 63.7656C58.4492 63.4688 58.0195 63.3203 57.4961 63.3203C56.9727 63.3203 56.6484 63.332 56.5234 63.3555ZM68.793 61.0234L67.4453 73.0352C67.3359 73.957 67.2812 74.6133 67.2812 75.0039C67.2812 75.3945 67.3906 75.7266 67.6094 76C67.8281 76.2734 68.1836 76.4102 68.6758 76.4102C69.168 76.4102 69.543 76.1641 69.8008 75.6719C70.0586 75.1797 70.25 74.3906 70.375 73.3047L71.7461 61.0938C71.7695 60.9219 71.875 60.832 72.0625 60.8242L74.4297 60.7305C74.625 60.7383 74.7227 60.832 74.7227 61.0117L73.375 73.0352C73.1016 75.4961 72.4688 77.1797 71.4766 78.0859C70.6719 78.8125 69.6211 79.1758 68.3242 79.1758C67.0352 79.1758 66.0469 78.8398 65.3594 78.168C64.6797 77.4883 64.3398 76.4883 64.3398 75.168C64.3398 74.5352 64.3789 73.875 64.457 73.1875L65.8398 61.0938C65.8555 60.9922 65.8789 60.9258 65.9102 60.8945C65.9492 60.8555 66.0234 60.832 66.1328 60.8242L68.5 60.7422C68.6953 60.75 68.793 60.8438 68.793 61.0234ZM77.3828 60.8711L84.9766 60.6016C85.1562 60.6094 85.2461 60.707 85.2461 60.8945L84.9414 63.2969C84.9258 63.4141 84.8984 63.4961 84.8594 63.543C84.8281 63.5898 84.7578 63.6172 84.6484 63.625L82.375 63.707L80.6641 78.6719C80.6406 78.8594 80.5391 78.957 80.3594 78.9648L77.9219 79.0469C77.7656 79.0469 77.6875 78.9727 77.6875 78.8242L79.4102 63.8008L77.0781 63.8711C76.8828 63.8633 76.7852 63.7734 76.7852 63.6016L77.0781 61.1641C77.0859 60.9766 77.1875 60.8789 77.3828 60.8711ZM93.0391 70.9844L89.3945 71.125L88.8438 75.9297L93.332 75.7773C93.5352 75.7852 93.6367 75.8867 93.6367 76.082L93.332 78.5078C93.3164 78.6719 93.2148 78.7734 93.0273 78.8125L85.8203 79.0469C85.6484 79.0469 85.5625 78.9727 85.5625 78.8242L87.5898 61.0938C87.6211 60.9297 87.7227 60.8398 87.8945 60.8242L94.3164 60.6016C94.5117 60.625 94.6094 60.7305 94.6094 60.918L94.3164 63.3438C94.293 63.5391 94.1914 63.6445 94.0117 63.6602L90.2383 63.7656L89.7344 68.125L93.3438 67.9961C93.5469 68.0039 93.6484 68.1055 93.6484 68.3008L93.3438 70.6914C93.3125 70.8711 93.2109 70.9688 93.0391 70.9844ZM106.152 78.7188C106.152 78.875 106.047 78.9531 105.836 78.9531L103.199 79.0469C103.082 79.0391 102.996 78.9648 102.941 78.8242L100 71.3711L99.1797 78.6719C99.1562 78.8594 99.0586 78.957 98.8867 78.9648L96.4375 79.0469C96.2656 79.0312 96.1797 78.957 96.1797 78.8242L98.207 61.1875C98.2227 61.0469 98.2578 60.9531 98.3125 60.9062C98.3672 60.8516 98.7812 60.793 99.5547 60.7305C100.328 60.6602 101.359 60.625 102.648 60.625C103.938 60.625 104.93 60.9688 105.625 61.6562C106.328 62.3359 106.68 63.2148 106.68 64.293C106.68 65.3711 106.551 66.3242 106.293 67.1523C106.035 67.9727 105.609 68.7109 105.016 69.3672C104.422 70.0234 103.68 70.5117 102.789 70.832L106.117 78.5781C106.141 78.625 106.152 78.6719 106.152 78.7188ZM100.902 63.3555L100.246 69.1797C101.691 69.0938 102.688 68.4375 103.234 67.2109C103.531 66.5391 103.68 65.8594 103.68 65.1719C103.68 64.4766 103.535 63.9922 103.246 63.7188C102.965 63.4375 102.555 63.2969 102.016 63.2969C101.477 63.2969 101.105 63.3164 100.902 63.3555ZM44.5586 98.0664C43.8867 100.668 41.7852 101.973 38.2539 101.98L37.5156 108.625C37.4922 108.812 37.3945 108.91 37.2227 108.918L34.7617 109.047C34.5898 109.031 34.5039 108.957 34.5039 108.824L36.5312 91.0938C36.5625 90.9297 36.6641 90.8398 36.8359 90.8242C38.2969 90.6914 39.6914 90.625 41.0195 90.625C43.6602 90.625 44.9805 91.8906 44.9805 94.4219C44.9805 95.8047 44.8398 97.0195 44.5586 98.0664ZM39.2148 93.3555L38.5469 99.2734C39.8984 99.2734 40.8086 98.9922 41.2773 98.4297C41.7461 97.8672 41.9805 96.7734 41.9805 95.1484C41.9805 94.5234 41.8125 94.0625 41.4766 93.7656C41.1406 93.4688 40.7109 93.3203 40.1875 93.3203C39.6641 93.3203 39.3398 93.332 39.2148 93.3555ZM51.4609 91.0234L49.7852 105.918L54.2734 105.742C54.4766 105.75 54.5781 105.852 54.5781 106.047L54.2734 108.473C54.25 108.676 54.1484 108.781 53.9688 108.789L46.75 109.047C46.5859 109.047 46.5039 108.973 46.5039 108.824L48.5078 91.0938C48.5234 91 48.5469 90.9336 48.5781 90.8945C48.6172 90.8555 48.6914 90.832 48.8008 90.8242L51.1562 90.7422C51.3594 90.75 51.4609 90.8438 51.4609 91.0234ZM64.2461 91.0117L65.6172 108.66C65.6172 108.84 65.5156 108.938 65.3125 108.953L62.8633 109.047C62.6992 109.047 62.6172 108.973 62.6172 108.824L62.4414 104.957L59.7812 105.062L58.9023 108.672C58.8789 108.781 58.8477 108.855 58.8086 108.895C58.7695 108.934 58.6992 108.957 58.5977 108.965L56.1719 109.047C56.0156 109.047 55.9375 108.973 55.9375 108.824L61.082 91.0938C61.1367 90.9219 61.2422 90.832 61.3984 90.8242L63.9766 90.7305C64.1406 90.7383 64.2305 90.832 64.2461 91.0117ZM62.0312 95.8398L60.3906 102.566L62.3359 102.496L62.0312 95.8398ZM71.6758 90.9648L73.0117 97.6562L75.4141 91.0938C75.4766 90.9219 75.5742 90.832 75.707 90.8242L78.1211 90.7422C78.2148 90.75 78.2891 90.7812 78.3438 90.8359C78.4062 90.8906 78.4375 90.9492 78.4375 91.0117L74.0664 100.785L73.1641 108.672C73.1406 108.859 73.0391 108.957 72.8594 108.965L70.4453 109.047C70.2734 109.047 70.1875 108.973 70.1875 108.824L71.0664 101.043L68.6758 91.0117C68.6758 90.9023 68.7812 90.8398 68.9922 90.8242L71.3711 90.7305C71.543 90.7383 71.6445 90.8164 71.6758 90.9648ZM78.4492 109.176C78.2539 109.176 78.1562 109.082 78.1562 108.895L78.4492 106.445C78.4805 106.273 78.582 106.18 78.7539 106.164C79.9727 106.039 80.7773 105.848 81.168 105.59C81.5586 105.324 81.7539 104.801 81.7539 104.02C81.7539 103.238 81.5547 102.223 81.1562 100.973C80.7578 99.7148 80.5 98.8789 80.3828 98.4648C80.0078 97.1367 79.8203 96.0508 79.8203 95.207C79.8203 94.3555 79.957 93.6289 80.2305 93.0273C80.5039 92.4258 80.8945 91.9453 81.4023 91.5859C82.3867 90.8984 83.7109 90.5547 85.375 90.5547C85.5859 90.5547 85.6914 90.6523 85.6914 90.8477L85.375 93.2734C85.3438 93.4688 85.2461 93.5742 85.082 93.5898C83.5664 93.6914 82.8086 94.1406 82.8086 94.9375C82.8086 95.6719 83.1289 97.1172 83.7695 99.2734C84.418 101.422 84.7422 102.961 84.7422 103.891C84.7422 107.414 82.6445 109.176 78.4492 109.176Z" fill="#362525"/>
</g>
<rect x="125.5" y="15.5" width="145" height="141" rx="7.5" fill="#959595" stroke="#362525"/>
<path d="M191.889 102.404C191.314 102.404 191.027 102.117 191.027 101.543C191.027 96.8945 191.711 92.9844 193.078 89.8125C194.363 86.9141 195.854 84.3984 197.549 82.2656C200.092 79.0938 201.787 76.6465 202.635 74.9238C203.482 73.1738 203.906 71.2598 203.906 69.1816C203.906 65.6543 202.252 63.8906 198.943 63.8906C197.521 63.8906 195.771 64.082 193.693 64.4648C191.615 64.8477 190.371 65.0391 189.961 65.0391C189.359 65.0391 189.059 64.6562 189.059 63.8906L190.043 56.0977C190.098 55.5781 190.439 55.209 191.068 54.9902C195.826 54.1426 199.326 53.7188 201.568 53.7188C205.451 53.7188 208.555 55.0176 210.879 57.6152C213.203 60.1855 214.365 63.3438 214.365 67.0898C214.365 70.8359 213.832 73.9258 212.766 76.3594C211.727 78.7656 210.4 81.0215 208.787 83.127C207.174 85.2051 206.08 86.6543 205.506 87.4746C204.932 88.2949 204.207 89.4844 203.332 91.043C201.773 93.8594 200.994 97.1816 200.994 101.01C200.994 101.693 200.652 102.049 199.969 102.076L191.889 102.404ZM195.129 120.451C193.352 120.451 191.916 119.891 190.822 118.77C189.729 117.621 189.182 116.172 189.182 114.422C189.182 112.645 189.893 111.059 191.314 109.664C192.764 108.27 194.377 107.572 196.154 107.572C197.959 107.572 199.408 108.133 200.502 109.254C201.623 110.375 202.184 111.824 202.184 113.602C202.184 115.379 201.459 116.965 200.01 118.359C198.561 119.754 196.934 120.451 195.129 120.451Z" fill="#D8D8D8"/>
<defs>
<filter id="filter0_d" x="9.63281" y="60.5547" width="101.047" height="56.6211" filterUnits="userSpaceOnUse" color-interpolation-filters="sRGB">
<feFlood flood-opacity="0" result="BackgroundImageFix"/>
<feColorMatrix in="SourceAlpha" type="matrix" values="0 0 0 0 0 0 0 0 0 0 0 0 0 0 0 0 0 0 127 0"/>
<feOffset dy="4"/>
<feGaussianBlur stdDeviation="2"/>
<feColorMatrix type="matrix" values="0 0 0 0 0 0 0 0 0 0 0 0 0 0 0 0 0 0 0.25 0"/>
<feBlend mode="normal" in2="BackgroundImageFix" result="effect1_dropShadow"/>
<feBlend mode="normal" in="SourceGraphic" in2="effect1_dropShadow" result="shape"/>
</filter>
</defs>
</svg>
