<svg width="230" height="186" viewBox="0 0 230 186" fill="none" xmlns="http://www.w3.org/2000/svg">
<rect x="0.5" y="0.5" width="229" height="185" rx="21.5" fill="#E6E6E6" stroke="#362525"/>
<g clip-path="url(#clip0)">
<path fill-rule="evenodd" clip-rule="evenodd" d="M99.8812 132.89H134.187C135.562 134.71 138.519 136.53 141.406 138.35C144.156 140.17 146.837 141.99 148.625 143.81H85.1687C87.7125 141.99 90.325 140.17 93.075 138.35C95.825 136.53 98.6437 134.71 99.8812 132.89Z" fill="url(#paint0_linear)"/>
<path fill-rule="evenodd" clip-rule="evenodd" d="M132.537 116.3H101.875C101.875 119.94 102.769 123.65 101.325 127.15C99.7437 130.93 96.1 134.36 94.45 138C101.944 137.93 109.506 137.86 117 137.86H139.55C137.969 134.29 134.531 130.86 133.087 127.08C131.712 123.58 132.606 119.87 132.606 116.3H132.537Z" fill="url(#paint1_linear)"/>
<path d="M178.463 40H55.5375C53.0315 40 51 42.0684 51 44.62V118.4C51 120.952 53.0315 123.02 55.5375 123.02H178.463C180.968 123.02 183 120.952 183 118.4V44.62C183 42.0684 180.968 40 178.463 40Z" fill="#434242"/>
<path d="M178.325 40.14H55.675C53.169 40.14 51.1375 42.2085 51.1375 44.76V118.26C51.1375 120.812 53.169 122.88 55.675 122.88H178.325C180.831 122.88 182.862 120.812 182.862 118.26V44.76C182.862 42.2085 180.831 40.14 178.325 40.14Z" fill="#453119"/>
<path fill-rule="evenodd" clip-rule="evenodd" d="M55.7487 39.4231H178.251C180.867 39.4231 183 41.6232 183 44.32V110.962H51V44.32C51 41.6232 53.1335 39.4231 55.7487 39.4231Z" fill="#DE943E"/>
<path d="M179.562 43.57H54.4375V107.2H179.562V43.57Z" fill="#DE943E"/>
<path d="M179.563 43.85H54.7126V107.2H179.563V43.85Z" fill="#DE943E"/>
<path d="M179.288 43.85H54.7126V106.92H179.288V43.85Z" fill="#FEFEFE"/>
<path fill-rule="evenodd" clip-rule="evenodd" d="M85.1687 143.74H148.487V144.3C148.487 144.72 148.144 145 147.8 145H85.925C85.5125 145 85.2375 144.65 85.2375 144.3V143.74H85.1687Z" fill="url(#paint2_linear)"/>
<rect x="88.3909" y="58.3846" width="11.6812" height="11.6923" fill="#DE943E" stroke="#453119"/>
<rect x="132.775" y="58.3846" width="11.6812" height="11.6923" fill="#DE943E" stroke="#453119"/>
<path d="M162.151 81.9004C162.558 83.5515 161.689 85.2073 159.598 86.7656C157.507 88.3239 154.238 89.7518 149.994 90.9612C145.749 92.1705 140.618 93.1357 134.918 93.7972C129.217 94.4588 123.068 94.8026 116.849 94.8076C110.629 94.8126 104.472 94.4786 98.7569 93.8262C93.0415 93.1738 87.889 92.2168 83.6171 91.0142C79.3452 89.8117 76.0444 88.3891 73.9182 86.8341C71.7921 85.2792 70.8857 83.6248 71.2549 81.9731L76.923 82.0628C76.5999 83.5085 77.3933 84.9566 79.2543 86.3177C81.1153 87.6787 84.0045 88.924 87.7438 89.9766C91.483 91.0291 95.993 91.8668 100.996 92.4379C105.998 93.0089 111.388 93.3013 116.831 93.2969C122.275 93.2926 127.658 92.9916 132.648 92.4125C137.637 91.8335 142.128 90.9886 145.844 89.9301C149.559 88.8715 152.42 87.6217 154.25 86.2577C156.081 84.8937 156.841 83.4444 156.485 81.9991L162.151 81.9004Z" fill="#453119"/>
</g>
<defs>
<linearGradient id="paint0_linear" x1="116.998" y1="137.699" x2="116.998" y2="142.676" gradientUnits="userSpaceOnUse">
<stop stop-color="#362525"/>
<stop offset="1" stop-color="#DE943E"/>
</linearGradient>
<linearGradient id="paint1_linear" x1="117" y1="125.19" x2="117" y2="135.214" gradientUnits="userSpaceOnUse">
<stop stop-color="#C79C69"/>
<stop offset="1" stop-color="#DA8115"/>
</linearGradient>
<linearGradient id="paint2_linear" x1="116.966" y1="143.908" x2="116.966" y2="144.853" gradientUnits="userSpaceOnUse">
<stop stop-color="#5B5B5B"/>
<stop offset="1" stop-color="#434242"/>
</linearGradient>
<clipPath id="clip0">
<rect width="132" height="105" fill="white" transform="translate(51 40)"/>
</clipPath>
</defs>
</svg>
