<svg width="132" height="105" viewBox="0 0 132 105" fill="none" xmlns="http://www.w3.org/2000/svg">
<g clip-path="url(#clip0)">
<path fill-rule="evenodd" clip-rule="evenodd" d="M48.8812 92.89H83.1875C84.5625 94.71 87.5187 96.53 90.4062 98.35C93.1562 100.17 95.8375 101.99 97.625 103.81H34.1687C36.7125 101.99 39.325 100.17 42.075 98.35C44.825 96.53 47.6437 94.71 48.8812 92.89Z" fill="url(#paint0_linear)"/>
<path fill-rule="evenodd" clip-rule="evenodd" d="M81.5375 76.3H50.875C50.875 79.94 51.7687 83.65 50.325 87.15C48.7437 90.93 45.1 94.36 43.45 98C50.9437 97.93 58.5062 97.86 66 97.86H88.55C86.9687 94.29 83.5312 90.86 82.0875 87.08C80.7125 83.58 81.6062 79.87 81.6062 76.3H81.5375Z" fill="url(#paint1_linear)"/>
<path d="M127.463 0H4.5375C2.03151 0 0 2.06844 0 4.62V78.4C0 80.9515 2.03151 83.02 4.5375 83.02H127.463C129.968 83.02 132 80.9515 132 78.4V4.62C132 2.06844 129.968 0 127.463 0Z" fill="#434242"/>
<path d="M127.325 0.140015H4.67495C2.16896 0.140015 0.137451 2.20846 0.137451 4.76001V78.26C0.137451 80.8116 2.16896 82.88 4.67495 82.88H127.325C129.831 82.88 131.862 80.8116 131.862 78.26V4.76001C131.862 2.20846 129.831 0.140015 127.325 0.140015Z" fill="#453119"/>
<path fill-rule="evenodd" clip-rule="evenodd" d="M4.7487 -0.576935H127.251C129.867 -0.576935 132 1.62316 132 4.32004V70.9615H0V4.32004C0 1.62316 2.13347 -0.576935 4.7487 -0.576935Z" fill="#DE943E"/>
<path d="M128.562 3.57001H3.4375V67.2H128.562V3.57001Z" fill="#DE943E"/>
<path d="M128.563 3.85001H3.71265V67.2H128.563V3.85001Z" fill="#DE943E"/>
<path d="M128.288 3.85001H3.71265V66.92H128.288V3.85001Z" fill="#FEFEFE"/>
<path fill-rule="evenodd" clip-rule="evenodd" d="M34.1687 103.74H97.4875V104.3C97.4875 104.72 97.1437 105 96.8 105H34.925C34.5125 105 34.2375 104.65 34.2375 104.3V103.74H34.1687Z" fill="url(#paint2_linear)"/>
<rect x="37.3909" y="18.3846" width="11.6812" height="11.6923" fill="#DE943E" stroke="#453119"/>
<rect x="81.7751" y="18.3846" width="11.6812" height="11.6923" fill="#DE943E" stroke="#453119"/>
<path d="M111.151 41.9004C111.558 43.5515 110.689 45.2073 108.598 46.7656C106.507 48.3239 103.238 49.7518 98.9937 50.9612C94.749 52.1705 89.6182 53.1357 83.9177 53.7972C78.2172 54.4588 72.0677 54.8027 65.8486 54.8076C59.6294 54.8126 53.4723 54.4786 47.7569 53.8262C42.0415 53.1738 36.889 52.2168 32.6171 51.0142C28.3452 49.8117 25.0444 48.3891 22.9182 46.8341C20.7921 45.2792 19.8857 43.6248 20.2549 41.9731L25.923 42.0628C25.5999 43.5085 26.3933 44.9566 28.2543 46.3177C30.1153 47.6787 33.0045 48.924 36.7438 49.9766C40.483 51.0291 44.993 51.8668 49.9957 52.4379C54.9984 53.0089 60.3878 53.3013 65.8315 53.2969C71.2752 53.2926 76.6578 52.9916 81.6476 52.4125C86.6373 51.8335 91.1283 50.9886 94.8437 49.9301C98.5591 48.8715 101.42 47.6217 103.25 46.2577C105.081 44.8937 105.841 43.4444 105.485 41.9991L111.151 41.9004Z" fill="#453119"/>
</g>
<defs>
<linearGradient id="paint0_linear" x1="65.9979" y1="97.699" x2="65.9979" y2="102.676" gradientUnits="userSpaceOnUse">
<stop stop-color="#362525"/>
<stop offset="1" stop-color="#DE943E"/>
</linearGradient>
<linearGradient id="paint1_linear" x1="66" y1="85.19" x2="66" y2="95.214" gradientUnits="userSpaceOnUse">
<stop stop-color="#C79C69"/>
<stop offset="1" stop-color="#DA8115"/>
</linearGradient>
<linearGradient id="paint2_linear" x1="65.9656" y1="103.908" x2="65.9656" y2="104.853" gradientUnits="userSpaceOnUse">
<stop stop-color="#5B5B5B"/>
<stop offset="1" stop-color="#434242"/>
</linearGradient>
<clipPath id="clip0">
<rect width="132" height="105" fill="white"/>
</clipPath>
</defs>
</svg>
