<svg width="160" height="160" viewBox="0 0 160 160" fill="none" xmlns="http://www.w3.org/2000/svg">
<rect x="0.5" y="0.5" width="159" height="159" rx="7.5" fill="#9DCCC6" stroke="#362525"/>
<g filter="url(#filter0_d)">
<path d="M57.1797 130.333C56.3398 133.585 53.7129 135.216 49.2988 135.226L48.376 143.531C48.3467 143.766 48.2246 143.888 48.0098 143.897L44.9336 144.059C44.7188 144.039 44.6113 143.946 44.6113 143.78L47.1455 121.617C47.1846 121.412 47.3115 121.3 47.5264 121.28C49.3525 121.114 51.0957 121.031 52.7559 121.031C56.0566 121.031 57.707 122.613 57.707 125.777C57.707 127.506 57.5312 129.024 57.1797 130.333ZM50.5 124.444L49.665 131.842C51.3545 131.842 52.4922 131.49 53.0781 130.787C53.6641 130.084 53.957 128.717 53.957 126.686C53.957 125.904 53.7471 125.328 53.3271 124.957C52.9072 124.586 52.3701 124.4 51.7158 124.4C51.0615 124.4 50.6562 124.415 50.5 124.444ZM72.5459 126.671L70.6416 143.561C70.6123 143.814 70.4854 143.946 70.2607 143.956L67.3018 144.059C67.0967 144.039 66.9941 143.946 66.9941 143.78L67.2725 141.788C66.8232 142.55 66.3301 143.136 65.793 143.546C65.2656 143.956 64.6699 144.161 64.0059 144.161C63.3418 144.161 62.7754 144.049 62.3066 143.824C61.8379 143.59 61.4521 143.287 61.1494 142.916C60.8564 142.535 60.6172 142.081 60.4316 141.554C60.0898 140.616 59.9189 139.337 59.9189 137.716C59.9189 136.085 60.0264 134.703 60.2412 133.57C60.4658 132.438 60.6611 131.578 60.8271 130.992C60.9932 130.396 61.2129 129.786 61.4863 129.161C61.7695 128.536 62.0869 128.014 62.4385 127.594C63.2393 126.637 64.25 126.158 65.4707 126.158C66.3789 126.158 67.0723 126.378 67.5508 126.817C68.0293 127.247 68.4297 127.887 68.752 128.736L68.9277 126.744C68.9473 126.529 69.0693 126.412 69.2939 126.393L72.165 126.29C72.4189 126.31 72.5459 126.437 72.5459 126.671ZM63.6104 137.291C63.6104 139.625 64.2354 140.792 65.4854 140.792C66.0322 140.792 66.4766 140.543 66.8184 140.045C67.1602 139.537 67.4531 138.526 67.6973 137.013C67.9512 135.499 68.0781 134.396 68.0781 133.702C68.0781 133.009 68.0732 132.569 68.0635 132.384C68.0537 132.198 68.0342 131.954 68.0049 131.651C67.9756 131.339 67.9219 131.08 67.8438 130.875C67.7656 130.66 67.6631 130.445 67.5361 130.23C67.2822 129.811 66.8721 129.601 66.3057 129.601C65.7393 129.601 65.29 129.854 64.958 130.362C64.626 130.86 64.3672 131.529 64.1816 132.369C63.8008 134.166 63.6104 135.807 63.6104 137.291ZM74.2012 150.768L76.9258 126.759C76.9551 126.524 77.0771 126.402 77.292 126.393L80.2363 126.29C80.4512 126.31 80.5586 126.412 80.5586 126.598L80.2656 128.546C80.7148 127.774 81.2031 127.184 81.7305 126.773C82.2676 126.363 82.8682 126.158 83.5322 126.158C84.2061 126.158 84.7773 126.275 85.2461 126.51C85.7148 126.734 86.0957 127.037 86.3887 127.418C86.6914 127.789 86.9355 128.238 87.1211 128.766C87.4629 129.703 87.6338 130.987 87.6338 132.618C87.6338 134.239 87.5215 135.616 87.2969 136.749C87.082 137.882 86.8916 138.746 86.7256 139.342C86.5596 139.928 86.335 140.533 86.0518 141.158C85.7783 141.783 85.4658 142.306 85.1143 142.726C84.3135 143.683 83.3711 144.161 82.2871 144.161C81.2031 144.161 80.4219 143.932 79.9434 143.473C79.4648 143.014 79.0547 142.32 78.7129 141.393L77.8486 150.665C77.8389 150.899 77.7119 151.021 77.4678 151.031L74.5967 151.134C74.333 151.124 74.2012 151.002 74.2012 150.768ZM83.957 133.028C83.957 130.704 83.332 129.542 82.082 129.542C81.5156 129.542 81.0615 129.791 80.7197 130.289C80.3877 130.787 80.0947 131.808 79.8408 133.351C79.5967 134.894 79.4746 136.002 79.4746 136.676C79.4746 137.34 79.4795 137.765 79.4893 137.95C79.499 138.126 79.5186 138.37 79.5479 138.683C79.5771 138.995 79.6309 139.254 79.709 139.459C79.7871 139.664 79.8896 139.869 80.0166 140.074C80.2705 140.504 80.6807 140.719 81.2471 140.719C81.8135 140.719 82.2578 140.47 82.5801 139.972C82.9121 139.474 83.1709 138.795 83.3564 137.936C83.7568 136.1 83.957 134.464 83.957 133.028ZM91.4131 141.261C91.1885 140.675 91.0322 140.099 90.9443 139.532C90.8662 138.956 90.8271 138.17 90.8271 137.174C90.8271 136.178 90.9346 134.947 91.1494 133.482C91.8623 128.6 94.0791 126.158 97.7998 126.158C99.2354 126.158 100.334 126.651 101.096 127.638C101.857 128.624 102.238 129.903 102.238 131.476C102.238 133.048 102.141 134.576 101.945 136.061C101.916 136.324 101.765 136.461 101.491 136.471L94.2549 136.72C94.2451 136.866 94.2402 137.062 94.2402 137.306C94.2402 138.409 94.4307 139.283 94.8115 139.928C95.2021 140.572 95.7881 140.895 96.5693 140.895C97.3506 140.895 98.0732 140.782 98.7373 140.558C99.4111 140.323 99.8066 140.206 99.9238 140.206C100.041 140.206 100.144 140.245 100.231 140.323C100.319 140.401 100.363 140.509 100.363 140.646L100.07 143.224C100.061 143.37 100.031 143.468 99.9824 143.517C99.9434 143.556 99.8604 143.6 99.7334 143.648C98.5518 143.99 97.4141 144.161 96.3203 144.161C95.2266 144.161 94.377 144.029 93.7715 143.766C93.166 143.502 92.6777 143.165 92.3066 142.755C91.9453 142.335 91.6475 141.837 91.4131 141.261ZM94.6064 133.043L94.4746 133.98L98.2979 133.79C98.4639 133.78 98.5713 133.751 98.6201 133.702C98.7666 133.556 98.8398 133.155 98.8398 132.501C98.8398 131.837 98.8154 131.373 98.7666 131.109C98.7275 130.836 98.6543 130.558 98.5469 130.274C98.3223 129.649 97.9365 129.337 97.3896 129.337C96.8525 129.337 96.4277 129.43 96.1152 129.615C95.4219 130.045 94.9189 131.188 94.6064 133.043ZM114.909 130.025L113.342 129.864C112.072 129.864 111.008 130.118 110.148 130.626L108.698 143.546C108.659 143.79 108.537 143.922 108.332 143.941L105.373 144.059C105.158 144.039 105.051 143.946 105.051 143.78L106.984 126.744C107.023 126.529 107.146 126.412 107.351 126.393L110.207 126.29C110.471 126.3 110.603 126.427 110.603 126.671L110.427 128.18C111.052 127.545 111.657 127.052 112.243 126.7C112.829 126.339 113.415 126.158 114.001 126.158C114.597 126.158 115.051 126.183 115.363 126.231C115.568 126.271 115.671 126.407 115.671 126.642C115.671 127.315 115.559 128.316 115.334 129.645C115.285 129.898 115.144 130.025 114.909 130.025Z" fill="#362525"/>
</g>
<g filter="url(#filter1_d)">
<path d="M46.3078 40.2478C55.051 36.7388 69.3848 34.9184 69.3848 34.9184L110.223 29.3529L114.613 63.6469C114.613 63.6469 120.31 82.2322 126 91.7941C112.687 97.4902 85.7656 102.47 85.7656 102.47L52.5275 107L45.0176 48.335C45.0176 48.335 43.8205 43.6549 46.3084 40.2457L46.3078 40.2478Z" fill="#AEAEAD"/>
<path d="M34.1668 30.7441C45.8546 27.3689 61.5595 25.3075 61.5595 25.3075L109.15 19L114.266 57.8661C114.266 57.8661 116.018 73.108 122.649 83.9461C110.018 99.2169 80.6472 101.866 80.6472 101.866L41.9138 107L33.1623 40.5136C33.1623 40.5136 32.4036 34.1209 34.1668 30.7441Z" fill="url(#paint0_linear)" stroke="#362525" stroke-width="2"/>
<path d="M61.2541 53.4854L61.8107 56.2734L62.8117 53.5391C62.8377 53.4674 62.8784 53.43 62.9338 53.4268L63.9396 53.3926C63.9787 53.3958 64.0096 53.4089 64.0324 53.4316C64.0584 53.4544 64.0715 53.4788 64.0715 53.5049L62.2502 57.5771L61.8742 60.8633C61.8644 60.9414 61.8221 60.9821 61.7473 60.9854L60.7414 61.0195C60.6698 61.0195 60.634 60.9886 60.634 60.9268L61.0002 57.6846L60.0041 53.5049C60.0041 53.4593 60.048 53.4333 60.1359 53.4268L61.1271 53.3877C61.1987 53.391 61.2411 53.4235 61.2541 53.4854ZM65.9562 61.0537C65.3801 61.0537 64.9569 60.8812 64.6867 60.5361C64.4198 60.1878 64.2863 59.6816 64.2863 59.0176C64.2863 58.7083 64.3205 58.3047 64.3889 57.8066C64.4572 57.3086 64.5207 56.9473 64.5793 56.7227C64.6379 56.4948 64.7209 56.2734 64.8283 56.0586C64.9357 55.8405 65.0627 55.6615 65.2092 55.5215C65.5314 55.209 65.9676 55.0527 66.5178 55.0527C67.299 55.0527 67.8052 55.3392 68.0363 55.9121C68.16 56.2181 68.2219 56.5892 68.2219 57.0254C68.2219 57.4583 68.1877 57.9076 68.1193 58.373C68.0542 58.8385 67.9924 59.1836 67.9338 59.4082C67.8752 59.6296 67.7922 59.8477 67.6848 60.0625C67.5806 60.2741 67.4553 60.4499 67.3088 60.5898C66.9865 60.8991 66.5357 61.0537 65.9562 61.0537ZM66.8205 58.915C66.8563 58.7425 66.9019 58.4202 66.9572 57.9482C67.0158 57.473 67.0451 57.1214 67.0451 56.8936C67.0451 56.3402 66.8449 56.0635 66.4445 56.0635C66.2557 56.0635 66.0995 56.153 65.9758 56.332C65.8553 56.5111 65.7577 56.8089 65.6828 57.2256C65.5331 58.0719 65.4582 58.7588 65.4582 59.2861C65.4582 59.8135 65.6568 60.0771 66.0539 60.0771C66.2427 60.0771 66.3989 59.9876 66.5226 59.8086C66.6496 59.6263 66.7489 59.3285 66.8205 58.915ZM71.718 60.8975L71.757 60.5215C71.3631 60.8763 70.9172 61.0537 70.4191 61.0537C70.0448 61.0537 69.7681 60.917 69.589 60.6436C69.4133 60.3701 69.3254 60.0283 69.3254 59.6182C69.3254 59.5498 69.3319 59.457 69.3449 59.3398L69.8088 55.2529C69.8185 55.1748 69.8592 55.1341 69.9308 55.1309L70.9172 55.0918C70.9855 55.0983 71.0197 55.1325 71.0197 55.1943L70.5803 59.0469C70.5705 59.1315 70.5656 59.2096 70.5656 59.2812C70.5656 59.5547 70.6177 59.737 70.7219 59.8281C70.8293 59.9193 70.9888 59.9648 71.2004 59.9648C71.4152 59.9648 71.6268 59.9242 71.8351 59.8428L72.3527 55.2529C72.3625 55.1748 72.4032 55.1341 72.4748 55.1309L73.4611 55.0967C73.5295 55.1032 73.5637 55.1374 73.5637 55.1992L72.9289 60.8486C72.9191 60.9268 72.8752 60.9691 72.7971 60.9756L71.8449 61.0195C71.7603 61.0163 71.718 60.9756 71.718 60.8975ZM78.3928 60.9268L77.9826 55.082L77.6164 60.8584C77.6099 60.9398 77.5676 60.9821 77.4894 60.9854L76.5568 61.0195C76.4852 61.013 76.4494 60.9821 76.4494 60.9268L77.2892 53.5391C77.2958 53.5 77.3055 53.4723 77.3185 53.4561C77.3348 53.4398 77.3674 53.43 77.4162 53.4268L78.6467 53.3828C78.7248 53.3861 78.7671 53.4251 78.7736 53.5L79.218 59.3789L80.9123 53.5391C80.9286 53.4674 80.9741 53.43 81.049 53.4268L82.3332 53.3828C82.4146 53.3861 82.4553 53.4251 82.4553 53.5L81.6252 60.8633C81.6154 60.9414 81.5715 60.9821 81.4933 60.9854L80.4875 61.0195C80.4191 61.0195 80.3849 60.9886 80.3849 60.9268L81.3371 54.9746L79.589 60.8682C79.563 60.943 79.5158 60.9821 79.4474 60.9854L78.5002 61.0195C78.4351 61.013 78.3993 60.9821 78.3928 60.9268ZM85.6437 60.8975L85.6828 60.5215C85.2889 60.8763 84.843 61.0537 84.3449 61.0537C83.9706 61.0537 83.6939 60.917 83.5148 60.6436C83.339 60.3701 83.2512 60.0283 83.2512 59.6182C83.2512 59.5498 83.2577 59.457 83.2707 59.3398L83.7346 55.2529C83.7443 55.1748 83.785 55.1341 83.8566 55.1309L84.843 55.0918C84.9113 55.0983 84.9455 55.1325 84.9455 55.1943L84.506 59.0469C84.4963 59.1315 84.4914 59.2096 84.4914 59.2812C84.4914 59.5547 84.5435 59.737 84.6476 59.8281C84.7551 59.9193 84.9146 59.9648 85.1262 59.9648C85.341 59.9648 85.5526 59.9242 85.7609 59.8428L86.2785 55.2529C86.2883 55.1748 86.329 55.1341 86.4006 55.1309L87.3869 55.0967C87.4553 55.1032 87.4894 55.1374 87.4894 55.1992L86.8547 60.8486C86.8449 60.9268 86.801 60.9691 86.7228 60.9756L85.7707 61.0195C85.6861 61.0163 85.6437 60.9756 85.6437 60.8975ZM90.9758 56.2344L90.424 56.21C90.2678 56.21 90.1441 56.2458 90.0529 56.3174C89.965 56.389 89.9211 56.4932 89.9211 56.6299C89.9211 56.7633 89.9455 56.9115 89.9943 57.0742C90.0594 57.2923 90.1717 57.5462 90.3312 57.8359C90.494 58.1257 90.6063 58.3307 90.6681 58.4512C90.857 58.8255 90.9514 59.182 90.9514 59.5205C90.9514 60.012 90.8065 60.3913 90.5168 60.6582C90.2303 60.9219 89.7941 61.0537 89.2082 61.0537C88.9185 61.0537 88.6874 61.0374 88.5148 61.0049C88.3423 60.9756 88.2463 60.9528 88.2267 60.9365C88.2105 60.917 88.2023 60.8877 88.2023 60.8486L88.3293 59.9453C88.3358 59.8639 88.3635 59.8232 88.4123 59.8232C88.4644 59.8232 88.562 59.8411 88.7053 59.877C88.8485 59.9128 88.9738 59.9307 89.0812 59.9307C89.4784 59.9307 89.6769 59.7728 89.6769 59.457C89.6769 59.2324 89.6281 59.0225 89.5305 58.8271C89.4361 58.6318 89.3319 58.43 89.218 58.2217C89.1073 58.0133 89.021 57.8473 88.9592 57.7236C88.8973 57.5967 88.8322 57.4225 88.7639 57.2012C88.6987 56.9798 88.6662 56.7715 88.6662 56.5762C88.6662 56.1204 88.8013 55.7526 89.0715 55.4727C89.3449 55.1927 89.742 55.0527 90.2629 55.0527C90.5982 55.0527 90.8602 55.069 91.049 55.1016C91.1304 55.1146 91.1711 55.1569 91.1711 55.2285L91.0637 56.0977C91.0637 56.1888 91.0344 56.2344 90.9758 56.2344ZM92.7287 55.1162C92.8036 54.4001 92.8524 54.0306 92.8752 54.0078C92.898 53.9818 92.9321 53.9671 92.9777 53.9639L93.9103 53.9297C93.9982 53.9362 94.0422 53.9769 94.0422 54.0518C93.9803 54.4131 93.9282 54.7598 93.8859 55.0918L95.0236 55.0527C95.1017 55.056 95.1408 55.0983 95.1408 55.1797L95.0041 55.9561C94.9911 56.0342 94.9504 56.0749 94.882 56.0781L93.7639 56.1221C93.5425 58.1143 93.4318 59.2129 93.4318 59.418C93.4318 59.7988 93.5946 59.9893 93.9201 59.9893C94.0861 59.9893 94.2472 59.9632 94.4035 59.9111C94.5597 59.859 94.6574 59.833 94.6965 59.833C94.7648 59.833 94.799 59.8753 94.799 59.96L94.6965 60.8145C94.69 60.8633 94.6769 60.8991 94.6574 60.9219C94.6411 60.9447 94.5614 60.9723 94.4181 61.0049C94.2782 61.0374 94.0373 61.0537 93.6955 61.0537C93.1942 61.0537 92.8231 60.9382 92.5822 60.707C92.3413 60.4727 92.2209 60.1243 92.2209 59.6621C92.2209 59.1999 92.3495 58.0247 92.6066 56.1367L92.1281 56.1562C92.0467 56.153 92.006 56.1123 92.006 56.0342L92.1379 55.248C92.1476 55.1732 92.19 55.1341 92.2648 55.1309L92.7287 55.1162ZM74.2228 69.4443C73.9429 70.5283 73.0672 71.0719 71.5959 71.0752L71.2883 73.8438C71.2785 73.9219 71.2378 73.9626 71.1662 73.9658L70.1408 74.0195C70.0692 74.013 70.0334 73.9821 70.0334 73.9268L70.8781 66.5391C70.8911 66.4707 70.9334 66.4333 71.0051 66.4268C71.6138 66.3714 72.1948 66.3438 72.7482 66.3438C73.8485 66.3438 74.3986 66.8711 74.3986 67.9258C74.3986 68.502 74.34 69.0081 74.2228 69.4443ZM71.9963 67.4814L71.718 69.9473C72.2811 69.9473 72.6603 69.8301 72.8556 69.5957C73.051 69.3613 73.1486 68.9056 73.1486 68.2285C73.1486 67.9681 73.0786 67.776 72.9387 67.6523C72.7987 67.5286 72.6196 67.4668 72.4015 67.4668C72.1834 67.4668 72.0484 67.4717 71.9963 67.4814ZM77.1281 65.8701L76.2297 73.8486C76.2232 73.8942 76.2118 73.9268 76.1955 73.9463C76.1792 73.9658 76.1483 73.9772 76.1027 73.9805L75.1213 74.0195C75.0497 74.013 75.0139 73.9821 75.0139 73.9268L75.9172 65.9043C75.9237 65.8587 75.9351 65.8262 75.9514 65.8066C75.9676 65.7871 75.9986 65.7757 76.0441 65.7725L77.0012 65.7383C77.0858 65.748 77.1281 65.792 77.1281 65.8701ZM82.0109 68.2236L81.3762 73.8535C81.3664 73.9382 81.3241 73.9821 81.2492 73.9854L80.2629 74.0195C80.1945 74.013 80.1603 73.9821 80.1603 73.9268L80.2531 73.2627C80.1034 73.5166 79.939 73.7119 79.7599 73.8486C79.5842 73.9854 79.3856 74.0537 79.1642 74.0537C78.9429 74.0537 78.7541 74.0163 78.5978 73.9414C78.4416 73.8633 78.313 73.7624 78.2121 73.6387C78.1144 73.5117 78.0347 73.3604 77.9728 73.1846C77.8589 72.8721 77.8019 72.4456 77.8019 71.9053C77.8019 71.3617 77.8377 70.901 77.9094 70.5234C77.9842 70.1458 78.0493 69.8594 78.1047 69.6641C78.16 69.4655 78.2333 69.262 78.3244 69.0537C78.4188 68.8454 78.5246 68.6712 78.6418 68.5312C78.9087 68.2122 79.2456 68.0527 79.6525 68.0527C79.9553 68.0527 80.1864 68.126 80.3459 68.2725C80.5054 68.4157 80.6389 68.6289 80.7463 68.9121L80.8049 68.248C80.8114 68.1764 80.8521 68.1374 80.9269 68.1309L81.884 68.0967C81.9686 68.1032 82.0109 68.1455 82.0109 68.2236ZM79.0324 71.7637C79.0324 72.5417 79.2407 72.9307 79.6574 72.9307C79.8397 72.9307 79.9878 72.8477 80.1017 72.6816C80.2157 72.5124 80.3133 72.1755 80.3947 71.6709C80.4793 71.1663 80.5217 70.7985 80.5217 70.5674C80.5217 70.3363 80.52 70.1898 80.5168 70.1279C80.5135 70.0661 80.507 69.9847 80.4973 69.8838C80.4875 69.7796 80.4696 69.6934 80.4435 69.625C80.4175 69.5534 80.3833 69.4818 80.341 69.4102C80.2564 69.2702 80.1196 69.2002 79.9308 69.2002C79.742 69.2002 79.5923 69.2848 79.4816 69.4541C79.3709 69.6201 79.2847 69.8431 79.2228 70.123C79.0959 70.722 79.0324 71.2689 79.0324 71.7637ZM87.0451 68.2236L84.2277 76.2168C84.2017 76.2982 84.1545 76.3405 84.0861 76.3438L83.1047 76.3779C83.0331 76.3747 82.9973 76.3421 82.9973 76.2803L83.8371 73.9121L83.0754 68.248C83.0754 68.1732 83.1161 68.1341 83.1974 68.1309L84.1594 68.0967C84.2342 68.0999 84.2749 68.1423 84.2814 68.2236L84.6525 72.3301L85.839 68.248C85.8586 68.1732 85.9009 68.1341 85.966 68.1309L86.923 68.0967C87.0044 68.1032 87.0451 68.1455 87.0451 68.2236Z" fill="#362525"/>
</g>
<defs>
<filter id="filter0_d" x="40.6113" y="119.031" width="79.0596" height="38.1025" filterUnits="userSpaceOnUse" color-interpolation-filters="sRGB">
<feFlood flood-opacity="0" result="BackgroundImageFix"/>
<feColorMatrix in="SourceAlpha" type="matrix" values="0 0 0 0 0 0 0 0 0 0 0 0 0 0 0 0 0 0 127 0"/>
<feOffset dy="2"/>
<feGaussianBlur stdDeviation="2"/>
<feColorMatrix type="matrix" values="0 0 0 0 0 0 0 0 0 0 0 0 0 0 0 0 0 0 0.25 0"/>
<feBlend mode="normal" in2="BackgroundImageFix" result="effect1_dropShadow"/>
<feBlend mode="normal" in="SourceGraphic" in2="effect1_dropShadow" result="shape"/>
</filter>
<filter id="filter1_d" x="28" y="17.8772" width="102" height="98.2457" filterUnits="userSpaceOnUse" color-interpolation-filters="sRGB">
<feFlood flood-opacity="0" result="BackgroundImageFix"/>
<feColorMatrix in="SourceAlpha" type="matrix" values="0 0 0 0 0 0 0 0 0 0 0 0 0 0 0 0 0 0 127 0"/>
<feOffset dy="4"/>
<feGaussianBlur stdDeviation="2"/>
<feColorMatrix type="matrix" values="0 0 0 0 0 0 0 0 0 0 0 0 0 0 0 0 0 0 0.25 0"/>
<feBlend mode="normal" in2="BackgroundImageFix" result="effect1_dropShadow"/>
<feBlend mode="normal" in="SourceGraphic" in2="effect1_dropShadow" result="shape"/>
</filter>
<linearGradient id="paint0_linear" x1="38.8461" y1="31.4049" x2="41.7289" y2="37.9935" gradientUnits="userSpaceOnUse">
<stop stop-color="#CCCCCC"/>
<stop offset="1" stop-color="#DEDDC4"/>
</linearGradient>
</defs>
</svg>
