<svg width="160" height="160" viewBox="0 0 160 160" fill="none" xmlns="http://www.w3.org/2000/svg">
<rect x="0.5" y="0.5" width="159" height="159" rx="7.5" fill="#CC9D9D" stroke="black"/>
<g filter="url(#filter0_d)">
<path d="M114.136 43.6363L114.123 43.6216L97.6796 24.7341C95.6452 23.6052 92.9797 23.3269 90.049 23.594C87.0916 23.8635 83.9243 24.6827 80.9837 25.6696C78.046 26.6554 75.3517 27.8029 73.3434 28.7193C72.3398 29.1773 71.5084 29.5772 70.9037 29.8703C70.8175 29.9121 70.7357 29.9518 70.6584 29.9893C70.4657 30.0829 70.3015 30.1626 70.1707 30.225C70.0364 30.2892 69.9036 30.352 69.8102 30.3876C68.4781 31.0689 66.7048 31.6627 64.7364 32.3047C64.5768 32.3567 64.4157 32.4091 64.2533 32.462C62.3834 33.0706 60.3345 33.7375 58.2475 34.5786C53.713 36.4062 49.057 39.0349 45.8116 43.5785C44.6378 45.318 43.5686 47.4648 42.4483 49.9307C41.9652 50.9941 41.4663 52.1315 40.9454 53.3192C40.2732 54.8515 39.5644 56.4676 38.8053 58.1166C36.0844 64.0271 32.5755 70.6875 27.036 77.1816C25.0613 79.4966 23.5383 81.5522 22.4601 83.3501C21.3789 85.1528 20.7612 86.6695 20.5671 87.9104C20.3749 89.1387 20.6003 90.0652 21.1695 90.7602C21.7507 91.4699 22.7523 92.0145 24.265 92.3348L24.27 92.3359C24.5545 92.3992 24.8587 92.4564 25.199 92.5203C26.0124 92.6731 27.0315 92.8646 28.4768 93.2707C30.5363 93.8493 33.4978 94.8696 38.1568 96.8638C46.6658 98.8657 59.351 101.757 69.62 101.975C69.6204 101.975 69.6207 101.975 69.621 101.975L69.6104 102.475C73.4836 102.542 77.1724 102.737 80.6769 102.922C88.5414 103.338 95.4776 103.704 101.486 102.475L114.136 43.6363ZM114.136 43.6363L114.15 43.6499C120.226 49.6203 123.18 53.6218 124.869 56.717C125.713 58.2637 126.246 59.5932 126.696 60.845C126.833 61.2244 126.963 61.6011 127.093 61.9767C127.387 62.8281 127.68 63.6736 128.038 64.5307L114.136 43.6363Z" fill="#616161" stroke="black"/>
<path d="M129.94 91.0431L129.94 91.0429L129.93 91.0486C126.54 92.8866 121.3 95.2549 116.071 97.3446C110.836 99.4365 105.651 101.233 102.364 101.943L102.361 101.943C94.9658 103.576 80.5446 103.997 69.7492 103.793C60.8974 103.59 52.2481 102.347 44.915 100.455C44.1324 100.253 42.6301 99.7397 41.2667 99.0932C40.5852 98.77 39.9553 98.4214 39.4723 98.0717C38.9679 97.7064 38.7078 97.3987 38.6358 97.1825L38.6245 97.1488L38.6086 97.117C38.5592 97.0181 38.5262 96.8108 38.6087 96.4245C38.6887 96.0504 38.8614 95.5791 39.1253 95.0118C39.6525 93.8786 40.5021 92.4478 41.5444 90.789C42.0679 89.9558 42.6386 89.0674 43.2372 88.1357C45.0079 85.3795 47.0218 82.2446 48.7765 79.0399C52.2803 72.641 52.4354 65.2712 52.2571 58.7677C52.2339 57.9209 52.205 57.0903 52.1769 56.2785C52.0961 53.9517 52.0207 51.7789 52.098 49.8203C52.2023 47.1765 52.5844 45.0269 53.54 43.4964C56.3144 39.3055 60.5831 36.8753 64.768 35.1815C66.6235 34.4306 68.4479 33.8299 70.1119 33.2819C70.3246 33.2119 70.5347 33.1427 70.7419 33.0742C72.5375 32.4804 74.1449 31.9277 75.3023 31.2902C75.3487 31.2705 75.3934 31.2474 75.4251 31.2308C75.4821 31.2011 75.5525 31.1624 75.6332 31.1172C75.7721 31.0395 75.9529 30.9359 76.1687 30.8123L76.2778 30.7498C76.8089 30.4457 77.5387 30.0293 78.4196 29.5499C80.1824 28.5907 82.5457 27.3817 85.117 26.3228C87.6917 25.2624 90.4552 24.3608 93.0215 24.004C95.5788 23.6485 97.8697 23.8436 99.5876 24.8818L114.733 38.2915C119.957 43.8309 124.086 48.5418 127.126 52.428C130.174 56.3258 132.1 59.3613 132.949 61.5529C135.418 68.1616 137.58 74.0572 137.659 79.0632C137.698 81.5485 137.222 83.7881 136.027 85.7739C134.831 87.7604 132.892 89.533 129.94 91.0431Z" fill="#989898" stroke="black"/>
<path d="M71.2343 57.1482C71.2343 59.1494 71.4599 61.0499 71.6918 62.7576C71.7305 63.0425 71.7692 63.3211 71.807 63.5935C71.9981 64.9691 72.1669 66.1842 72.1981 67.231C72.2357 68.494 72.0648 69.38 71.6033 69.9543C71.1605 70.5055 70.35 70.8864 68.8003 70.8864C67.34 70.8864 65.8508 70.1991 64.4149 68.979C62.9815 67.7611 61.6379 66.0419 60.4822 64.0605C58.1666 60.0901 56.6614 55.1649 56.6614 51.3407C56.6614 50.3972 56.8081 49.8353 57.0095 49.4964C57.196 49.1827 57.4559 49.0155 57.8231 48.9225C58.2167 48.8229 58.7035 48.8161 59.3118 48.8286C59.3939 48.8302 59.4779 48.8323 59.5636 48.8343C60.0907 48.8469 60.6828 48.8611 61.2864 48.8091C62.7262 48.6848 64.2752 48.1807 65.5795 46.439C66.8145 44.79 67.7987 42.072 68.3395 37.6248C68.8629 37.6799 69.2943 37.834 69.6545 38.0631C70.1137 38.3551 70.4878 38.7884 70.7882 39.361C71.3977 40.5229 71.6726 42.1977 71.7465 44.1949C71.82 46.1802 71.694 48.4161 71.5472 50.666C71.5302 50.9274 71.5128 51.189 71.4955 51.4503C71.3645 53.428 71.2343 55.3935 71.2343 57.1482Z" fill="#737373" stroke="black"/>
<path d="M44.1543 69.5284C44.1543 70.176 44.2979 70.7801 44.4336 71.2876C44.4581 71.3793 44.4818 71.4664 44.5044 71.5493C44.6148 71.9543 44.6978 72.2592 44.7131 72.5188C44.7215 72.6621 44.7048 72.7509 44.6809 72.8082C44.6605 72.8569 44.6245 72.9091 44.537 72.9644C44.3302 73.0952 43.8804 73.2161 42.9558 73.2161C41.157 73.2161 39.5524 72.7657 38.4138 72.0639C37.2672 71.3572 36.6614 70.4468 36.6614 69.5284C36.6614 69.3492 36.7096 69.3071 36.7285 69.2909C36.7726 69.2532 36.8783 69.2011 37.1162 69.1705C37.3479 69.1407 37.6339 69.1388 37.9861 69.1425C38.0338 69.143 38.0825 69.1436 38.1322 69.1442C38.4375 69.1479 38.7781 69.152 39.1255 69.1368C39.9329 69.1014 40.8553 68.9603 41.663 68.4124C42.4083 67.9068 42.9993 67.0946 43.3448 65.8486C44.0113 65.8776 44.3616 65.9815 44.537 66.0924C44.6245 66.1477 44.6605 66.1999 44.6809 66.2486C44.7048 66.3058 44.7215 66.3947 44.7131 66.538C44.6978 66.7976 44.6148 67.1025 44.5044 67.5075C44.4818 67.5904 44.4581 67.6775 44.4336 67.7692C44.2979 68.2767 44.1543 68.8808 44.1543 69.5284Z" fill="#A3A3A3" stroke="black"/>
<path d="M113.619 83.5309C113.619 83.9565 113.806 84.3299 113.94 84.5816C113.968 84.6339 113.993 84.6794 114.016 84.721C114.056 84.7948 114.09 84.8562 114.122 84.9209C114.131 84.9404 114.139 84.9581 114.146 84.974C114.138 84.9771 114.128 84.9802 114.118 84.9834C113.863 85.064 113.357 85.1247 112.42 85.1247C110.58 85.1247 108.933 84.8942 107.763 84.5336C107.175 84.3524 106.736 84.1469 106.454 83.9418C106.29 83.822 106.207 83.7237 106.165 83.6512C106.25 83.6317 106.375 83.6141 106.549 83.6029C106.8 83.5868 107.103 83.5861 107.453 83.5879C107.502 83.5882 107.551 83.5885 107.601 83.5888C107.907 83.5906 108.239 83.5926 108.579 83.5852C109.364 83.568 110.239 83.5002 111.008 83.2395C111.691 83.0077 112.324 82.6111 112.723 81.9393C113.469 81.9511 113.892 82.0069 114.118 82.0783C114.128 82.0815 114.138 82.0847 114.146 82.0877C114.139 82.1036 114.131 82.1213 114.122 82.1408C114.09 82.2055 114.056 82.2669 114.016 82.3407C113.993 82.3823 113.968 82.4278 113.94 82.4801C113.806 82.7318 113.619 83.1052 113.619 83.5309Z" fill="#686868" stroke="black"/>
<path d="M65.5593 84.0851C63.5781 84.5927 61.9008 85.7274 60.4103 87.0217C59.4627 87.8446 58.5571 88.7648 57.697 89.6386C57.2221 90.1211 56.7612 90.5895 56.3147 91.0196C55.0235 92.2633 53.8273 93.2174 52.5834 93.5905C51.4256 93.9377 50.1619 93.7986 48.6453 92.7316C48.3509 91.332 48.6499 89.8275 49.4187 88.2952C50.2201 86.6979 51.518 85.1012 53.1143 83.6243C56.3109 80.6669 60.6238 78.2631 64.2815 77.326C65.9995 76.8859 67.4721 77.2418 69.0387 78.0392C69.8286 78.4413 70.6335 78.9513 71.5033 79.525C71.7176 79.6664 71.9361 79.8117 72.1589 79.96C72.8335 80.4089 73.5479 80.8843 74.3081 81.3553C78.3245 83.8438 83.6968 86.2581 92.7437 85.1298C92.7495 85.268 92.7369 85.3852 92.712 85.4845C92.6661 85.6678 92.5716 85.8179 92.4198 85.9481C92.0928 86.2285 91.4866 86.4263 90.5536 86.4993C88.7083 86.6435 85.987 86.2765 82.9106 85.7549C81.9634 85.5944 80.9845 85.4195 79.9931 85.2425C77.7957 84.85 75.5371 84.4467 73.4271 84.1634C70.3796 83.7542 67.5375 83.5783 65.5593 84.0851Z" fill="#737373" stroke="black"/>
<path d="M78.351 96.8181C79.1881 96.549 79.7922 95.8746 80.2629 95.1816C80.5634 94.7393 80.8487 94.2244 81.1103 93.7522C81.2494 93.5011 81.3818 93.2621 81.5063 93.0525C81.6964 92.7324 81.8758 92.4632 82.0558 92.2562C82.2368 92.048 82.3949 91.93 82.5344 91.8751C82.7348 91.7964 83.0827 91.7832 83.7146 92.3787C83.89 93.0686 83.7326 93.7853 83.301 94.5257C82.8411 95.3145 82.0893 96.0925 81.1914 96.8102C79.3946 98.2465 77.1268 99.3522 75.8371 99.7668C75.586 99.8475 75.4299 99.83 75.3189 99.7874C75.1974 99.7408 75.0659 99.6392 74.9115 99.4432C74.7555 99.2452 74.6041 98.988 74.4261 98.6689C74.3957 98.6143 74.3645 98.5579 74.3326 98.5002C74.1841 98.2318 74.0189 97.9334 73.8322 97.637C73.3737 96.9089 72.7534 96.1383 71.7671 95.6207C71.5447 95.504 71.3065 95.4016 71.0507 95.3157C71.1675 95.3506 71.2861 95.3867 71.4064 95.4237C71.7712 95.5362 72.1525 95.6583 72.5409 95.7828C73.4115 96.0618 74.3175 96.352 75.151 96.569C75.758 96.727 76.3473 96.852 76.8798 96.9082C77.4044 96.9636 77.9177 96.9574 78.351 96.8181ZM69.7558 94.9693C70.0304 95.0304 70.3254 95.1072 70.6365 95.1951C69.9418 95.0225 69.1284 94.9624 68.1673 95.0493C68.1674 94.9557 68.1887 94.9204 68.1917 94.9161C68.1953 94.9108 68.2558 94.8321 68.5644 94.8185C68.8566 94.8057 69.2569 94.8581 69.7558 94.9693Z" fill="#494949" stroke="black"/>
<path d="M117.632 57.1482C117.632 58.1246 117.792 59.0459 117.952 59.8531C117.979 59.9918 118.006 60.126 118.033 60.2559C118.163 60.9036 118.272 61.4438 118.292 61.9076C118.316 62.4513 118.209 62.7501 117.984 62.9421C117.729 63.1606 117.204 63.3485 116.125 63.3485C115.222 63.3485 114.083 62.7079 112.829 61.5195C111.598 60.3533 110.346 58.746 109.221 57.0078C108.097 55.2719 107.111 53.4232 106.408 51.7855C105.696 50.1262 105.303 48.7503 105.303 47.9352C105.303 47.9189 105.303 47.9039 105.304 47.8899C105.349 47.9111 105.403 47.9399 105.469 47.979C105.633 48.0775 105.831 48.2189 106.06 48.4006C106.519 48.7645 107.064 49.2549 107.672 49.804L107.701 49.83C108.296 50.3672 108.946 50.9532 109.607 51.5011C110.279 52.0571 110.976 52.5841 111.657 52.9885C112.332 53.3889 113.031 53.6928 113.702 53.7586C114.4 53.827 115.066 53.6347 115.594 53.0632C116.033 52.5886 116.343 51.8878 116.539 50.958C117.343 51 117.764 51.1657 117.984 51.3542C118.209 51.5462 118.316 51.845 118.292 52.3887C118.272 52.8525 118.163 53.3927 118.033 54.0404C118.006 54.1703 117.979 54.3045 117.952 54.4432C117.792 55.2504 117.632 56.1717 117.632 57.1482Z" fill="#A7A7A7" stroke="black"/>
<path d="M103.09 91.9608C103.09 92.3409 103.21 92.683 103.305 92.9329C103.324 92.9823 103.341 93.026 103.357 93.0663C103.385 93.1393 103.41 93.2012 103.432 93.2656C103.451 93.3202 103.463 93.3611 103.47 93.3916C103.33 93.4458 103.023 93.5001 102.409 93.5001C101.865 93.5001 101.202 93.3029 100.488 92.9528C99.7812 92.6062 99.0609 92.1279 98.4131 91.6102C97.765 91.0922 97.2027 90.5454 96.8078 90.0695C96.6799 89.9154 96.5729 89.7726 96.4873 89.6442C96.752 89.7529 97.0662 89.8993 97.4225 90.0657L97.4403 90.074C97.7899 90.2372 98.1742 90.4167 98.566 90.5845C99.348 90.9194 100.226 91.2385 100.987 91.2771C101.374 91.2967 101.775 91.2468 102.125 91.0506C102.384 90.9057 102.589 90.6957 102.736 90.4274C103.137 90.4429 103.358 90.4865 103.47 90.5301C103.463 90.5605 103.451 90.6015 103.432 90.6561C103.41 90.7205 103.385 90.7824 103.357 90.8554C103.341 90.8957 103.324 90.9394 103.305 90.9888C103.21 91.2387 103.09 91.5808 103.09 91.9608ZM95.9523 89.4749C95.9522 89.4748 95.9543 89.4746 95.9589 89.4749C95.9547 89.4751 95.9524 89.475 95.9523 89.4749Z" fill="#5D5D5D" stroke="black"/>
<path d="M33.5022 86.3267C33.5022 86.7067 33.6221 87.0488 33.7174 87.2987C33.7363 87.3481 33.7534 87.3918 33.7691 87.4321C33.7976 87.5051 33.8218 87.567 33.8443 87.6314C33.8633 87.686 33.8753 87.7269 33.8825 87.7574C33.7425 87.8116 33.4352 87.8659 32.8214 87.8659C32.2774 87.8659 31.6145 87.6687 30.9004 87.3186C30.1934 86.972 29.4731 86.4938 28.8253 85.976C28.1772 85.4581 27.6149 84.9112 27.22 84.4353C27.0921 84.2812 26.9851 84.1385 26.8995 84.01C27.1642 84.1187 27.4785 84.2651 27.8347 84.4315L27.8525 84.4398C28.2021 84.6031 28.5864 84.7825 28.9783 84.9503C29.7602 85.2853 30.6385 85.6043 31.3996 85.6429C31.7864 85.6625 32.1869 85.6126 32.5373 85.4164C32.7961 85.2715 33.0013 85.0615 33.1483 84.7932C33.5494 84.8087 33.77 84.8523 33.8825 84.8959C33.8753 84.9264 33.8633 84.9673 33.8443 85.0219C33.8218 85.0863 33.7976 85.1482 33.7691 85.2212C33.7534 85.2615 33.7363 85.3052 33.7174 85.3546C33.6221 85.6045 33.5022 85.9466 33.5022 86.3267ZM26.3645 83.8407C26.3644 83.8406 26.3665 83.8405 26.3711 83.8407C26.3669 83.8409 26.3646 83.8408 26.3645 83.8407Z" fill="#828282" stroke="black"/>
<path d="M88.7453 59.1628C87.4556 59.369 86.272 59.7924 85.2316 60.194C85.0543 60.2624 84.8824 60.3296 84.7156 60.3949C83.8802 60.7216 83.1709 60.999 82.5447 61.1294C81.8139 61.2816 81.3304 61.2038 80.9593 60.8614C80.5484 60.4822 80.1672 59.6873 79.924 58.1123C78.9588 51.8618 82.1057 46.4003 86.6619 45.6717C87.2025 45.5853 87.5025 45.6697 87.6873 45.7947C87.8798 45.925 88.0383 46.1602 88.1684 46.5617C88.299 46.9648 88.3801 47.4675 88.4647 48.0672C88.4763 48.1494 88.488 48.2331 88.4998 48.3183C88.5723 48.8403 88.6521 49.4153 88.7746 49.9953C89.0609 51.3511 89.5945 52.8123 90.9008 53.9364C92.1455 55.0074 94.0253 55.7159 96.8819 55.8203C97.0444 57.1401 96.9197 57.9047 96.6679 58.3496C96.4179 58.7913 95.9812 59.0162 95.2397 59.0995C94.6044 59.1708 93.8457 59.1282 92.9521 59.0779C92.7736 59.0678 92.5897 59.0575 92.4004 59.0477C91.2891 58.9902 90.0349 58.9566 88.7453 59.1628Z" fill="#B0B0B0" stroke="black"/>
<path d="M97.9368 31.1842C97.9368 33.2717 98.9207 34.7996 100.191 35.8951C101.206 36.7703 102.413 37.3796 103.477 37.8036C103.373 37.8035 103.267 37.8034 103.157 37.8034C98.4239 37.8034 96.1109 40.1061 95.0061 41.6865C95.0107 41.3266 95.0146 40.8989 95.0146 40.3973C95.0146 39.4022 94.8152 38.6463 94.3203 38.1898C93.8099 37.7189 93.1321 37.6968 92.5134 37.8074C91.8889 37.919 91.192 38.189 90.5142 38.4694C90.3624 38.5322 90.211 38.5957 90.0603 38.659C89.5191 38.8863 88.9858 39.1102 88.4641 39.2861C87.7945 39.5118 87.2094 39.6342 86.7286 39.594C86.2786 39.5564 85.9196 39.3786 85.6421 38.9596C85.3446 38.5102 85.1152 37.7435 85.0689 36.479C85.0257 35.3004 85.1429 33.735 85.4741 31.6793C89.5197 31.5853 92.5487 30.167 94.6208 29.1968C94.9466 29.0442 95.2487 28.9028 95.5274 28.7793C96.0628 28.542 96.481 28.3844 96.8126 28.3214C97.1399 28.2593 97.3025 28.3045 97.4006 28.3734C97.5093 28.4498 97.655 28.6365 97.7667 29.1082C97.877 29.5738 97.9368 30.244 97.9368 31.1842Z" fill="#C4C4C4" stroke="black"/>
<path d="M104.187 66.4031C104.187 68.4906 105.171 70.0185 106.441 71.114C107.456 71.9892 108.663 72.5985 109.727 73.0225C109.624 73.0224 109.517 73.0223 109.407 73.0223C104.674 73.0223 102.361 75.325 101.257 76.9054C101.261 76.5455 101.265 76.1178 101.265 75.6162C101.265 74.6211 101.066 73.8652 100.571 73.4087C100.06 72.9378 99.3826 72.9157 98.7639 73.0263C98.1393 73.1379 97.4424 73.4079 96.7647 73.6883C96.6128 73.7511 96.4615 73.8146 96.3108 73.8779C95.7695 74.1052 95.2363 74.3291 94.7145 74.505C94.045 74.7307 93.4599 74.8531 92.979 74.8129C92.5291 74.7753 92.1701 74.5975 91.8926 74.1785C91.595 73.7291 91.3656 72.9624 91.3193 71.6979C91.2762 70.5193 91.3934 68.9539 91.7246 66.8982C95.7702 66.8042 98.7992 65.3859 100.871 64.4157C101.197 64.2631 101.499 64.1217 101.778 63.9982C102.313 63.7609 102.731 63.6033 103.063 63.5403C103.39 63.4782 103.553 63.5234 103.651 63.5923C103.76 63.6687 103.906 63.8554 104.017 64.3271C104.127 64.7927 104.187 65.4629 104.187 66.4031Z" fill="#6D6D6D" stroke="black"/>
<path d="M125.886 73.7385C126.777 74.1496 127.702 74.3388 128.512 74.4798C128.654 74.5044 128.79 74.5274 128.921 74.5495C129.572 74.6594 130.099 74.7483 130.512 74.9104C130.748 75.0031 130.908 75.1068 131.016 75.2223C131.116 75.3309 131.192 75.473 131.223 75.6878C131.291 76.1548 131.148 76.9406 130.556 78.2686C129.394 80.8786 127.696 82.9176 125.915 84.1143C124.128 85.3158 122.329 85.6286 120.886 84.9629C120.57 84.8171 120.468 84.662 120.428 84.5255C120.379 84.3578 120.389 84.1085 120.502 83.7306C120.613 83.3586 120.801 82.9319 121.029 82.4329C121.061 82.3644 121.093 82.2946 121.126 82.2237C121.325 81.7896 121.545 81.3132 121.741 80.8146C122.197 79.6547 122.56 78.3014 122.303 76.8615C122.058 75.4918 121.266 74.1179 119.625 72.7915C120.142 71.7065 120.574 71.17 120.927 70.9386C121.107 70.821 121.262 70.7852 121.408 70.7907C121.564 70.7966 121.747 70.8509 121.971 70.9705C122.363 71.1796 122.776 71.5243 123.286 71.95C123.389 72.0359 123.496 72.125 123.607 72.2171C124.245 72.7439 124.995 73.3274 125.886 73.7385Z" fill="#A6A6A6" stroke="black"/>
</g>
<g filter="url(#filter1_d)">
<path d="M64.0771 144.648C64.0771 144.844 63.9453 144.941 63.6816 144.941L60.3857 145.059C60.2393 145.049 60.1318 144.956 60.0635 144.78L56.3867 135.464L55.3613 144.59C55.332 144.824 55.21 144.946 54.9951 144.956L51.9336 145.059C51.7188 145.039 51.6113 144.946 51.6113 144.78L54.1455 122.734C54.165 122.559 54.209 122.441 54.2773 122.383C54.3457 122.314 54.8633 122.241 55.8301 122.163C56.7969 122.075 58.0859 122.031 59.6973 122.031C61.3086 122.031 62.5488 122.461 63.418 123.32C64.2969 124.17 64.7363 125.269 64.7363 126.616C64.7363 127.964 64.5752 129.155 64.2529 130.19C63.9307 131.216 63.3984 132.139 62.6562 132.959C61.9141 133.779 60.9863 134.39 59.873 134.79L64.0332 144.473C64.0625 144.531 64.0771 144.59 64.0771 144.648ZM57.5146 125.444L56.6943 132.725C58.501 132.617 59.7461 131.797 60.4297 130.264C60.8008 129.424 60.9863 128.574 60.9863 127.715C60.9863 126.846 60.8057 126.24 60.4443 125.898C60.0928 125.547 59.5801 125.371 58.9062 125.371C58.2324 125.371 57.7686 125.396 57.5146 125.444ZM72.0459 145.161C70.3174 145.161 69.0479 144.644 68.2373 143.608C67.4365 142.563 67.0361 141.045 67.0361 139.053C67.0361 138.125 67.1387 136.914 67.3438 135.42C67.5488 133.926 67.7393 132.842 67.915 132.168C68.0908 131.484 68.3398 130.82 68.6621 130.176C68.9844 129.521 69.3652 128.984 69.8047 128.564C70.7715 127.627 72.0801 127.158 73.7305 127.158C76.0742 127.158 77.5928 128.018 78.2861 129.736C78.6572 130.654 78.8428 131.768 78.8428 133.076C78.8428 134.375 78.7402 135.723 78.5352 137.119C78.3398 138.516 78.1543 139.551 77.9785 140.225C77.8027 140.889 77.5537 141.543 77.2314 142.188C76.9189 142.822 76.543 143.35 76.1035 143.77C75.1367 144.697 73.7842 145.161 72.0459 145.161ZM74.6387 138.745C74.7461 138.228 74.8828 137.261 75.0488 135.845C75.2246 134.419 75.3125 133.364 75.3125 132.681C75.3125 131.021 74.7119 130.19 73.5107 130.19C72.9443 130.19 72.4756 130.459 72.1045 130.996C71.7432 131.533 71.4502 132.427 71.2256 133.677C70.7764 136.216 70.5518 138.276 70.5518 139.858C70.5518 141.44 71.1475 142.231 72.3389 142.231C72.9053 142.231 73.374 141.963 73.7451 141.426C74.126 140.879 74.4238 139.985 74.6387 138.745ZM92.1729 127.612C92.3877 127.69 92.4951 127.876 92.4951 128.169L92.1582 130.82C92.1387 131.016 92.002 131.113 91.748 131.113C91.5039 131.113 91.2695 131.064 91.0449 130.967C90.0977 130.547 89.3115 130.337 88.6865 130.337C88.0615 130.337 87.5635 130.596 87.1924 131.113C86.8213 131.631 86.5234 132.373 86.2988 133.34C85.8789 135.146 85.6689 136.797 85.6689 138.291C85.6689 140.693 86.2891 141.895 87.5293 141.895C88.4277 141.895 89.1553 141.782 89.7119 141.558C90.2686 141.323 90.6299 141.206 90.7959 141.206C91.1377 141.206 91.3086 141.353 91.3086 141.646L91.001 144.224C90.9814 144.399 90.9424 144.507 90.8838 144.546C90.835 144.575 90.7666 144.609 90.6787 144.648C89.4971 144.99 88.3838 145.161 87.3389 145.161C86.3037 145.161 85.4834 145.029 84.8779 144.766C84.2822 144.502 83.8086 144.165 83.457 143.755C83.1055 143.335 82.8223 142.832 82.6074 142.246C82.2266 141.24 82.0361 140.005 82.0361 138.54C82.0361 137.065 82.1289 135.786 82.3145 134.702C82.5098 133.608 82.71 132.72 82.915 132.036C83.1299 131.353 83.4131 130.698 83.7646 130.073C84.1162 129.438 84.5264 128.916 84.9951 128.506C86.0205 127.607 87.3779 127.158 89.0674 127.158C90.2002 127.158 91.2354 127.31 92.1729 127.612ZM106.06 144.692C106.06 144.868 105.928 144.956 105.664 144.956L102.544 145.059C102.397 145.049 102.29 144.956 102.222 144.78L99.2334 136.357L98.3105 144.561C98.291 144.697 98.2568 144.795 98.208 144.854C98.1592 144.912 98.0664 144.946 97.9297 144.956L94.9854 145.059C94.7705 145.039 94.6631 144.946 94.6631 144.78L97.373 120.713C97.3926 120.576 97.4268 120.479 97.4756 120.42C97.5244 120.361 97.6172 120.327 97.7539 120.317L100.625 120.215C100.879 120.244 101.006 120.376 101.006 120.61L99.3359 135.435L103.232 127.759C103.35 127.524 103.511 127.402 103.716 127.393L106.748 127.29C106.992 127.319 107.114 127.432 107.114 127.627C107.114 127.734 107.095 127.832 107.056 127.92L102.676 135.522L106.016 144.517C106.045 144.585 106.06 144.644 106.06 144.692Z" fill="#362525"/>
</g>
<defs>
<filter id="filter0_d" x="16" y="23" width="126.161" height="89.3406" filterUnits="userSpaceOnUse" color-interpolation-filters="sRGB">
<feFlood flood-opacity="0" result="BackgroundImageFix"/>
<feColorMatrix in="SourceAlpha" type="matrix" values="0 0 0 0 0 0 0 0 0 0 0 0 0 0 0 0 0 0 127 0"/>
<feOffset dy="4"/>
<feGaussianBlur stdDeviation="2"/>
<feColorMatrix type="matrix" values="0 0 0 0 0 0 0 0 0 0 0 0 0 0 0 0 0 0 0.25 0"/>
<feBlend mode="normal" in2="BackgroundImageFix" result="effect1_dropShadow"/>
<feBlend mode="normal" in="SourceGraphic" in2="effect1_dropShadow" result="shape"/>
</filter>
<filter id="filter1_d" x="47.6113" y="118.215" width="63.5029" height="32.9463" filterUnits="userSpaceOnUse" color-interpolation-filters="sRGB">
<feFlood flood-opacity="0" result="BackgroundImageFix"/>
<feColorMatrix in="SourceAlpha" type="matrix" values="0 0 0 0 0 0 0 0 0 0 0 0 0 0 0 0 0 0 127 0"/>
<feOffset dy="2"/>
<feGaussianBlur stdDeviation="2"/>
<feColorMatrix type="matrix" values="0 0 0 0 0 0 0 0 0 0 0 0 0 0 0 0 0 0 0.25 0"/>
<feBlend mode="normal" in2="BackgroundImageFix" result="effect1_dropShadow"/>
<feBlend mode="normal" in="SourceGraphic" in2="effect1_dropShadow" result="shape"/>
</filter>
</defs>
</svg>
