<svg width="160" height="160" viewBox="0 0 160 160" fill="none" xmlns="http://www.w3.org/2000/svg">
<rect x="0.5" y="0.5" width="159" height="159" rx="7.5" fill="#9DA2CC" stroke="#362525"/>
<g filter="url(#filter0_d)">
<path d="M35.2891 144.22C35.0449 144.22 34.9229 144.103 34.9229 143.868L35.2891 140.807C35.3281 140.592 35.4551 140.475 35.6699 140.455C37.1934 140.299 38.1992 140.06 38.6875 139.737C39.1758 139.405 39.4199 138.751 39.4199 137.774C39.4199 136.798 39.1709 135.528 38.6729 133.966C38.1748 132.394 37.8525 131.349 37.7061 130.831C37.2373 129.171 37.0029 127.813 37.0029 126.759C37.0029 125.694 37.1738 124.786 37.5156 124.034C37.8574 123.282 38.3457 122.682 38.9805 122.232C40.2109 121.373 41.8662 120.943 43.9463 120.943C44.21 120.943 44.3418 121.065 44.3418 121.31L43.9463 124.342C43.9072 124.586 43.7852 124.718 43.5801 124.737C41.6855 124.864 40.7383 125.426 40.7383 126.422C40.7383 127.34 41.1387 129.146 41.9395 131.842C42.75 134.527 43.1553 136.451 43.1553 137.613C43.1553 142.018 40.5332 144.22 35.2891 144.22ZM56.5146 126.612C56.7295 126.69 56.8369 126.876 56.8369 127.169L56.5 129.82C56.4805 130.016 56.3438 130.113 56.0898 130.113C55.8457 130.113 55.6113 130.064 55.3867 129.967C54.4395 129.547 53.6533 129.337 53.0283 129.337C52.4033 129.337 51.9053 129.596 51.5342 130.113C51.1631 130.631 50.8652 131.373 50.6406 132.34C50.2207 134.146 50.0107 135.797 50.0107 137.291C50.0107 139.693 50.6309 140.895 51.8711 140.895C52.7695 140.895 53.4971 140.782 54.0537 140.558C54.6104 140.323 54.9717 140.206 55.1377 140.206C55.4795 140.206 55.6504 140.353 55.6504 140.646L55.3428 143.224C55.3232 143.399 55.2842 143.507 55.2256 143.546C55.1768 143.575 55.1084 143.609 55.0205 143.648C53.8389 143.99 52.7256 144.161 51.6807 144.161C50.6455 144.161 49.8252 144.029 49.2197 143.766C48.624 143.502 48.1504 143.165 47.7988 142.755C47.4473 142.335 47.1641 141.832 46.9492 141.246C46.5684 140.24 46.3779 139.005 46.3779 137.54C46.3779 136.065 46.4707 134.786 46.6562 133.702C46.8516 132.608 47.0518 131.72 47.2568 131.036C47.4717 130.353 47.7549 129.698 48.1064 129.073C48.458 128.438 48.8682 127.916 49.3369 127.506C50.3623 126.607 51.7197 126.158 53.4092 126.158C54.542 126.158 55.5771 126.31 56.5146 126.612ZM62.916 124.693C62.3105 124.693 61.8271 124.503 61.4658 124.122C61.1045 123.741 60.9238 123.253 60.9238 122.657C60.9238 122.052 61.1631 121.515 61.6416 121.046C62.1299 120.567 62.6768 120.328 63.2822 120.328C63.8877 120.328 64.376 120.519 64.7471 120.899C65.1279 121.28 65.3184 121.773 65.3184 122.379C65.3184 122.975 65.0693 123.512 64.5713 123.99C64.0732 124.459 63.5215 124.693 62.916 124.693ZM64.542 126.671L62.6377 143.561C62.6182 143.697 62.584 143.795 62.5352 143.854C62.4863 143.912 62.3936 143.946 62.2568 143.956L59.3125 144.059C59.0977 144.039 58.9902 143.946 58.9902 143.78L60.9238 126.744C60.9629 126.529 61.085 126.412 61.29 126.393L64.1465 126.29C64.4102 126.31 64.542 126.437 64.542 126.671ZM75.001 129.703L73.3457 129.63C72.877 129.63 72.5059 129.737 72.2324 129.952C71.9688 130.167 71.8369 130.479 71.8369 130.89C71.8369 131.29 71.9102 131.734 72.0566 132.223C72.252 132.877 72.5889 133.639 73.0674 134.508C73.5557 135.377 73.8926 135.992 74.0781 136.354C74.6445 137.477 74.9277 138.546 74.9277 139.562C74.9277 141.036 74.4932 142.174 73.624 142.975C72.7646 143.766 71.4561 144.161 69.6982 144.161C68.8291 144.161 68.1357 144.112 67.6182 144.015C67.1006 143.927 66.8125 143.858 66.7539 143.81C66.7051 143.751 66.6807 143.663 66.6807 143.546L67.0615 140.836C67.0811 140.592 67.1641 140.47 67.3105 140.47C67.4668 140.47 67.7598 140.523 68.1895 140.631C68.6191 140.738 68.9951 140.792 69.3174 140.792C70.5088 140.792 71.1045 140.318 71.1045 139.371C71.1045 138.697 70.958 138.067 70.665 137.481C70.3818 136.896 70.0693 136.29 69.7275 135.665C69.3955 135.04 69.1367 134.542 68.9512 134.171C68.7656 133.79 68.5703 133.268 68.3652 132.604C68.1699 131.939 68.0723 131.314 68.0723 130.729C68.0723 129.361 68.4775 128.258 69.2881 127.418C70.1084 126.578 71.2998 126.158 72.8623 126.158C73.8682 126.158 74.6543 126.207 75.2207 126.305C75.4648 126.344 75.5869 126.471 75.5869 126.686L75.2646 129.293C75.2646 129.566 75.1768 129.703 75.001 129.703ZM85.958 129.703L84.3027 129.63C83.834 129.63 83.4629 129.737 83.1895 129.952C82.9258 130.167 82.7939 130.479 82.7939 130.89C82.7939 131.29 82.8672 131.734 83.0137 132.223C83.209 132.877 83.5459 133.639 84.0244 134.508C84.5127 135.377 84.8496 135.992 85.0352 136.354C85.6016 137.477 85.8848 138.546 85.8848 139.562C85.8848 141.036 85.4502 142.174 84.5811 142.975C83.7217 143.766 82.4131 144.161 80.6553 144.161C79.7861 144.161 79.0928 144.112 78.5752 144.015C78.0576 143.927 77.7695 143.858 77.7109 143.81C77.6621 143.751 77.6377 143.663 77.6377 143.546L78.0186 140.836C78.0381 140.592 78.1211 140.47 78.2676 140.47C78.4238 140.47 78.7168 140.523 79.1465 140.631C79.5762 140.738 79.9521 140.792 80.2744 140.792C81.4658 140.792 82.0615 140.318 82.0615 139.371C82.0615 138.697 81.915 138.067 81.6221 137.481C81.3389 136.896 81.0264 136.29 80.6846 135.665C80.3525 135.04 80.0938 134.542 79.9082 134.171C79.7227 133.79 79.5273 133.268 79.3223 132.604C79.127 131.939 79.0293 131.314 79.0293 130.729C79.0293 129.361 79.4346 128.258 80.2451 127.418C81.0654 126.578 82.2568 126.158 83.8193 126.158C84.8252 126.158 85.6113 126.207 86.1777 126.305C86.4219 126.344 86.5439 126.471 86.5439 126.686L86.2217 129.293C86.2217 129.566 86.1338 129.703 85.958 129.703ZM94.2783 144.161C92.5498 144.161 91.2803 143.644 90.4697 142.608C89.6689 141.563 89.2686 140.045 89.2686 138.053C89.2686 137.125 89.3711 135.914 89.5762 134.42C89.7812 132.926 89.9717 131.842 90.1475 131.168C90.3232 130.484 90.5723 129.82 90.8945 129.176C91.2168 128.521 91.5977 127.984 92.0371 127.564C93.0039 126.627 94.3125 126.158 95.9629 126.158C98.3066 126.158 99.8252 127.018 100.519 128.736C100.89 129.654 101.075 130.768 101.075 132.076C101.075 133.375 100.973 134.723 100.768 136.119C100.572 137.516 100.387 138.551 100.211 139.225C100.035 139.889 99.7861 140.543 99.4639 141.188C99.1514 141.822 98.7754 142.35 98.3359 142.77C97.3691 143.697 96.0166 144.161 94.2783 144.161ZM96.8711 137.745C96.9785 137.228 97.1152 136.261 97.2812 134.845C97.457 133.419 97.5449 132.364 97.5449 131.681C97.5449 130.021 96.9443 129.19 95.7432 129.19C95.1768 129.19 94.708 129.459 94.3369 129.996C93.9756 130.533 93.6826 131.427 93.458 132.677C93.0088 135.216 92.7842 137.276 92.7842 138.858C92.7842 140.44 93.3799 141.231 94.5713 141.231C95.1377 141.231 95.6064 140.963 95.9775 140.426C96.3584 139.879 96.6562 138.985 96.8711 137.745ZM113.761 130.025L112.193 129.864C110.924 129.864 109.859 130.118 109 130.626L107.55 143.546C107.511 143.79 107.389 143.922 107.184 143.941L104.225 144.059C104.01 144.039 103.902 143.946 103.902 143.78L105.836 126.744C105.875 126.529 105.997 126.412 106.202 126.393L109.059 126.29C109.322 126.3 109.454 126.427 109.454 126.671L109.278 128.18C109.903 127.545 110.509 127.052 111.095 126.7C111.681 126.339 112.267 126.158 112.853 126.158C113.448 126.158 113.902 126.183 114.215 126.231C114.42 126.271 114.522 126.407 114.522 126.642C114.522 127.315 114.41 128.316 114.186 129.645C114.137 129.898 113.995 130.025 113.761 130.025ZM123.546 129.703L121.891 129.63C121.422 129.63 121.051 129.737 120.777 129.952C120.514 130.167 120.382 130.479 120.382 130.89C120.382 131.29 120.455 131.734 120.602 132.223C120.797 132.877 121.134 133.639 121.612 134.508C122.101 135.377 122.438 135.992 122.623 136.354C123.189 137.477 123.473 138.546 123.473 139.562C123.473 141.036 123.038 142.174 122.169 142.975C121.31 143.766 120.001 144.161 118.243 144.161C117.374 144.161 116.681 144.112 116.163 144.015C115.646 143.927 115.357 143.858 115.299 143.81C115.25 143.751 115.226 143.663 115.226 143.546L115.606 140.836C115.626 140.592 115.709 140.47 115.855 140.47C116.012 140.47 116.305 140.523 116.734 140.631C117.164 140.738 117.54 140.792 117.862 140.792C119.054 140.792 119.649 140.318 119.649 139.371C119.649 138.697 119.503 138.067 119.21 137.481C118.927 136.896 118.614 136.29 118.272 135.665C117.94 135.04 117.682 134.542 117.496 134.171C117.311 133.79 117.115 133.268 116.91 132.604C116.715 131.939 116.617 131.314 116.617 130.729C116.617 129.361 117.022 128.258 117.833 127.418C118.653 126.578 119.845 126.158 121.407 126.158C122.413 126.158 123.199 126.207 123.766 126.305C124.01 126.344 124.132 126.471 124.132 126.686L123.81 129.293C123.81 129.566 123.722 129.703 123.546 129.703Z" fill="#362525"/>
</g>
<path fill-rule="evenodd" clip-rule="evenodd" d="M126.511 44.8011L85.1528 71.1351L73.9066 75.8499L70.9637 70.1967C76.3331 68.2832 77.7926 60.9259 75.0863 57.3655C83.5443 53.8769 106.014 44.3993 114.449 40.8631C120.101 38.2712 124.146 40.0726 126.512 44.8011L126.511 44.8011Z" fill="#EAE1E1" stroke="#362525" stroke-width="1.82685"/>
<path d="M73.5508 75.9848L65.6882 79.2902C68.0939 79.8235 71.31 83.4854 72.6561 86.2519C76.3636 93.8721 73.0843 102.697 65.3602 105.945C57.6373 109.191 48.3406 105.653 44.6338 98.0333C41.0494 90.666 43.9848 82.1536 51.1623 78.6632L51.1518 78.6416L51.9193 78.3189L70.821 70.3728L73.5515 75.9851L73.5508 75.9848ZM66.1434 88.9899C64.1599 84.9133 59.1765 83.0068 55.0444 84.7439C50.9124 86.481 49.1614 91.2185 51.1448 95.2951C53.1283 99.3718 58.103 101.256 62.2333 99.5195C66.3636 97.7832 68.1268 93.0665 66.1434 88.9899Z" fill="#DE943E" stroke="#362525" stroke-width="1.92515"/>
<path fill-rule="evenodd" clip-rule="evenodd" d="M128.379 79.6153L84.1306 54.039L72.3706 49.5277L70.1557 54.9735C75.0872 56.6826 77.4807 63.127 74.779 67.5613C83.617 70.8967 107.947 80.3795 116.767 83.7629C122.702 86.2523 126.542 84.381 128.379 79.6154L128.379 79.6153Z" fill="#EAE1E1" stroke="#362525" stroke-width="1.82685"/>
<path d="M72.1441 49.4346L63.9213 46.2715C66.2653 45.6962 69.0707 41.981 70.1076 39.1934C72.9632 31.5151 68.7048 22.7568 60.6268 19.649C52.5501 16.5422 43.6564 20.2413 40.8014 27.9194C38.0405 35.3428 41.9206 43.7949 49.4796 47.1549L49.4714 47.1767L50.2741 47.4854L70.0361 54.8697L72.1447 49.4342L72.1441 49.4346ZM63.2964 36.5734C61.7687 40.681 57.0023 42.6739 52.681 41.0116C48.3597 39.3493 46.083 34.6473 47.6108 30.5396C49.1385 26.432 53.8986 24.4616 58.2181 26.1232C62.5376 27.7848 64.8242 32.4657 63.2964 36.5734Z" fill="#DE943E" stroke="#362525" stroke-width="1.92515"/>
<path d="M80.5399 64.1189C79.6496 62.2844 80.4361 60.1648 82.2956 59.3852C84.1551 58.6057 86.3846 59.4609 87.2749 61.2953C88.1652 63.1297 87.3795 65.2491 85.52 66.0286C83.6605 66.8082 81.4303 65.9533 80.5399 64.1189" fill="#DE943E"/>
<path d="M80.5399 64.1189C79.6496 62.2844 80.4361 60.1648 82.2956 59.3852C84.1551 58.6057 86.3846 59.4609 87.2749 61.2953C88.1652 63.1297 87.3795 65.2491 85.52 66.0286C83.6605 66.8082 81.4303 65.9533 80.5399 64.1189" stroke="#362525" stroke-width="1.20322"/>
<defs>
<filter id="filter0_d" x="30.9229" y="118.328" width="97.209" height="31.8916" filterUnits="userSpaceOnUse" color-interpolation-filters="sRGB">
<feFlood flood-opacity="0" result="BackgroundImageFix"/>
<feColorMatrix in="SourceAlpha" type="matrix" values="0 0 0 0 0 0 0 0 0 0 0 0 0 0 0 0 0 0 127 0"/>
<feOffset dy="2"/>
<feGaussianBlur stdDeviation="2"/>
<feColorMatrix type="matrix" values="0 0 0 0 0 0 0 0 0 0 0 0 0 0 0 0 0 0 0.25 0"/>
<feBlend mode="normal" in2="BackgroundImageFix" result="effect1_dropShadow"/>
<feBlend mode="normal" in="SourceGraphic" in2="effect1_dropShadow" result="shape"/>
</filter>
</defs>
</svg>
