<svg width="285" height="172" viewBox="0 0 285 172" fill="none" xmlns="http://www.w3.org/2000/svg">
<rect x="0.5" y="0.5" width="284" height="171" rx="13.5" fill="#E6E6E6" stroke="#362525"/>
<rect x="122.5" y="15.5" width="145" height="141" rx="7.5" fill="#9DCCC6" stroke="black"/>
<g filter="url(#filter0_d)">
<path d="M166.308 63.2478C175.051 59.7388 189.385 57.9184 189.385 57.9184L230.223 52.3529L234.613 86.6469C234.613 86.6469 240.31 105.232 246 114.794C232.687 120.49 205.766 125.47 205.766 125.47L172.528 130L165.018 71.335C165.018 71.335 163.821 66.6549 166.308 63.2457L166.308 63.2478Z" fill="#AEAEAD"/>
<path d="M154.167 53.7441C165.855 50.3689 181.56 48.3075 181.56 48.3075L229.15 42L234.266 80.8661C234.266 80.8661 236.018 96.108 242.649 106.946C230.018 122.217 200.647 124.866 200.647 124.866L161.914 130L153.162 63.5136C153.162 63.5136 152.404 57.1209 154.167 53.7441Z" fill="url(#paint0_linear)" stroke="#362525" stroke-width="2"/>
<path d="M181.254 76.4854L181.811 79.2734L182.812 76.5391C182.838 76.4674 182.878 76.43 182.934 76.4268L183.94 76.3926C183.979 76.3958 184.01 76.4089 184.032 76.4316C184.058 76.4544 184.071 76.4788 184.071 76.5049L182.25 80.5771L181.874 83.8633C181.864 83.9414 181.822 83.9821 181.747 83.9854L180.741 84.0195C180.67 84.0195 180.634 83.9886 180.634 83.9268L181 80.6846L180.004 76.5049C180.004 76.4593 180.048 76.4333 180.136 76.4268L181.127 76.3877C181.199 76.391 181.241 76.4235 181.254 76.4854ZM185.956 84.0537C185.38 84.0537 184.957 83.8812 184.687 83.5361C184.42 83.1878 184.286 82.6816 184.286 82.0176C184.286 81.7083 184.32 81.3047 184.389 80.8066C184.457 80.3086 184.521 79.9473 184.579 79.7227C184.638 79.4948 184.721 79.2734 184.828 79.0586C184.936 78.8405 185.063 78.6615 185.209 78.5215C185.531 78.209 185.968 78.0527 186.518 78.0527C187.299 78.0527 187.805 78.3392 188.036 78.9121C188.16 79.2181 188.222 79.5892 188.222 80.0254C188.222 80.4583 188.188 80.9076 188.119 81.373C188.054 81.8385 187.992 82.1836 187.934 82.4082C187.875 82.6296 187.792 82.8477 187.685 83.0625C187.581 83.2741 187.455 83.4499 187.309 83.5898C186.986 83.8991 186.536 84.0537 185.956 84.0537ZM186.82 81.915C186.856 81.7425 186.902 81.4202 186.957 80.9482C187.016 80.473 187.045 80.1214 187.045 79.8936C187.045 79.3402 186.845 79.0635 186.444 79.0635C186.256 79.0635 186.099 79.153 185.976 79.332C185.855 79.5111 185.758 79.8089 185.683 80.2256C185.533 81.0719 185.458 81.7588 185.458 82.2861C185.458 82.8135 185.657 83.0771 186.054 83.0771C186.243 83.0771 186.399 82.9876 186.523 82.8086C186.65 82.6263 186.749 82.3285 186.82 81.915ZM191.718 83.8975L191.757 83.5215C191.363 83.8763 190.917 84.0537 190.419 84.0537C190.045 84.0537 189.768 83.917 189.589 83.6436C189.413 83.3701 189.325 83.0283 189.325 82.6182C189.325 82.5498 189.332 82.457 189.345 82.3398L189.809 78.2529C189.819 78.1748 189.859 78.1341 189.931 78.1309L190.917 78.0918C190.986 78.0983 191.02 78.1325 191.02 78.1943L190.58 82.0469C190.57 82.1315 190.566 82.2096 190.566 82.2812C190.566 82.5547 190.618 82.737 190.722 82.8281C190.829 82.9193 190.989 82.9648 191.2 82.9648C191.415 82.9648 191.627 82.9242 191.835 82.8428L192.353 78.2529C192.362 78.1748 192.403 78.1341 192.475 78.1309L193.461 78.0967C193.529 78.1032 193.564 78.1374 193.564 78.1992L192.929 83.8486C192.919 83.9268 192.875 83.9691 192.797 83.9756L191.845 84.0195C191.76 84.0163 191.718 83.9756 191.718 83.8975ZM198.393 83.9268L197.983 78.082L197.616 83.8584C197.61 83.9398 197.568 83.9821 197.489 83.9854L196.557 84.0195C196.485 84.013 196.449 83.9821 196.449 83.9268L197.289 76.5391C197.296 76.5 197.306 76.4723 197.319 76.4561C197.335 76.4398 197.367 76.43 197.416 76.4268L198.647 76.3828C198.725 76.3861 198.767 76.4251 198.774 76.5L199.218 82.3789L200.912 76.5391C200.929 76.4674 200.974 76.43 201.049 76.4268L202.333 76.3828C202.415 76.3861 202.455 76.4251 202.455 76.5L201.625 83.8633C201.615 83.9414 201.571 83.9821 201.493 83.9854L200.487 84.0195C200.419 84.0195 200.385 83.9886 200.385 83.9268L201.337 77.9746L199.589 83.8682C199.563 83.943 199.516 83.9821 199.447 83.9854L198.5 84.0195C198.435 84.013 198.399 83.9821 198.393 83.9268ZM205.644 83.8975L205.683 83.5215C205.289 83.8763 204.843 84.0537 204.345 84.0537C203.971 84.0537 203.694 83.917 203.515 83.6436C203.339 83.3701 203.251 83.0283 203.251 82.6182C203.251 82.5498 203.258 82.457 203.271 82.3398L203.735 78.2529C203.744 78.1748 203.785 78.1341 203.857 78.1309L204.843 78.0918C204.911 78.0983 204.945 78.1325 204.945 78.1943L204.506 82.0469C204.496 82.1315 204.491 82.2096 204.491 82.2812C204.491 82.5547 204.543 82.737 204.648 82.8281C204.755 82.9193 204.915 82.9648 205.126 82.9648C205.341 82.9648 205.553 82.9242 205.761 82.8428L206.278 78.2529C206.288 78.1748 206.329 78.1341 206.401 78.1309L207.387 78.0967C207.455 78.1032 207.489 78.1374 207.489 78.1992L206.855 83.8486C206.845 83.9268 206.801 83.9691 206.723 83.9756L205.771 84.0195C205.686 84.0163 205.644 83.9756 205.644 83.8975ZM210.976 79.2344L210.424 79.21C210.268 79.21 210.144 79.2458 210.053 79.3174C209.965 79.389 209.921 79.4932 209.921 79.6299C209.921 79.7633 209.945 79.9115 209.994 80.0742C210.059 80.2923 210.172 80.5462 210.331 80.8359C210.494 81.1257 210.606 81.3307 210.668 81.4512C210.857 81.8255 210.951 82.182 210.951 82.5205C210.951 83.012 210.806 83.3913 210.517 83.6582C210.23 83.9219 209.794 84.0537 209.208 84.0537C208.918 84.0537 208.687 84.0374 208.515 84.0049C208.342 83.9756 208.246 83.9528 208.227 83.9365C208.21 83.917 208.202 83.8877 208.202 83.8486L208.329 82.9453C208.336 82.8639 208.363 82.8232 208.412 82.8232C208.464 82.8232 208.562 82.8411 208.705 82.877C208.848 82.9128 208.974 82.9307 209.081 82.9307C209.478 82.9307 209.677 82.7728 209.677 82.457C209.677 82.2324 209.628 82.0225 209.53 81.8271C209.436 81.6318 209.332 81.43 209.218 81.2217C209.107 81.0133 209.021 80.8473 208.959 80.7236C208.897 80.5967 208.832 80.4225 208.764 80.2012C208.699 79.9798 208.666 79.7715 208.666 79.5762C208.666 79.1204 208.801 78.7526 209.071 78.4727C209.345 78.1927 209.742 78.0527 210.263 78.0527C210.598 78.0527 210.86 78.069 211.049 78.1016C211.13 78.1146 211.171 78.1569 211.171 78.2285L211.064 79.0977C211.064 79.1888 211.034 79.2344 210.976 79.2344ZM212.729 78.1162C212.804 77.4001 212.852 77.0306 212.875 77.0078C212.898 76.9818 212.932 76.9671 212.978 76.9639L213.91 76.9297C213.998 76.9362 214.042 76.9769 214.042 77.0518C213.98 77.4131 213.928 77.7598 213.886 78.0918L215.024 78.0527C215.102 78.056 215.141 78.0983 215.141 78.1797L215.004 78.9561C214.991 79.0342 214.95 79.0749 214.882 79.0781L213.764 79.1221C213.542 81.1143 213.432 82.2129 213.432 82.418C213.432 82.7988 213.595 82.9893 213.92 82.9893C214.086 82.9893 214.247 82.9632 214.403 82.9111C214.56 82.859 214.657 82.833 214.696 82.833C214.765 82.833 214.799 82.8753 214.799 82.96L214.696 83.8145C214.69 83.8633 214.677 83.8991 214.657 83.9219C214.641 83.9447 214.561 83.9723 214.418 84.0049C214.278 84.0374 214.037 84.0537 213.695 84.0537C213.194 84.0537 212.823 83.9382 212.582 83.707C212.341 83.4727 212.221 83.1243 212.221 82.6621C212.221 82.1999 212.349 81.0247 212.607 79.1367L212.128 79.1562C212.047 79.153 212.006 79.1123 212.006 79.0342L212.138 78.248C212.148 78.1732 212.19 78.1341 212.265 78.1309L212.729 78.1162ZM194.223 92.4443C193.943 93.5283 193.067 94.0719 191.596 94.0752L191.288 96.8438C191.278 96.9219 191.238 96.9626 191.166 96.9658L190.141 97.0195C190.069 97.013 190.033 96.9821 190.033 96.9268L190.878 89.5391C190.891 89.4707 190.933 89.4333 191.005 89.4268C191.614 89.3714 192.195 89.3438 192.748 89.3438C193.848 89.3438 194.399 89.8711 194.399 90.9258C194.399 91.502 194.34 92.0081 194.223 92.4443ZM191.996 90.4814L191.718 92.9473C192.281 92.9473 192.66 92.8301 192.856 92.5957C193.051 92.3613 193.149 91.9056 193.149 91.2285C193.149 90.9681 193.079 90.776 192.939 90.6523C192.799 90.5286 192.62 90.4668 192.402 90.4668C192.183 90.4668 192.048 90.4717 191.996 90.4814ZM197.128 88.8701L196.23 96.8486C196.223 96.8942 196.212 96.9268 196.195 96.9463C196.179 96.9658 196.148 96.9772 196.103 96.9805L195.121 97.0195C195.05 97.013 195.014 96.9821 195.014 96.9268L195.917 88.9043C195.924 88.8587 195.935 88.8262 195.951 88.8066C195.968 88.7871 195.999 88.7757 196.044 88.7725L197.001 88.7383C197.086 88.748 197.128 88.792 197.128 88.8701ZM202.011 91.2236L201.376 96.8535C201.366 96.9382 201.324 96.9821 201.249 96.9854L200.263 97.0195C200.194 97.013 200.16 96.9821 200.16 96.9268L200.253 96.2627C200.103 96.5166 199.939 96.7119 199.76 96.8486C199.584 96.9854 199.386 97.0537 199.164 97.0537C198.943 97.0537 198.754 97.0163 198.598 96.9414C198.442 96.8633 198.313 96.7624 198.212 96.6387C198.114 96.5117 198.035 96.3604 197.973 96.1846C197.859 95.8721 197.802 95.4456 197.802 94.9053C197.802 94.3617 197.838 93.901 197.909 93.5234C197.984 93.1458 198.049 92.8594 198.105 92.6641C198.16 92.4655 198.233 92.262 198.324 92.0537C198.419 91.8454 198.525 91.6712 198.642 91.5312C198.909 91.2122 199.246 91.0527 199.653 91.0527C199.955 91.0527 200.186 91.126 200.346 91.2725C200.505 91.4157 200.639 91.6289 200.746 91.9121L200.805 91.248C200.811 91.1764 200.852 91.1374 200.927 91.1309L201.884 91.0967C201.969 91.1032 202.011 91.1455 202.011 91.2236ZM199.032 94.7637C199.032 95.5417 199.241 95.9307 199.657 95.9307C199.84 95.9307 199.988 95.8477 200.102 95.6816C200.216 95.5124 200.313 95.1755 200.395 94.6709C200.479 94.1663 200.522 93.7985 200.522 93.5674C200.522 93.3363 200.52 93.1898 200.517 93.1279C200.514 93.0661 200.507 92.9847 200.497 92.8838C200.487 92.7796 200.47 92.6934 200.444 92.625C200.417 92.5534 200.383 92.4818 200.341 92.4102C200.256 92.2702 200.12 92.2002 199.931 92.2002C199.742 92.2002 199.592 92.2848 199.482 92.4541C199.371 92.6201 199.285 92.8431 199.223 93.123C199.096 93.722 199.032 94.2689 199.032 94.7637ZM207.045 91.2236L204.228 99.2168C204.202 99.2982 204.154 99.3405 204.086 99.3438L203.105 99.3779C203.033 99.3747 202.997 99.3421 202.997 99.2803L203.837 96.9121L203.075 91.248C203.075 91.1732 203.116 91.1341 203.197 91.1309L204.159 91.0967C204.234 91.0999 204.275 91.1423 204.281 91.2236L204.653 95.3301L205.839 91.248C205.859 91.1732 205.901 91.1341 205.966 91.1309L206.923 91.0967C207.004 91.1032 207.045 91.1455 207.045 91.2236Z" fill="#362525"/>
</g>
<g filter="url(#filter1_d)">
<path d="M46.6445 60.9648L47.9805 67.6562L50.3828 61.0938C50.4453 60.9219 50.543 60.832 50.6758 60.8242L53.0898 60.7422C53.1836 60.75 53.2578 60.7812 53.3125 60.8359C53.375 60.8906 53.4062 60.9492 53.4062 61.0117L49.0352 70.7852L48.1328 78.6719C48.1094 78.8594 48.0078 78.957 47.8281 78.9648L45.4141 79.0469C45.2422 79.0469 45.1562 78.9727 45.1562 78.8242L46.0352 71.043L43.6445 61.0117C43.6445 60.9023 43.75 60.8398 43.9609 60.8242L46.3398 60.7305C46.5117 60.7383 46.6133 60.8164 46.6445 60.9648ZM57.9883 79.1758C56.6758 79.1758 55.6836 78.7852 55.0117 78.0039C54.3398 77.2227 54.0039 76.2461 54.0039 75.0742C54.0039 72.0898 54.3047 69.1406 54.9062 66.2266C55.3828 63.9375 56.043 62.4062 56.8867 61.6328C57.6836 60.9141 58.7344 60.5547 60.0391 60.5547C61.3516 60.5547 62.3438 60.9492 63.0156 61.7383C63.6953 62.5273 64.0352 63.5 64.0352 64.6562C64.0352 65.8047 63.9609 67.1992 63.8125 68.8398C63.6641 70.4727 63.4805 71.8398 63.2617 72.9414C63.043 74.0352 62.8555 74.8359 62.6992 75.3438C62.5508 75.8438 62.3438 76.3516 62.0781 76.8672C61.8125 77.3828 61.5039 77.7969 61.1523 78.1094C60.3633 78.8203 59.3086 79.1758 57.9883 79.1758ZM58.293 76.4102C59.2852 76.4102 59.9219 75.4961 60.2031 73.668C60.3906 72.457 60.5781 70.9492 60.7656 69.1445C60.9531 67.3398 61.0469 66.0703 61.0469 65.3359C61.0469 64.6016 60.9258 64.082 60.6836 63.7773C60.4492 63.4727 60.1133 63.3203 59.6758 63.3203C58.7695 63.3203 58.1562 64.2383 57.8359 66.0742C57.6484 67.1523 57.4609 68.6172 57.2734 70.4688C57.0859 72.3125 56.9922 73.6133 56.9922 74.3711C56.9922 75.1289 57.1133 75.6602 57.3555 75.9648C57.6055 76.2617 57.918 76.4102 58.293 76.4102ZM70.9375 61.0234L69.5898 73.0352C69.4805 73.957 69.4258 74.6133 69.4258 75.0039C69.4258 75.3945 69.5352 75.7266 69.7539 76C69.9727 76.2734 70.3281 76.4102 70.8203 76.4102C71.3125 76.4102 71.6875 76.1641 71.9453 75.6719C72.2031 75.1797 72.3945 74.3906 72.5195 73.3047L73.8906 61.0938C73.9141 60.9219 74.0195 60.832 74.207 60.8242L76.5742 60.7305C76.7695 60.7383 76.8672 60.832 76.8672 61.0117L75.5195 73.0352C75.2461 75.4961 74.6133 77.1797 73.6211 78.0859C72.8164 78.8125 71.7656 79.1758 70.4688 79.1758C69.1797 79.1758 68.1914 78.8398 67.5039 78.168C66.8242 77.4883 66.4844 76.4883 66.4844 75.168C66.4844 74.5352 66.5234 73.875 66.6016 73.1875L67.9844 61.0938C68 60.9922 68.0234 60.9258 68.0547 60.8945C68.0938 60.8555 68.168 60.832 68.2773 60.8242L70.6445 60.7422C70.8398 60.75 70.9375 60.8438 70.9375 61.0234ZM48.7422 98.0664C48.0703 100.668 45.9688 101.973 42.4375 101.98L41.6992 108.625C41.6758 108.812 41.5781 108.91 41.4062 108.918L38.9453 109.047C38.7734 109.031 38.6875 108.957 38.6875 108.824L40.7148 91.0938C40.7461 90.9297 40.8477 90.8398 41.0195 90.8242C42.4805 90.6914 43.875 90.625 45.2031 90.625C47.8438 90.625 49.1641 91.8906 49.1641 94.4219C49.1641 95.8047 49.0234 97.0195 48.7422 98.0664ZM43.3984 93.3555L42.7305 99.2734C44.082 99.2734 44.9922 98.9922 45.4609 98.4297C45.9297 97.8672 46.1641 96.7734 46.1641 95.1484C46.1641 94.5234 45.9961 94.0625 45.6602 93.7656C45.3242 93.4688 44.8945 93.3203 44.3711 93.3203C43.8477 93.3203 43.5234 93.332 43.3984 93.3555ZM55.6445 91.0234L53.9688 105.918L58.457 105.742C58.6602 105.75 58.7617 105.852 58.7617 106.047L58.457 108.473C58.4336 108.676 58.332 108.781 58.1523 108.789L50.9336 109.047C50.7695 109.047 50.6875 108.973 50.6875 108.824L52.6914 91.0938C52.707 91 52.7305 90.9336 52.7617 90.8945C52.8008 90.8555 52.875 90.832 52.9844 90.8242L55.3398 90.7422C55.543 90.75 55.6445 90.8438 55.6445 91.0234ZM68.4297 91.0117L69.8008 108.66C69.8008 108.84 69.6992 108.938 69.4961 108.953L67.0469 109.047C66.8828 109.047 66.8008 108.973 66.8008 108.824L66.625 104.957L63.9648 105.062L63.0859 108.672C63.0625 108.781 63.0312 108.855 62.9922 108.895C62.9531 108.934 62.8828 108.957 62.7812 108.965L60.3555 109.047C60.1992 109.047 60.1211 108.973 60.1211 108.824L65.2656 91.0938C65.3203 90.9219 65.4258 90.832 65.582 90.8242L68.1602 90.7305C68.3242 90.7383 68.4141 90.832 68.4297 91.0117ZM66.2148 95.8398L64.5742 102.566L66.5195 102.496L66.2148 95.8398ZM75.8594 90.9648L77.1953 97.6562L79.5977 91.0938C79.6602 90.9219 79.7578 90.832 79.8906 90.8242L82.3047 90.7422C82.3984 90.75 82.4727 90.7812 82.5273 90.8359C82.5898 90.8906 82.6211 90.9492 82.6211 91.0117L78.25 100.785L77.3477 108.672C77.3242 108.859 77.2227 108.957 77.043 108.965L74.6289 109.047C74.457 109.047 74.3711 108.973 74.3711 108.824L75.25 101.043L72.8594 91.0117C72.8594 90.9023 72.9648 90.8398 73.1758 90.8242L75.5547 90.7305C75.7266 90.7383 75.8281 90.8164 75.8594 90.9648Z" fill="#362525"/>
</g>
<defs>
<filter id="filter0_d" x="148" y="40.8772" width="102" height="98.2457" filterUnits="userSpaceOnUse" color-interpolation-filters="sRGB">
<feFlood flood-opacity="0" result="BackgroundImageFix"/>
<feColorMatrix in="SourceAlpha" type="matrix" values="0 0 0 0 0 0 0 0 0 0 0 0 0 0 0 0 0 0 127 0"/>
<feOffset dy="4"/>
<feGaussianBlur stdDeviation="2"/>
<feColorMatrix type="matrix" values="0 0 0 0 0 0 0 0 0 0 0 0 0 0 0 0 0 0 0.25 0"/>
<feBlend mode="normal" in2="BackgroundImageFix" result="effect1_dropShadow"/>
<feBlend mode="normal" in="SourceGraphic" in2="effect1_dropShadow" result="shape"/>
</filter>
<filter id="filter1_d" x="34.6875" y="60.5547" width="51.9336" height="56.4922" filterUnits="userSpaceOnUse" color-interpolation-filters="sRGB">
<feFlood flood-opacity="0" result="BackgroundImageFix"/>
<feColorMatrix in="SourceAlpha" type="matrix" values="0 0 0 0 0 0 0 0 0 0 0 0 0 0 0 0 0 0 127 0"/>
<feOffset dy="4"/>
<feGaussianBlur stdDeviation="2"/>
<feColorMatrix type="matrix" values="0 0 0 0 0 0 0 0 0 0 0 0 0 0 0 0 0 0 0.25 0"/>
<feBlend mode="normal" in2="BackgroundImageFix" result="effect1_dropShadow"/>
<feBlend mode="normal" in="SourceGraphic" in2="effect1_dropShadow" result="shape"/>
</filter>
<linearGradient id="paint0_linear" x1="158.846" y1="54.4049" x2="161.729" y2="60.9935" gradientUnits="userSpaceOnUse">
<stop stop-color="#CCCCCC"/>
<stop offset="1" stop-color="#DEDDC4"/>
</linearGradient>
</defs>
</svg>
