<svg width="285" height="172" viewBox="0 0 285 172" fill="none" xmlns="http://www.w3.org/2000/svg">
<rect x="0.5" y="0.5" width="284" height="171" rx="13.5" fill="#E6E6E6" stroke="#362525"/>
<g filter="url(#filter0_d)">
<path d="M46.6445 60.9648L47.9805 67.6562L50.3828 61.0938C50.4453 60.9219 50.543 60.832 50.6758 60.8242L53.0898 60.7422C53.1836 60.75 53.2578 60.7812 53.3125 60.8359C53.375 60.8906 53.4062 60.9492 53.4062 61.0117L49.0352 70.7852L48.1328 78.6719C48.1094 78.8594 48.0078 78.957 47.8281 78.9648L45.4141 79.0469C45.2422 79.0469 45.1562 78.9727 45.1562 78.8242L46.0352 71.043L43.6445 61.0117C43.6445 60.9023 43.75 60.8398 43.9609 60.8242L46.3398 60.7305C46.5117 60.7383 46.6133 60.8164 46.6445 60.9648ZM57.9883 79.1758C56.6758 79.1758 55.6836 78.7852 55.0117 78.0039C54.3398 77.2227 54.0039 76.2461 54.0039 75.0742C54.0039 72.0898 54.3047 69.1406 54.9062 66.2266C55.3828 63.9375 56.043 62.4062 56.8867 61.6328C57.6836 60.9141 58.7344 60.5547 60.0391 60.5547C61.3516 60.5547 62.3438 60.9492 63.0156 61.7383C63.6953 62.5273 64.0352 63.5 64.0352 64.6562C64.0352 65.8047 63.9609 67.1992 63.8125 68.8398C63.6641 70.4727 63.4805 71.8398 63.2617 72.9414C63.043 74.0352 62.8555 74.8359 62.6992 75.3438C62.5508 75.8438 62.3438 76.3516 62.0781 76.8672C61.8125 77.3828 61.5039 77.7969 61.1523 78.1094C60.3633 78.8203 59.3086 79.1758 57.9883 79.1758ZM58.293 76.4102C59.2852 76.4102 59.9219 75.4961 60.2031 73.668C60.3906 72.457 60.5781 70.9492 60.7656 69.1445C60.9531 67.3398 61.0469 66.0703 61.0469 65.3359C61.0469 64.6016 60.9258 64.082 60.6836 63.7773C60.4492 63.4727 60.1133 63.3203 59.6758 63.3203C58.7695 63.3203 58.1562 64.2383 57.8359 66.0742C57.6484 67.1523 57.4609 68.6172 57.2734 70.4688C57.0859 72.3125 56.9922 73.6133 56.9922 74.3711C56.9922 75.1289 57.1133 75.6602 57.3555 75.9648C57.6055 76.2617 57.918 76.4102 58.293 76.4102ZM70.9375 61.0234L69.5898 73.0352C69.4805 73.957 69.4258 74.6133 69.4258 75.0039C69.4258 75.3945 69.5352 75.7266 69.7539 76C69.9727 76.2734 70.3281 76.4102 70.8203 76.4102C71.3125 76.4102 71.6875 76.1641 71.9453 75.6719C72.2031 75.1797 72.3945 74.3906 72.5195 73.3047L73.8906 61.0938C73.9141 60.9219 74.0195 60.832 74.207 60.8242L76.5742 60.7305C76.7695 60.7383 76.8672 60.832 76.8672 61.0117L75.5195 73.0352C75.2461 75.4961 74.6133 77.1797 73.6211 78.0859C72.8164 78.8125 71.7656 79.1758 70.4688 79.1758C69.1797 79.1758 68.1914 78.8398 67.5039 78.168C66.8242 77.4883 66.4844 76.4883 66.4844 75.168C66.4844 74.5352 66.5234 73.875 66.6016 73.1875L67.9844 61.0938C68 60.9922 68.0234 60.9258 68.0547 60.8945C68.0938 60.8555 68.168 60.832 68.2773 60.8242L70.6445 60.7422C70.8398 60.75 70.9375 60.8438 70.9375 61.0234ZM48.7422 98.0664C48.0703 100.668 45.9688 101.973 42.4375 101.98L41.6992 108.625C41.6758 108.812 41.5781 108.91 41.4062 108.918L38.9453 109.047C38.7734 109.031 38.6875 108.957 38.6875 108.824L40.7148 91.0938C40.7461 90.9297 40.8477 90.8398 41.0195 90.8242C42.4805 90.6914 43.875 90.625 45.2031 90.625C47.8438 90.625 49.1641 91.8906 49.1641 94.4219C49.1641 95.8047 49.0234 97.0195 48.7422 98.0664ZM43.3984 93.3555L42.7305 99.2734C44.082 99.2734 44.9922 98.9922 45.4609 98.4297C45.9297 97.8672 46.1641 96.7734 46.1641 95.1484C46.1641 94.5234 45.9961 94.0625 45.6602 93.7656C45.3242 93.4688 44.8945 93.3203 44.3711 93.3203C43.8477 93.3203 43.5234 93.332 43.3984 93.3555ZM55.6445 91.0234L53.9688 105.918L58.457 105.742C58.6602 105.75 58.7617 105.852 58.7617 106.047L58.457 108.473C58.4336 108.676 58.332 108.781 58.1523 108.789L50.9336 109.047C50.7695 109.047 50.6875 108.973 50.6875 108.824L52.6914 91.0938C52.707 91 52.7305 90.9336 52.7617 90.8945C52.8008 90.8555 52.875 90.832 52.9844 90.8242L55.3398 90.7422C55.543 90.75 55.6445 90.8438 55.6445 91.0234ZM68.4297 91.0117L69.8008 108.66C69.8008 108.84 69.6992 108.938 69.4961 108.953L67.0469 109.047C66.8828 109.047 66.8008 108.973 66.8008 108.824L66.625 104.957L63.9648 105.062L63.0859 108.672C63.0625 108.781 63.0312 108.855 62.9922 108.895C62.9531 108.934 62.8828 108.957 62.7812 108.965L60.3555 109.047C60.1992 109.047 60.1211 108.973 60.1211 108.824L65.2656 91.0938C65.3203 90.9219 65.4258 90.832 65.582 90.8242L68.1602 90.7305C68.3242 90.7383 68.4141 90.832 68.4297 91.0117ZM66.2148 95.8398L64.5742 102.566L66.5195 102.496L66.2148 95.8398ZM75.8594 90.9648L77.1953 97.6562L79.5977 91.0938C79.6602 90.9219 79.7578 90.832 79.8906 90.8242L82.3047 90.7422C82.3984 90.75 82.4727 90.7812 82.5273 90.8359C82.5898 90.8906 82.6211 90.9492 82.6211 91.0117L78.25 100.785L77.3477 108.672C77.3242 108.859 77.2227 108.957 77.043 108.965L74.6289 109.047C74.457 109.047 74.3711 108.973 74.3711 108.824L75.25 101.043L72.8594 91.0117C72.8594 90.9023 72.9648 90.8398 73.1758 90.8242L75.5547 90.7305C75.7266 90.7383 75.8281 90.8164 75.8594 90.9648Z" fill="#362525"/>
</g>
<rect x="124.5" y="15.5" width="145" height="141" rx="7.5" fill="#9DCCC6" stroke="#362525"/>
<g filter="url(#filter1_d)">
<path d="M168.308 59.2478C177.051 55.7388 191.385 53.9184 191.385 53.9184L232.223 48.3529L236.613 82.6469C236.613 82.6469 242.31 101.232 248 110.794C234.687 116.49 207.766 121.47 207.766 121.47L174.528 126L167.018 67.335C167.018 67.335 165.821 62.6549 168.308 59.2457L168.308 59.2478Z" fill="#AEAEAD"/>
<path d="M156.167 49.7441C167.855 46.3689 183.56 44.3075 183.56 44.3075L231.15 38L236.266 76.8661C236.266 76.8661 238.018 92.108 244.649 102.946C232.018 118.217 202.647 120.866 202.647 120.866L163.914 126L155.162 59.5136C155.162 59.5136 154.404 53.1209 156.167 49.7441Z" fill="url(#paint0_linear)" stroke="#362525" stroke-width="2"/>
<path d="M183.254 72.4854L183.811 75.2734L184.812 72.5391C184.838 72.4674 184.878 72.43 184.934 72.4268L185.94 72.3926C185.979 72.3958 186.01 72.4089 186.032 72.4316C186.058 72.4544 186.071 72.4788 186.071 72.5049L184.25 76.5771L183.874 79.8633C183.864 79.9414 183.822 79.9821 183.747 79.9854L182.741 80.0195C182.67 80.0195 182.634 79.9886 182.634 79.9268L183 76.6846L182.004 72.5049C182.004 72.4593 182.048 72.4333 182.136 72.4268L183.127 72.3877C183.199 72.391 183.241 72.4235 183.254 72.4854ZM187.956 80.0537C187.38 80.0537 186.957 79.8812 186.687 79.5361C186.42 79.1878 186.286 78.6816 186.286 78.0176C186.286 77.7083 186.32 77.3047 186.389 76.8066C186.457 76.3086 186.521 75.9473 186.579 75.7227C186.638 75.4948 186.721 75.2734 186.828 75.0586C186.936 74.8405 187.063 74.6615 187.209 74.5215C187.531 74.209 187.968 74.0527 188.518 74.0527C189.299 74.0527 189.805 74.3392 190.036 74.9121C190.16 75.2181 190.222 75.5892 190.222 76.0254C190.222 76.4583 190.188 76.9076 190.119 77.373C190.054 77.8385 189.992 78.1836 189.934 78.4082C189.875 78.6296 189.792 78.8477 189.685 79.0625C189.581 79.2741 189.455 79.4499 189.309 79.5898C188.986 79.8991 188.536 80.0537 187.956 80.0537ZM188.82 77.915C188.856 77.7425 188.902 77.4202 188.957 76.9482C189.016 76.473 189.045 76.1214 189.045 75.8936C189.045 75.3402 188.845 75.0635 188.444 75.0635C188.256 75.0635 188.099 75.153 187.976 75.332C187.855 75.5111 187.758 75.8089 187.683 76.2256C187.533 77.0719 187.458 77.7588 187.458 78.2861C187.458 78.8135 187.657 79.0771 188.054 79.0771C188.243 79.0771 188.399 78.9876 188.523 78.8086C188.65 78.6263 188.749 78.3285 188.82 77.915ZM193.718 79.8975L193.757 79.5215C193.363 79.8763 192.917 80.0537 192.419 80.0537C192.045 80.0537 191.768 79.917 191.589 79.6436C191.413 79.3701 191.325 79.0283 191.325 78.6182C191.325 78.5498 191.332 78.457 191.345 78.3398L191.809 74.2529C191.819 74.1748 191.859 74.1341 191.931 74.1309L192.917 74.0918C192.986 74.0983 193.02 74.1325 193.02 74.1943L192.58 78.0469C192.57 78.1315 192.566 78.2096 192.566 78.2812C192.566 78.5547 192.618 78.737 192.722 78.8281C192.829 78.9193 192.989 78.9648 193.2 78.9648C193.415 78.9648 193.627 78.9242 193.835 78.8428L194.353 74.2529C194.362 74.1748 194.403 74.1341 194.475 74.1309L195.461 74.0967C195.529 74.1032 195.564 74.1374 195.564 74.1992L194.929 79.8486C194.919 79.9268 194.875 79.9691 194.797 79.9756L193.845 80.0195C193.76 80.0163 193.718 79.9756 193.718 79.8975ZM200.393 79.9268L199.983 74.082L199.616 79.8584C199.61 79.9398 199.568 79.9821 199.489 79.9854L198.557 80.0195C198.485 80.013 198.449 79.9821 198.449 79.9268L199.289 72.5391C199.296 72.5 199.306 72.4723 199.319 72.4561C199.335 72.4398 199.367 72.43 199.416 72.4268L200.647 72.3828C200.725 72.3861 200.767 72.4251 200.774 72.5L201.218 78.3789L202.912 72.5391C202.929 72.4674 202.974 72.43 203.049 72.4268L204.333 72.3828C204.415 72.3861 204.455 72.4251 204.455 72.5L203.625 79.8633C203.615 79.9414 203.571 79.9821 203.493 79.9854L202.487 80.0195C202.419 80.0195 202.385 79.9886 202.385 79.9268L203.337 73.9746L201.589 79.8682C201.563 79.943 201.516 79.9821 201.447 79.9854L200.5 80.0195C200.435 80.013 200.399 79.9821 200.393 79.9268ZM207.644 79.8975L207.683 79.5215C207.289 79.8763 206.843 80.0537 206.345 80.0537C205.971 80.0537 205.694 79.917 205.515 79.6436C205.339 79.3701 205.251 79.0283 205.251 78.6182C205.251 78.5498 205.258 78.457 205.271 78.3398L205.735 74.2529C205.744 74.1748 205.785 74.1341 205.857 74.1309L206.843 74.0918C206.911 74.0983 206.945 74.1325 206.945 74.1943L206.506 78.0469C206.496 78.1315 206.491 78.2096 206.491 78.2812C206.491 78.5547 206.543 78.737 206.648 78.8281C206.755 78.9193 206.915 78.9648 207.126 78.9648C207.341 78.9648 207.553 78.9242 207.761 78.8428L208.278 74.2529C208.288 74.1748 208.329 74.1341 208.401 74.1309L209.387 74.0967C209.455 74.1032 209.489 74.1374 209.489 74.1992L208.855 79.8486C208.845 79.9268 208.801 79.9691 208.723 79.9756L207.771 80.0195C207.686 80.0163 207.644 79.9756 207.644 79.8975ZM212.976 75.2344L212.424 75.21C212.268 75.21 212.144 75.2458 212.053 75.3174C211.965 75.389 211.921 75.4932 211.921 75.6299C211.921 75.7633 211.945 75.9115 211.994 76.0742C212.059 76.2923 212.172 76.5462 212.331 76.8359C212.494 77.1257 212.606 77.3307 212.668 77.4512C212.857 77.8255 212.951 78.182 212.951 78.5205C212.951 79.012 212.806 79.3913 212.517 79.6582C212.23 79.9219 211.794 80.0537 211.208 80.0537C210.918 80.0537 210.687 80.0374 210.515 80.0049C210.342 79.9756 210.246 79.9528 210.227 79.9365C210.21 79.917 210.202 79.8877 210.202 79.8486L210.329 78.9453C210.336 78.8639 210.363 78.8232 210.412 78.8232C210.464 78.8232 210.562 78.8411 210.705 78.877C210.848 78.9128 210.974 78.9307 211.081 78.9307C211.478 78.9307 211.677 78.7728 211.677 78.457C211.677 78.2324 211.628 78.0225 211.53 77.8271C211.436 77.6318 211.332 77.43 211.218 77.2217C211.107 77.0133 211.021 76.8473 210.959 76.7236C210.897 76.5967 210.832 76.4225 210.764 76.2012C210.699 75.9798 210.666 75.7715 210.666 75.5762C210.666 75.1204 210.801 74.7526 211.071 74.4727C211.345 74.1927 211.742 74.0527 212.263 74.0527C212.598 74.0527 212.86 74.069 213.049 74.1016C213.13 74.1146 213.171 74.1569 213.171 74.2285L213.064 75.0977C213.064 75.1888 213.034 75.2344 212.976 75.2344ZM214.729 74.1162C214.804 73.4001 214.852 73.0306 214.875 73.0078C214.898 72.9818 214.932 72.9671 214.978 72.9639L215.91 72.9297C215.998 72.9362 216.042 72.9769 216.042 73.0518C215.98 73.4131 215.928 73.7598 215.886 74.0918L217.024 74.0527C217.102 74.056 217.141 74.0983 217.141 74.1797L217.004 74.9561C216.991 75.0342 216.95 75.0749 216.882 75.0781L215.764 75.1221C215.542 77.1143 215.432 78.2129 215.432 78.418C215.432 78.7988 215.595 78.9893 215.92 78.9893C216.086 78.9893 216.247 78.9632 216.403 78.9111C216.56 78.859 216.657 78.833 216.696 78.833C216.765 78.833 216.799 78.8753 216.799 78.96L216.696 79.8145C216.69 79.8633 216.677 79.8991 216.657 79.9219C216.641 79.9447 216.561 79.9723 216.418 80.0049C216.278 80.0374 216.037 80.0537 215.695 80.0537C215.194 80.0537 214.823 79.9382 214.582 79.707C214.341 79.4727 214.221 79.1243 214.221 78.6621C214.221 78.1999 214.349 77.0247 214.607 75.1367L214.128 75.1562C214.047 75.153 214.006 75.1123 214.006 75.0342L214.138 74.248C214.148 74.1732 214.19 74.1341 214.265 74.1309L214.729 74.1162ZM196.223 88.4443C195.943 89.5283 195.067 90.0719 193.596 90.0752L193.288 92.8438C193.278 92.9219 193.238 92.9626 193.166 92.9658L192.141 93.0195C192.069 93.013 192.033 92.9821 192.033 92.9268L192.878 85.5391C192.891 85.4707 192.933 85.4333 193.005 85.4268C193.614 85.3714 194.195 85.3438 194.748 85.3438C195.848 85.3438 196.399 85.8711 196.399 86.9258C196.399 87.502 196.34 88.0081 196.223 88.4443ZM193.996 86.4814L193.718 88.9473C194.281 88.9473 194.66 88.8301 194.856 88.5957C195.051 88.3613 195.149 87.9056 195.149 87.2285C195.149 86.9681 195.079 86.776 194.939 86.6523C194.799 86.5286 194.62 86.4668 194.402 86.4668C194.183 86.4668 194.048 86.4717 193.996 86.4814ZM199.128 84.8701L198.23 92.8486C198.223 92.8942 198.212 92.9268 198.195 92.9463C198.179 92.9658 198.148 92.9772 198.103 92.9805L197.121 93.0195C197.05 93.013 197.014 92.9821 197.014 92.9268L197.917 84.9043C197.924 84.8587 197.935 84.8262 197.951 84.8066C197.968 84.7871 197.999 84.7757 198.044 84.7725L199.001 84.7383C199.086 84.748 199.128 84.792 199.128 84.8701ZM204.011 87.2236L203.376 92.8535C203.366 92.9382 203.324 92.9821 203.249 92.9854L202.263 93.0195C202.194 93.013 202.16 92.9821 202.16 92.9268L202.253 92.2627C202.103 92.5166 201.939 92.7119 201.76 92.8486C201.584 92.9854 201.386 93.0537 201.164 93.0537C200.943 93.0537 200.754 93.0163 200.598 92.9414C200.442 92.8633 200.313 92.7624 200.212 92.6387C200.114 92.5117 200.035 92.3604 199.973 92.1846C199.859 91.8721 199.802 91.4456 199.802 90.9053C199.802 90.3617 199.838 89.901 199.909 89.5234C199.984 89.1458 200.049 88.8594 200.105 88.6641C200.16 88.4655 200.233 88.262 200.324 88.0537C200.419 87.8454 200.525 87.6712 200.642 87.5312C200.909 87.2122 201.246 87.0527 201.653 87.0527C201.955 87.0527 202.186 87.126 202.346 87.2725C202.505 87.4157 202.639 87.6289 202.746 87.9121L202.805 87.248C202.811 87.1764 202.852 87.1374 202.927 87.1309L203.884 87.0967C203.969 87.1032 204.011 87.1455 204.011 87.2236ZM201.032 90.7637C201.032 91.5417 201.241 91.9307 201.657 91.9307C201.84 91.9307 201.988 91.8477 202.102 91.6816C202.216 91.5124 202.313 91.1755 202.395 90.6709C202.479 90.1663 202.522 89.7985 202.522 89.5674C202.522 89.3363 202.52 89.1898 202.517 89.1279C202.514 89.0661 202.507 88.9847 202.497 88.8838C202.487 88.7796 202.47 88.6934 202.444 88.625C202.417 88.5534 202.383 88.4818 202.341 88.4102C202.256 88.2702 202.12 88.2002 201.931 88.2002C201.742 88.2002 201.592 88.2848 201.482 88.4541C201.371 88.6201 201.285 88.8431 201.223 89.123C201.096 89.722 201.032 90.2689 201.032 90.7637ZM209.045 87.2236L206.228 95.2168C206.202 95.2982 206.154 95.3405 206.086 95.3438L205.105 95.3779C205.033 95.3747 204.997 95.3421 204.997 95.2803L205.837 92.9121L205.075 87.248C205.075 87.1732 205.116 87.1341 205.197 87.1309L206.159 87.0967C206.234 87.0999 206.275 87.1423 206.281 87.2236L206.653 91.3301L207.839 87.248C207.859 87.1732 207.901 87.1341 207.966 87.1309L208.923 87.0967C209.004 87.1032 209.045 87.1455 209.045 87.2236Z" fill="#362525"/>
</g>
<defs>
<filter id="filter0_d" x="34.6875" y="60.5547" width="51.9336" height="56.4922" filterUnits="userSpaceOnUse" color-interpolation-filters="sRGB">
<feFlood flood-opacity="0" result="BackgroundImageFix"/>
<feColorMatrix in="SourceAlpha" type="matrix" values="0 0 0 0 0 0 0 0 0 0 0 0 0 0 0 0 0 0 127 0"/>
<feOffset dy="4"/>
<feGaussianBlur stdDeviation="2"/>
<feColorMatrix type="matrix" values="0 0 0 0 0 0 0 0 0 0 0 0 0 0 0 0 0 0 0.25 0"/>
<feBlend mode="normal" in2="BackgroundImageFix" result="effect1_dropShadow"/>
<feBlend mode="normal" in="SourceGraphic" in2="effect1_dropShadow" result="shape"/>
</filter>
<filter id="filter1_d" x="150" y="36.8772" width="102" height="98.2457" filterUnits="userSpaceOnUse" color-interpolation-filters="sRGB">
<feFlood flood-opacity="0" result="BackgroundImageFix"/>
<feColorMatrix in="SourceAlpha" type="matrix" values="0 0 0 0 0 0 0 0 0 0 0 0 0 0 0 0 0 0 127 0"/>
<feOffset dy="4"/>
<feGaussianBlur stdDeviation="2"/>
<feColorMatrix type="matrix" values="0 0 0 0 0 0 0 0 0 0 0 0 0 0 0 0 0 0 0.25 0"/>
<feBlend mode="normal" in2="BackgroundImageFix" result="effect1_dropShadow"/>
<feBlend mode="normal" in="SourceGraphic" in2="effect1_dropShadow" result="shape"/>
</filter>
<linearGradient id="paint0_linear" x1="160.846" y1="50.4049" x2="163.729" y2="56.9935" gradientUnits="userSpaceOnUse">
<stop stop-color="#CCCCCC"/>
<stop offset="1" stop-color="#DEDDC4"/>
</linearGradient>
</defs>
</svg>
