<svg width="285" height="172" viewBox="0 0 285 172" fill="none" xmlns="http://www.w3.org/2000/svg">
<rect x="0.5" y="0.5" width="284" height="171" rx="13.5" fill="#E6E6E6" stroke="#362525"/>
<rect x="122.5" y="15.5" width="145" height="141" rx="7.5" fill="#CC9D9D" stroke="black"/>
<g filter="url(#filter0_d)">
<path d="M229.136 63.6363L229.123 63.6216L212.68 44.7341C210.645 43.6052 207.98 43.3269 205.049 43.594C202.092 43.8635 198.924 44.6827 195.984 45.6696C193.046 46.6554 190.352 47.8029 188.343 48.7193C187.34 49.1773 186.508 49.5772 185.904 49.8703C185.818 49.9121 185.736 49.9518 185.658 49.9893C185.466 50.0829 185.302 50.1626 185.171 50.225C185.036 50.2892 184.904 50.352 184.81 50.3876C183.478 51.0689 181.705 51.6627 179.736 52.3047C179.577 52.3567 179.416 52.4091 179.253 52.462C177.383 53.0706 175.334 53.7375 173.248 54.5786C168.713 56.4062 164.057 59.0349 160.812 63.5785C159.638 65.318 158.569 67.4648 157.448 69.9307C156.965 70.9941 156.466 72.1315 155.945 73.3192C155.273 74.8515 154.564 76.4676 153.805 78.1166C151.084 84.0271 147.575 90.6875 142.036 97.1816C140.061 99.4966 138.538 101.552 137.46 103.35C136.379 105.153 135.761 106.669 135.567 107.91C135.375 109.139 135.6 110.065 136.169 110.76C136.751 111.47 137.752 112.014 139.265 112.335L139.27 112.336C139.554 112.399 139.859 112.456 140.199 112.52C141.012 112.673 142.031 112.865 143.477 113.271C145.536 113.849 148.498 114.87 153.157 116.864C161.666 118.866 174.351 121.757 184.62 121.975C184.62 121.975 184.621 121.975 184.621 121.975L184.61 122.475C188.484 122.542 192.172 122.737 195.677 122.922C203.541 123.338 210.478 123.704 216.486 122.475L229.136 63.6363ZM229.136 63.6363L229.15 63.6499C235.226 69.6203 238.18 73.6218 239.869 76.717C240.713 78.2637 241.246 79.5932 241.696 80.845C241.833 81.2244 241.963 81.6011 242.093 81.9767C242.387 82.8281 242.68 83.6736 243.038 84.5307L229.136 63.6363Z" fill="#616161" stroke="black"/>
<path d="M244.94 111.043L244.94 111.043L244.93 111.049C241.54 112.887 236.3 115.255 231.071 117.345C225.836 119.437 220.651 121.233 217.364 121.943L217.361 121.943C209.966 123.576 195.545 123.997 184.749 123.793C175.897 123.59 167.248 122.347 159.915 120.455C159.132 120.253 157.63 119.74 156.267 119.093C155.585 118.77 154.955 118.421 154.472 118.072C153.968 117.706 153.708 117.399 153.636 117.183L153.625 117.149L153.609 117.117C153.559 117.018 153.526 116.811 153.609 116.424C153.689 116.05 153.861 115.579 154.125 115.012C154.653 113.879 155.502 112.448 156.544 110.789C157.068 109.956 157.639 109.067 158.237 108.136C160.008 105.379 162.022 102.245 163.777 99.0399C167.28 92.641 167.435 85.2712 167.257 78.7677C167.234 77.9209 167.205 77.0903 167.177 76.2785C167.096 73.9517 167.021 71.7789 167.098 69.8203C167.202 67.1765 167.584 65.0269 168.54 63.4964C171.314 59.3055 175.583 56.8753 179.768 55.1815C181.623 54.4306 183.448 53.8299 185.112 53.2819C185.325 53.2119 185.535 53.1427 185.742 53.0742C187.537 52.4804 189.145 51.9277 190.302 51.2902C190.349 51.2705 190.393 51.2474 190.425 51.2308C190.482 51.2011 190.552 51.1624 190.633 51.1172C190.772 51.0395 190.953 50.9359 191.169 50.8123L191.278 50.7498C191.809 50.4457 192.539 50.0293 193.42 49.5499C195.182 48.5907 197.546 47.3817 200.117 46.3228C202.692 45.2624 205.455 44.3608 208.021 44.004C210.579 43.6485 212.87 43.8436 214.588 44.8818L229.733 58.2915C234.957 63.8309 239.086 68.5418 242.126 72.428C245.174 76.3258 247.1 79.3613 247.949 81.5529C250.418 88.1616 252.58 94.0572 252.659 99.0632C252.698 101.549 252.222 103.788 251.027 105.774C249.831 107.76 247.892 109.533 244.94 111.043Z" fill="#989898" stroke="black"/>
<path d="M186.234 77.1482C186.234 79.1494 186.46 81.0499 186.692 82.7576C186.73 83.0425 186.769 83.3211 186.807 83.5935C186.998 84.9691 187.167 86.1842 187.198 87.231C187.236 88.494 187.065 89.38 186.603 89.9543C186.16 90.5055 185.35 90.8864 183.8 90.8864C182.34 90.8864 180.851 90.1991 179.415 88.979C177.981 87.7611 176.638 86.0419 175.482 84.0605C173.167 80.0901 171.661 75.1649 171.661 71.3407C171.661 70.3972 171.808 69.8353 172.009 69.4964C172.196 69.1827 172.456 69.0155 172.823 68.9225C173.217 68.8229 173.703 68.8161 174.312 68.8286C174.394 68.8302 174.478 68.8323 174.564 68.8343C175.091 68.8469 175.683 68.8611 176.286 68.8091C177.726 68.6848 179.275 68.1807 180.579 66.439C181.814 64.79 182.799 62.072 183.34 57.6248C183.863 57.6799 184.294 57.834 184.655 58.0631C185.114 58.3551 185.488 58.7884 185.788 59.361C186.398 60.5229 186.673 62.1977 186.747 64.1949C186.82 66.1802 186.694 68.4161 186.547 70.666C186.53 70.9274 186.513 71.189 186.495 71.4503C186.364 73.428 186.234 75.3935 186.234 77.1482Z" fill="#737373" stroke="black"/>
<path d="M159.154 89.5284C159.154 90.176 159.298 90.7801 159.434 91.2876C159.458 91.3793 159.482 91.4664 159.504 91.5493C159.615 91.9543 159.698 92.2592 159.713 92.5188C159.721 92.6621 159.705 92.7509 159.681 92.8082C159.66 92.8569 159.624 92.9091 159.537 92.9644C159.33 93.0952 158.88 93.2161 157.956 93.2161C156.157 93.2161 154.552 92.7657 153.414 92.0639C152.267 91.3572 151.661 90.4468 151.661 89.5284C151.661 89.3492 151.71 89.3071 151.728 89.2909C151.773 89.2532 151.878 89.2011 152.116 89.1705C152.348 89.1407 152.634 89.1388 152.986 89.1425C153.034 89.143 153.082 89.1436 153.132 89.1442C153.437 89.1479 153.778 89.152 154.125 89.1368C154.933 89.1014 155.855 88.9603 156.663 88.4124C157.408 87.9068 157.999 87.0946 158.345 85.8486C159.011 85.8776 159.362 85.9815 159.537 86.0924C159.624 86.1477 159.66 86.1999 159.681 86.2486C159.705 86.3058 159.721 86.3947 159.713 86.538C159.698 86.7976 159.615 87.1025 159.504 87.5075C159.482 87.5904 159.458 87.6775 159.434 87.7692C159.298 88.2767 159.154 88.8808 159.154 89.5284Z" fill="#A3A3A3" stroke="black"/>
<path d="M228.619 103.531C228.619 103.957 228.806 104.33 228.94 104.582C228.968 104.634 228.993 104.679 229.016 104.721C229.056 104.795 229.09 104.856 229.122 104.921C229.131 104.94 229.139 104.958 229.146 104.974C229.138 104.977 229.128 104.98 229.118 104.983C228.863 105.064 228.357 105.125 227.42 105.125C225.58 105.125 223.933 104.894 222.763 104.534C222.175 104.352 221.736 104.147 221.454 103.942C221.29 103.822 221.207 103.724 221.165 103.651C221.25 103.632 221.375 103.614 221.549 103.603C221.8 103.587 222.103 103.586 222.453 103.588C222.502 103.588 222.551 103.588 222.601 103.589C222.907 103.591 223.239 103.593 223.579 103.585C224.364 103.568 225.239 103.5 226.008 103.239C226.691 103.008 227.324 102.611 227.723 101.939C228.469 101.951 228.892 102.007 229.118 102.078C229.128 102.082 229.138 102.085 229.146 102.088C229.139 102.104 229.131 102.121 229.122 102.141C229.09 102.206 229.056 102.267 229.016 102.341C228.993 102.382 228.968 102.428 228.94 102.48C228.806 102.732 228.619 103.105 228.619 103.531Z" fill="#686868" stroke="black"/>
<path d="M180.559 104.085C178.578 104.593 176.901 105.727 175.41 107.022C174.463 107.845 173.557 108.765 172.697 109.639C172.222 110.121 171.761 110.59 171.315 111.02C170.023 112.263 168.827 113.217 167.583 113.59C166.426 113.938 165.162 113.799 163.645 112.732C163.351 111.332 163.65 109.827 164.419 108.295C165.22 106.698 166.518 105.101 168.114 103.624C171.311 100.667 175.624 98.2631 179.281 97.326C180.999 96.8859 182.472 97.2418 184.039 98.0392C184.828 98.4413 185.633 98.9513 186.503 99.525C186.718 99.6664 186.936 99.8117 187.159 99.96C187.833 100.409 188.548 100.884 189.308 101.355C193.324 103.844 198.697 106.258 207.744 105.13C207.749 105.268 207.737 105.385 207.712 105.484C207.666 105.668 207.572 105.818 207.42 105.948C207.093 106.228 206.486 106.426 205.554 106.499C203.708 106.643 200.987 106.276 197.911 105.755C196.963 105.594 195.984 105.42 194.993 105.242C192.796 104.85 190.537 104.447 188.427 104.163C185.38 103.754 182.537 103.578 180.559 104.085Z" fill="#737373" stroke="black"/>
<path d="M193.351 116.818C194.188 116.549 194.792 115.875 195.263 115.182C195.563 114.739 195.849 114.224 196.11 113.752C196.249 113.501 196.382 113.262 196.506 113.053C196.696 112.732 196.876 112.463 197.056 112.256C197.237 112.048 197.395 111.93 197.534 111.875C197.735 111.796 198.083 111.783 198.715 112.379C198.89 113.069 198.733 113.785 198.301 114.526C197.841 115.315 197.089 116.092 196.191 116.81C194.395 118.246 192.127 119.352 190.837 119.767C190.586 119.848 190.43 119.83 190.319 119.787C190.197 119.741 190.066 119.639 189.912 119.443C189.756 119.245 189.604 118.988 189.426 118.669C189.396 118.614 189.365 118.558 189.333 118.5C189.184 118.232 189.019 117.933 188.832 117.637C188.374 116.909 187.753 116.138 186.767 115.621C186.545 115.504 186.306 115.402 186.051 115.316C186.167 115.351 186.286 115.387 186.406 115.424C186.771 115.536 187.153 115.658 187.541 115.783C188.412 116.062 189.317 116.352 190.151 116.569C190.758 116.727 191.347 116.852 191.88 116.908C192.404 116.964 192.918 116.957 193.351 116.818ZM184.756 114.969C185.03 115.03 185.325 115.107 185.637 115.195C184.942 115.023 184.128 114.962 183.167 115.049C183.167 114.956 183.189 114.92 183.192 114.916C183.195 114.911 183.256 114.832 183.564 114.819C183.857 114.806 184.257 114.858 184.756 114.969Z" fill="#494949" stroke="black"/>
<path d="M232.632 77.1482C232.632 78.1247 232.792 79.0459 232.952 79.8531C232.979 79.9919 233.006 80.1261 233.032 80.2559C233.163 80.9036 233.272 81.4438 233.292 81.9077C233.316 82.4514 233.209 82.7501 232.984 82.9422C232.729 83.1606 232.204 83.3485 231.125 83.3485C230.221 83.3485 229.083 82.708 227.829 81.5195C226.598 80.3533 225.346 78.746 224.221 77.0078C223.097 75.2719 222.111 73.4232 221.408 71.7855C220.695 70.1262 220.303 68.7503 220.303 67.9352C220.303 67.9189 220.303 67.9039 220.304 67.89C220.348 67.9111 220.403 67.9399 220.468 67.979C220.633 68.0775 220.831 68.2189 221.06 68.4006C221.519 68.7646 222.064 69.255 222.672 69.804L222.701 69.83C223.296 70.3672 223.946 70.9532 224.607 71.5011C225.279 72.0571 225.976 72.5842 226.657 72.9885C227.332 73.3889 228.031 73.6928 228.702 73.7586C229.4 73.827 230.066 73.6347 230.594 73.0632C231.033 72.5886 231.343 71.8878 231.539 70.958C232.343 71 232.764 71.1657 232.984 71.3542C233.209 71.5462 233.316 71.845 233.292 72.3887C233.272 72.8525 233.163 73.3927 233.032 74.0404C233.006 74.1703 232.979 74.3045 232.952 74.4432C232.792 75.2505 232.632 76.1717 232.632 77.1482Z" fill="#A7A7A7" stroke="black"/>
<path d="M218.09 111.961C218.09 112.341 218.21 112.683 218.305 112.933C218.324 112.982 218.341 113.026 218.357 113.066C218.385 113.139 218.41 113.201 218.432 113.266C218.451 113.32 218.463 113.361 218.47 113.392C218.33 113.446 218.023 113.5 217.409 113.5C216.865 113.5 216.202 113.303 215.488 112.953C214.781 112.606 214.061 112.128 213.413 111.61C212.765 111.092 212.203 110.545 211.808 110.069C211.68 109.915 211.573 109.773 211.487 109.644C211.752 109.753 212.066 109.899 212.423 110.066L212.44 110.074C212.79 110.237 213.174 110.417 213.566 110.585C214.348 110.919 215.226 111.239 215.987 111.277C216.374 111.297 216.775 111.247 217.125 111.051C217.384 110.906 217.589 110.696 217.736 110.427C218.137 110.443 218.358 110.486 218.47 110.53C218.463 110.561 218.451 110.601 218.432 110.656C218.41 110.721 218.385 110.782 218.357 110.855C218.341 110.896 218.324 110.939 218.305 110.989C218.21 111.239 218.09 111.581 218.09 111.961ZM210.952 109.475C210.952 109.475 210.954 109.475 210.959 109.475C210.955 109.475 210.952 109.475 210.952 109.475Z" fill="#5D5D5D" stroke="black"/>
<path d="M148.502 106.327C148.502 106.707 148.622 107.049 148.717 107.299C148.736 107.348 148.753 107.392 148.769 107.432C148.798 107.505 148.822 107.567 148.844 107.631C148.863 107.686 148.875 107.727 148.882 107.757C148.742 107.812 148.435 107.866 147.821 107.866C147.277 107.866 146.614 107.669 145.9 107.319C145.193 106.972 144.473 106.494 143.825 105.976C143.177 105.458 142.615 104.911 142.22 104.435C142.092 104.281 141.985 104.138 141.899 104.01C142.164 104.119 142.478 104.265 142.835 104.431L142.852 104.44C143.202 104.603 143.586 104.782 143.978 104.95C144.76 105.285 145.638 105.604 146.4 105.643C146.786 105.663 147.187 105.613 147.537 105.416C147.796 105.271 148.001 105.062 148.148 104.793C148.549 104.809 148.77 104.852 148.882 104.896C148.875 104.926 148.863 104.967 148.844 105.022C148.822 105.086 148.798 105.148 148.769 105.221C148.753 105.262 148.736 105.305 148.717 105.355C148.622 105.604 148.502 105.947 148.502 106.327ZM141.364 103.841C141.364 103.841 141.366 103.84 141.371 103.841C141.367 103.841 141.365 103.841 141.364 103.841Z" fill="#828282" stroke="black"/>
<path d="M203.745 79.1628C202.456 79.369 201.272 79.7924 200.232 80.194C200.054 80.2624 199.882 80.3296 199.716 80.3949C198.88 80.7216 198.171 80.999 197.545 81.1294C196.814 81.2816 196.33 81.2038 195.959 80.8614C195.548 80.4822 195.167 79.6873 194.924 78.1123C193.959 71.8618 197.106 66.4003 201.662 65.6717C202.202 65.5853 202.502 65.6697 202.687 65.7947C202.88 65.925 203.038 66.1602 203.168 66.5617C203.299 66.9648 203.38 67.4675 203.465 68.0672C203.476 68.1494 203.488 68.2331 203.5 68.3183C203.572 68.8403 203.652 69.4153 203.775 69.9953C204.061 71.3511 204.594 72.8123 205.901 73.9364C207.145 75.0074 209.025 75.7159 211.882 75.8203C212.044 77.1401 211.92 77.9047 211.668 78.3496C211.418 78.7913 210.981 79.0162 210.24 79.0995C209.604 79.1708 208.846 79.1282 207.952 79.0779C207.774 79.0678 207.59 79.0575 207.4 79.0477C206.289 78.9902 205.035 78.9566 203.745 79.1628Z" fill="#B0B0B0" stroke="black"/>
<path d="M212.937 51.1842C212.937 53.2717 213.921 54.7996 215.191 55.8951C216.206 56.7703 217.413 57.3796 218.477 57.8036C218.373 57.8035 218.267 57.8034 218.157 57.8034C213.424 57.8034 211.111 60.1061 210.006 61.6865C210.011 61.3266 210.015 60.8989 210.015 60.3973C210.015 59.4022 209.815 58.6463 209.32 58.1898C208.81 57.7189 208.132 57.6968 207.513 57.8074C206.889 57.919 206.192 58.189 205.514 58.4694C205.362 58.5322 205.211 58.5957 205.06 58.659C204.519 58.8863 203.986 59.1102 203.464 59.2861C202.795 59.5118 202.209 59.6342 201.729 59.594C201.279 59.5564 200.92 59.3786 200.642 58.9596C200.345 58.5102 200.115 57.7435 200.069 56.479C200.026 55.3004 200.143 53.735 200.474 51.6793C204.52 51.5853 207.549 50.167 209.621 49.1968C209.947 49.0442 210.249 48.9028 210.527 48.7793C211.063 48.542 211.481 48.3844 211.813 48.3214C212.14 48.2593 212.303 48.3045 212.401 48.3734C212.509 48.4498 212.655 48.6365 212.767 49.1082C212.877 49.5738 212.937 50.244 212.937 51.1842Z" fill="#C4C4C4" stroke="black"/>
<path d="M219.187 86.4031C219.187 88.4906 220.171 90.0185 221.441 91.114C222.456 91.9892 223.663 92.5985 224.727 93.0225C224.624 93.0224 224.517 93.0223 224.407 93.0223C219.674 93.0223 217.361 95.325 216.257 96.9054C216.261 96.5455 216.265 96.1178 216.265 95.6162C216.265 94.6211 216.066 93.8652 215.571 93.4087C215.06 92.9378 214.383 92.9157 213.764 93.0263C213.139 93.1379 212.442 93.4079 211.765 93.6883C211.613 93.7511 211.462 93.8146 211.311 93.8779C210.77 94.1052 210.236 94.3291 209.715 94.505C209.045 94.7307 208.46 94.8531 207.979 94.8129C207.529 94.7753 207.17 94.5975 206.893 94.1785C206.595 93.7291 206.366 92.9624 206.319 91.6979C206.276 90.5193 206.393 88.9539 206.725 86.8982C210.77 86.8042 213.799 85.3859 215.871 84.4157C216.197 84.2631 216.499 84.1217 216.778 83.9982C217.313 83.7609 217.732 83.6033 218.063 83.5403C218.39 83.4782 218.553 83.5234 218.651 83.5923C218.76 83.6687 218.906 83.8554 219.017 84.3271C219.127 84.7927 219.187 85.4629 219.187 86.4031Z" fill="#6D6D6D" stroke="black"/>
<path d="M240.886 93.7385C241.777 94.1496 242.702 94.3388 243.512 94.4798C243.654 94.5044 243.79 94.5274 243.921 94.5495C244.572 94.6594 245.099 94.7483 245.512 94.9104C245.748 95.0031 245.908 95.1068 246.016 95.2223C246.116 95.3309 246.192 95.473 246.223 95.6878C246.291 96.1548 246.148 96.9406 245.556 98.2686C244.394 100.879 242.696 102.918 240.915 104.114C239.128 105.316 237.329 105.629 235.886 104.963C235.57 104.817 235.468 104.662 235.428 104.526C235.379 104.358 235.389 104.108 235.502 103.731C235.613 103.359 235.801 102.932 236.029 102.433C236.061 102.364 236.093 102.295 236.126 102.224C236.325 101.79 236.545 101.313 236.741 100.815C237.197 99.6547 237.56 98.3014 237.303 96.8615C237.058 95.4918 236.266 94.1179 234.625 92.7915C235.142 91.7065 235.574 91.17 235.927 90.9386C236.107 90.821 236.262 90.7852 236.408 90.7907C236.564 90.7966 236.747 90.8509 236.971 90.9705C237.363 91.1796 237.776 91.5243 238.286 91.95C238.389 92.0359 238.496 92.125 238.607 92.2171C239.245 92.7439 239.995 93.3274 240.886 93.7385Z" fill="#A6A6A6" stroke="black"/>
</g>
<g filter="url(#filter1_d)">
<path d="M46.6445 60.9648L47.9805 67.6562L50.3828 61.0938C50.4453 60.9219 50.543 60.832 50.6758 60.8242L53.0898 60.7422C53.1836 60.75 53.2578 60.7812 53.3125 60.8359C53.375 60.8906 53.4062 60.9492 53.4062 61.0117L49.0352 70.7852L48.1328 78.6719C48.1094 78.8594 48.0078 78.957 47.8281 78.9648L45.4141 79.0469C45.2422 79.0469 45.1562 78.9727 45.1562 78.8242L46.0352 71.043L43.6445 61.0117C43.6445 60.9023 43.75 60.8398 43.9609 60.8242L46.3398 60.7305C46.5117 60.7383 46.6133 60.8164 46.6445 60.9648ZM57.9883 79.1758C56.6758 79.1758 55.6836 78.7852 55.0117 78.0039C54.3398 77.2227 54.0039 76.2461 54.0039 75.0742C54.0039 72.0898 54.3047 69.1406 54.9062 66.2266C55.3828 63.9375 56.043 62.4062 56.8867 61.6328C57.6836 60.9141 58.7344 60.5547 60.0391 60.5547C61.3516 60.5547 62.3438 60.9492 63.0156 61.7383C63.6953 62.5273 64.0352 63.5 64.0352 64.6562C64.0352 65.8047 63.9609 67.1992 63.8125 68.8398C63.6641 70.4727 63.4805 71.8398 63.2617 72.9414C63.043 74.0352 62.8555 74.8359 62.6992 75.3438C62.5508 75.8438 62.3438 76.3516 62.0781 76.8672C61.8125 77.3828 61.5039 77.7969 61.1523 78.1094C60.3633 78.8203 59.3086 79.1758 57.9883 79.1758ZM58.293 76.4102C59.2852 76.4102 59.9219 75.4961 60.2031 73.668C60.3906 72.457 60.5781 70.9492 60.7656 69.1445C60.9531 67.3398 61.0469 66.0703 61.0469 65.3359C61.0469 64.6016 60.9258 64.082 60.6836 63.7773C60.4492 63.4727 60.1133 63.3203 59.6758 63.3203C58.7695 63.3203 58.1562 64.2383 57.8359 66.0742C57.6484 67.1523 57.4609 68.6172 57.2734 70.4688C57.0859 72.3125 56.9922 73.6133 56.9922 74.3711C56.9922 75.1289 57.1133 75.6602 57.3555 75.9648C57.6055 76.2617 57.918 76.4102 58.293 76.4102ZM70.9375 61.0234L69.5898 73.0352C69.4805 73.957 69.4258 74.6133 69.4258 75.0039C69.4258 75.3945 69.5352 75.7266 69.7539 76C69.9727 76.2734 70.3281 76.4102 70.8203 76.4102C71.3125 76.4102 71.6875 76.1641 71.9453 75.6719C72.2031 75.1797 72.3945 74.3906 72.5195 73.3047L73.8906 61.0938C73.9141 60.9219 74.0195 60.832 74.207 60.8242L76.5742 60.7305C76.7695 60.7383 76.8672 60.832 76.8672 61.0117L75.5195 73.0352C75.2461 75.4961 74.6133 77.1797 73.6211 78.0859C72.8164 78.8125 71.7656 79.1758 70.4688 79.1758C69.1797 79.1758 68.1914 78.8398 67.5039 78.168C66.8242 77.4883 66.4844 76.4883 66.4844 75.168C66.4844 74.5352 66.5234 73.875 66.6016 73.1875L67.9844 61.0938C68 60.9922 68.0234 60.9258 68.0547 60.8945C68.0938 60.8555 68.168 60.832 68.2773 60.8242L70.6445 60.7422C70.8398 60.75 70.9375 60.8438 70.9375 61.0234ZM48.7422 98.0664C48.0703 100.668 45.9688 101.973 42.4375 101.98L41.6992 108.625C41.6758 108.812 41.5781 108.91 41.4062 108.918L38.9453 109.047C38.7734 109.031 38.6875 108.957 38.6875 108.824L40.7148 91.0938C40.7461 90.9297 40.8477 90.8398 41.0195 90.8242C42.4805 90.6914 43.875 90.625 45.2031 90.625C47.8438 90.625 49.1641 91.8906 49.1641 94.4219C49.1641 95.8047 49.0234 97.0195 48.7422 98.0664ZM43.3984 93.3555L42.7305 99.2734C44.082 99.2734 44.9922 98.9922 45.4609 98.4297C45.9297 97.8672 46.1641 96.7734 46.1641 95.1484C46.1641 94.5234 45.9961 94.0625 45.6602 93.7656C45.3242 93.4688 44.8945 93.3203 44.3711 93.3203C43.8477 93.3203 43.5234 93.332 43.3984 93.3555ZM55.6445 91.0234L53.9688 105.918L58.457 105.742C58.6602 105.75 58.7617 105.852 58.7617 106.047L58.457 108.473C58.4336 108.676 58.332 108.781 58.1523 108.789L50.9336 109.047C50.7695 109.047 50.6875 108.973 50.6875 108.824L52.6914 91.0938C52.707 91 52.7305 90.9336 52.7617 90.8945C52.8008 90.8555 52.875 90.832 52.9844 90.8242L55.3398 90.7422C55.543 90.75 55.6445 90.8438 55.6445 91.0234ZM68.4297 91.0117L69.8008 108.66C69.8008 108.84 69.6992 108.938 69.4961 108.953L67.0469 109.047C66.8828 109.047 66.8008 108.973 66.8008 108.824L66.625 104.957L63.9648 105.062L63.0859 108.672C63.0625 108.781 63.0312 108.855 62.9922 108.895C62.9531 108.934 62.8828 108.957 62.7812 108.965L60.3555 109.047C60.1992 109.047 60.1211 108.973 60.1211 108.824L65.2656 91.0938C65.3203 90.9219 65.4258 90.832 65.582 90.8242L68.1602 90.7305C68.3242 90.7383 68.4141 90.832 68.4297 91.0117ZM66.2148 95.8398L64.5742 102.566L66.5195 102.496L66.2148 95.8398ZM75.8594 90.9648L77.1953 97.6562L79.5977 91.0938C79.6602 90.9219 79.7578 90.832 79.8906 90.8242L82.3047 90.7422C82.3984 90.75 82.4727 90.7812 82.5273 90.8359C82.5898 90.8906 82.6211 90.9492 82.6211 91.0117L78.25 100.785L77.3477 108.672C77.3242 108.859 77.2227 108.957 77.043 108.965L74.6289 109.047C74.457 109.047 74.3711 108.973 74.3711 108.824L75.25 101.043L72.8594 91.0117C72.8594 90.9023 72.9648 90.8398 73.1758 90.8242L75.5547 90.7305C75.7266 90.7383 75.8281 90.8164 75.8594 90.9648Z" fill="#362525"/>
</g>
<defs>
<filter id="filter0_d" x="131" y="43" width="126.161" height="89.3406" filterUnits="userSpaceOnUse" color-interpolation-filters="sRGB">
<feFlood flood-opacity="0" result="BackgroundImageFix"/>
<feColorMatrix in="SourceAlpha" type="matrix" values="0 0 0 0 0 0 0 0 0 0 0 0 0 0 0 0 0 0 127 0"/>
<feOffset dy="4"/>
<feGaussianBlur stdDeviation="2"/>
<feColorMatrix type="matrix" values="0 0 0 0 0 0 0 0 0 0 0 0 0 0 0 0 0 0 0.25 0"/>
<feBlend mode="normal" in2="BackgroundImageFix" result="effect1_dropShadow"/>
<feBlend mode="normal" in="SourceGraphic" in2="effect1_dropShadow" result="shape"/>
</filter>
<filter id="filter1_d" x="34.6875" y="60.5547" width="51.9336" height="56.4922" filterUnits="userSpaceOnUse" color-interpolation-filters="sRGB">
<feFlood flood-opacity="0" result="BackgroundImageFix"/>
<feColorMatrix in="SourceAlpha" type="matrix" values="0 0 0 0 0 0 0 0 0 0 0 0 0 0 0 0 0 0 127 0"/>
<feOffset dy="4"/>
<feGaussianBlur stdDeviation="2"/>
<feColorMatrix type="matrix" values="0 0 0 0 0 0 0 0 0 0 0 0 0 0 0 0 0 0 0.25 0"/>
<feBlend mode="normal" in2="BackgroundImageFix" result="effect1_dropShadow"/>
<feBlend mode="normal" in="SourceGraphic" in2="effect1_dropShadow" result="shape"/>
</filter>
</defs>
</svg>
