<svg width="285" height="172" viewBox="0 0 285 172" fill="none" xmlns="http://www.w3.org/2000/svg">
<rect x="0.5" y="0.5" width="284" height="171" rx="13.5" fill="#E6E6E6" stroke="#362525"/>
<rect x="122.5" y="15.5" width="145" height="141" rx="7.5" fill="#9DA2CC" stroke="black"/>
<path fill-rule="evenodd" clip-rule="evenodd" d="M241.511 66.5453L200.153 92.8792L188.907 97.5941L185.964 91.9409C191.333 90.0274 192.793 82.6701 190.086 79.1097C198.544 75.6211 221.014 66.1435 229.449 62.6073C235.101 60.0154 239.146 61.8168 241.512 66.5453L241.511 66.5453Z" fill="#EAE1E1" stroke="#362525" stroke-width="1.82685"/>
<path d="M188.551 97.729L180.688 101.034C183.094 101.568 186.31 105.23 187.656 107.996C191.364 115.616 188.084 124.441 180.36 127.689C172.637 130.936 163.341 127.398 159.634 119.777C156.049 112.41 158.985 103.898 166.162 100.407L166.152 100.386L166.919 100.063L185.821 92.117L188.551 97.7293L188.551 97.729ZM181.143 110.734C179.16 106.658 174.176 104.751 170.044 106.488C165.912 108.225 164.161 112.963 166.145 117.039C168.128 121.116 173.103 123 177.233 121.264C181.364 119.527 183.127 114.811 181.143 110.734Z" fill="#DE943E" stroke="#362525" stroke-width="1.92515"/>
<path fill-rule="evenodd" clip-rule="evenodd" d="M243.379 101.36L199.131 75.7832L187.371 71.2719L185.156 76.7177C190.087 78.4268 192.481 84.8712 189.779 89.3055C198.617 92.6409 222.947 102.124 231.767 105.507C237.702 107.996 241.542 106.125 243.379 101.36L243.379 101.36Z" fill="#EAE1E1" stroke="#362525" stroke-width="1.82685"/>
<path d="M187.144 71.1788L178.921 68.0157C181.265 67.4404 184.071 63.7253 185.108 60.9376C187.963 53.2593 183.705 44.501 175.627 41.3932C167.55 38.2864 158.656 41.9855 155.801 49.6636C153.041 57.087 156.921 65.5391 164.48 68.8991L164.471 68.9209L165.274 69.2297L185.036 76.6139L187.145 71.1784L187.144 71.1788ZM178.296 58.3176C176.769 62.4253 172.002 64.4181 167.681 62.7558C163.36 61.0935 161.083 56.3915 162.611 52.2839C164.139 48.1762 168.899 46.2058 173.218 47.8674C177.538 49.529 179.824 54.2099 178.296 58.3176Z" fill="#DE943E" stroke="#362525" stroke-width="1.92515"/>
<path d="M195.54 85.8631C194.65 84.0286 195.436 81.909 197.296 81.1294C199.155 80.3499 201.385 81.2051 202.275 83.0395C203.165 84.8739 202.38 86.9933 200.52 87.7728C198.661 88.5524 196.43 87.6975 195.54 85.8631" fill="#DE943E"/>
<path d="M195.54 85.8631C194.65 84.0286 195.436 81.909 197.296 81.1294C199.155 80.3499 201.385 81.2051 202.275 83.0395C203.165 84.8739 202.38 86.9933 200.52 87.7728C198.661 88.5524 196.43 87.6975 195.54 85.8631" stroke="#362525" stroke-width="1.20322"/>
<g filter="url(#filter0_d)">
<path d="M46.6445 60.9648L47.9805 67.6562L50.3828 61.0938C50.4453 60.9219 50.543 60.832 50.6758 60.8242L53.0898 60.7422C53.1836 60.75 53.2578 60.7812 53.3125 60.8359C53.375 60.8906 53.4062 60.9492 53.4062 61.0117L49.0352 70.7852L48.1328 78.6719C48.1094 78.8594 48.0078 78.957 47.8281 78.9648L45.4141 79.0469C45.2422 79.0469 45.1562 78.9727 45.1562 78.8242L46.0352 71.043L43.6445 61.0117C43.6445 60.9023 43.75 60.8398 43.9609 60.8242L46.3398 60.7305C46.5117 60.7383 46.6133 60.8164 46.6445 60.9648ZM57.9883 79.1758C56.6758 79.1758 55.6836 78.7852 55.0117 78.0039C54.3398 77.2227 54.0039 76.2461 54.0039 75.0742C54.0039 72.0898 54.3047 69.1406 54.9062 66.2266C55.3828 63.9375 56.043 62.4062 56.8867 61.6328C57.6836 60.9141 58.7344 60.5547 60.0391 60.5547C61.3516 60.5547 62.3438 60.9492 63.0156 61.7383C63.6953 62.5273 64.0352 63.5 64.0352 64.6562C64.0352 65.8047 63.9609 67.1992 63.8125 68.8398C63.6641 70.4727 63.4805 71.8398 63.2617 72.9414C63.043 74.0352 62.8555 74.8359 62.6992 75.3438C62.5508 75.8438 62.3438 76.3516 62.0781 76.8672C61.8125 77.3828 61.5039 77.7969 61.1523 78.1094C60.3633 78.8203 59.3086 79.1758 57.9883 79.1758ZM58.293 76.4102C59.2852 76.4102 59.9219 75.4961 60.2031 73.668C60.3906 72.457 60.5781 70.9492 60.7656 69.1445C60.9531 67.3398 61.0469 66.0703 61.0469 65.3359C61.0469 64.6016 60.9258 64.082 60.6836 63.7773C60.4492 63.4727 60.1133 63.3203 59.6758 63.3203C58.7695 63.3203 58.1562 64.2383 57.8359 66.0742C57.6484 67.1523 57.4609 68.6172 57.2734 70.4688C57.0859 72.3125 56.9922 73.6133 56.9922 74.3711C56.9922 75.1289 57.1133 75.6602 57.3555 75.9648C57.6055 76.2617 57.918 76.4102 58.293 76.4102ZM70.9375 61.0234L69.5898 73.0352C69.4805 73.957 69.4258 74.6133 69.4258 75.0039C69.4258 75.3945 69.5352 75.7266 69.7539 76C69.9727 76.2734 70.3281 76.4102 70.8203 76.4102C71.3125 76.4102 71.6875 76.1641 71.9453 75.6719C72.2031 75.1797 72.3945 74.3906 72.5195 73.3047L73.8906 61.0938C73.9141 60.9219 74.0195 60.832 74.207 60.8242L76.5742 60.7305C76.7695 60.7383 76.8672 60.832 76.8672 61.0117L75.5195 73.0352C75.2461 75.4961 74.6133 77.1797 73.6211 78.0859C72.8164 78.8125 71.7656 79.1758 70.4688 79.1758C69.1797 79.1758 68.1914 78.8398 67.5039 78.168C66.8242 77.4883 66.4844 76.4883 66.4844 75.168C66.4844 74.5352 66.5234 73.875 66.6016 73.1875L67.9844 61.0938C68 60.9922 68.0234 60.9258 68.0547 60.8945C68.0938 60.8555 68.168 60.832 68.2773 60.8242L70.6445 60.7422C70.8398 60.75 70.9375 60.8438 70.9375 61.0234ZM48.7422 98.0664C48.0703 100.668 45.9688 101.973 42.4375 101.98L41.6992 108.625C41.6758 108.812 41.5781 108.91 41.4062 108.918L38.9453 109.047C38.7734 109.031 38.6875 108.957 38.6875 108.824L40.7148 91.0938C40.7461 90.9297 40.8477 90.8398 41.0195 90.8242C42.4805 90.6914 43.875 90.625 45.2031 90.625C47.8438 90.625 49.1641 91.8906 49.1641 94.4219C49.1641 95.8047 49.0234 97.0195 48.7422 98.0664ZM43.3984 93.3555L42.7305 99.2734C44.082 99.2734 44.9922 98.9922 45.4609 98.4297C45.9297 97.8672 46.1641 96.7734 46.1641 95.1484C46.1641 94.5234 45.9961 94.0625 45.6602 93.7656C45.3242 93.4688 44.8945 93.3203 44.3711 93.3203C43.8477 93.3203 43.5234 93.332 43.3984 93.3555ZM55.6445 91.0234L53.9688 105.918L58.457 105.742C58.6602 105.75 58.7617 105.852 58.7617 106.047L58.457 108.473C58.4336 108.676 58.332 108.781 58.1523 108.789L50.9336 109.047C50.7695 109.047 50.6875 108.973 50.6875 108.824L52.6914 91.0938C52.707 91 52.7305 90.9336 52.7617 90.8945C52.8008 90.8555 52.875 90.832 52.9844 90.8242L55.3398 90.7422C55.543 90.75 55.6445 90.8438 55.6445 91.0234ZM68.4297 91.0117L69.8008 108.66C69.8008 108.84 69.6992 108.938 69.4961 108.953L67.0469 109.047C66.8828 109.047 66.8008 108.973 66.8008 108.824L66.625 104.957L63.9648 105.062L63.0859 108.672C63.0625 108.781 63.0312 108.855 62.9922 108.895C62.9531 108.934 62.8828 108.957 62.7812 108.965L60.3555 109.047C60.1992 109.047 60.1211 108.973 60.1211 108.824L65.2656 91.0938C65.3203 90.9219 65.4258 90.832 65.582 90.8242L68.1602 90.7305C68.3242 90.7383 68.4141 90.832 68.4297 91.0117ZM66.2148 95.8398L64.5742 102.566L66.5195 102.496L66.2148 95.8398ZM75.8594 90.9648L77.1953 97.6562L79.5977 91.0938C79.6602 90.9219 79.7578 90.832 79.8906 90.8242L82.3047 90.7422C82.3984 90.75 82.4727 90.7812 82.5273 90.8359C82.5898 90.8906 82.6211 90.9492 82.6211 91.0117L78.25 100.785L77.3477 108.672C77.3242 108.859 77.2227 108.957 77.043 108.965L74.6289 109.047C74.457 109.047 74.3711 108.973 74.3711 108.824L75.25 101.043L72.8594 91.0117C72.8594 90.9023 72.9648 90.8398 73.1758 90.8242L75.5547 90.7305C75.7266 90.7383 75.8281 90.8164 75.8594 90.9648Z" fill="#362525"/>
</g>
<defs>
<filter id="filter0_d" x="34.6875" y="60.5547" width="51.9336" height="56.4922" filterUnits="userSpaceOnUse" color-interpolation-filters="sRGB">
<feFlood flood-opacity="0" result="BackgroundImageFix"/>
<feColorMatrix in="SourceAlpha" type="matrix" values="0 0 0 0 0 0 0 0 0 0 0 0 0 0 0 0 0 0 127 0"/>
<feOffset dy="4"/>
<feGaussianBlur stdDeviation="2"/>
<feColorMatrix type="matrix" values="0 0 0 0 0 0 0 0 0 0 0 0 0 0 0 0 0 0 0.25 0"/>
<feBlend mode="normal" in2="BackgroundImageFix" result="effect1_dropShadow"/>
<feBlend mode="normal" in="SourceGraphic" in2="effect1_dropShadow" result="shape"/>
</filter>
</defs>
</svg>
